{"glyphs":{"0":{"ha":922,"x_min":76,"x_max":846,"o":"m 846 553 q 749 140 846 293 q 450 -24 644 -24 q 151 154 249 -24 q 76 490 76 290 q 172 901 76 750 q 472 1065 275 1065 q 772 889 675 1065 q 846 553 846 754 m 679 499 q 624 840 679 701 q 443 1003 560 1003 q 297 883 351 1003 q 243 543 243 764 q 296 200 243 336 q 476 39 358 39 q 624 160 569 39 q 679 499 679 281 z "},"1":{"ha":656,"x_min":57,"x_max":600,"o":"m 269 418 l 269 639 q 269 740 269 681 q 268 821 268 801 q 247 871 268 871 q 168 842 231 871 q 86 804 128 824 q 67 799 72 799 q 57 814 57 799 q 71 833 57 825 q 214 928 78 838 q 392 1047 360 1024 q 428 1065 417 1065 q 443 1036 443 1065 q 440 931 443 1056 q 436 675 436 807 l 436 418 q 442 106 436 165 q 454 56 444 69 q 497 31 465 38 q 589 22 536 22 q 600 8 600 22 q 578 -4 600 -4 q 436 -2 517 -4 q 346 0 356 0 q 249 -2 338 0 q 108 -4 160 -4 q 86 8 86 -4 q 97 22 86 22 q 208 32 164 22 q 250 54 239 39 q 264 106 261 69 q 269 418 269 165 z "},"2":{"ha":800,"x_min":3,"x_max":728,"o":"m 567 0 l 22 0 q 3 19 3 0 q 31 56 3 31 q 339 350 267 263 q 501 736 501 546 q 432 950 501 882 q 311 1000 382 1000 q 164 950 217 1000 q 123 887 140 928 q 106 818 106 846 q 88 790 106 790 q 75 817 78 790 q 67 985 67 904 q 83 1013 67 1001 q 335 1065 186 1065 q 601 978 508 1065 q 683 769 683 900 q 511 399 683 593 q 206 122 417 292 q 208 113 193 113 l 303 113 q 542 121 474 113 q 700 244 672 138 q 717 267 706 267 q 728 240 728 267 q 713 151 728 224 q 688 42 699 78 q 657 7 679 14 q 567 0 635 0 z "},"3":{"ha":811,"x_min":51,"x_max":724,"o":"m 285 -24 q 75 10 135 -24 q 51 49 51 22 q 61 222 51 167 q 76 249 65 249 q 89 229 89 249 q 140 104 89 156 q 297 44 199 44 q 475 101 407 44 q 549 282 549 164 q 457 479 549 404 q 314 546 393 531 q 269 569 269 554 q 294 589 269 583 q 425 651 365 603 q 510 828 510 721 q 471 935 510 886 q 325 999 419 999 q 188 956 243 999 q 132 851 132 913 q 119 831 132 831 q 108 850 111 831 q 99 989 99 933 q 118 1015 99 1007 q 364 1065 231 1065 q 622 988 539 1065 q 679 860 679 932 q 599 692 679 771 q 476 610 538 632 l 476 607 q 639 525 572 585 q 724 333 724 447 q 606 82 724 183 q 285 -24 482 -24 z "},"4":{"ha":935,"x_min":33,"x_max":874,"o":"m 543 274 l 68 274 q 33 294 33 274 q 51 331 33 310 q 639 1040 339 679 q 675 1065 660 1065 q 692 1042 692 1065 q 692 964 692 1040 q 690 833 690 888 l 690 382 l 797 382 q 840 389 819 382 q 861 396 861 396 q 874 379 874 396 q 850 292 874 335 q 813 274 840 274 l 690 274 q 694 106 690 150 q 753 28 700 39 q 815 22 779 22 q 828 8 828 22 q 806 -4 828 -4 q 690 -2 761 -4 q 610 0 618 0 q 528 -2 594 0 q 419 -4 463 -4 q 397 8 397 -4 q 408 22 397 22 q 474 26 436 22 q 539 106 533 33 q 543 274 543 158 m 543 382 l 543 811 l 539 811 q 181 382 383 628 l 543 382 z "},"5":{"ha":800,"x_min":76,"x_max":690,"o":"m 233 -24 q 103 1 153 -24 q 76 56 76 14 q 82 231 76 196 q 97 256 86 256 q 110 232 110 256 q 299 46 110 46 q 456 106 392 46 q 528 300 528 174 q 393 542 528 447 q 176 629 294 613 q 151 657 150 633 l 183 1024 q 210 1042 185 1042 l 550 1042 q 628 1047 597 1042 q 656 1051 660 1051 q 669 1025 669 1051 q 651 847 669 961 q 636 831 649 831 q 625 850 625 831 q 606 903 625 886 q 503 925 579 925 l 250 925 l 231 756 q 538 639 415 726 q 690 367 690 532 q 583 103 690 211 q 233 -24 458 -24 z "},"6":{"ha":882,"x_min":76,"x_max":806,"o":"m 443 -24 q 178 83 279 -24 q 76 375 76 190 q 222 773 76 579 q 592 1057 367 967 q 622 1065 613 1065 q 639 1053 639 1065 q 604 1022 639 1042 q 367 788 463 943 q 250 374 250 603 q 303 144 250 240 q 461 38 363 38 q 587 97 538 38 q 636 271 636 156 q 572 482 636 406 q 440 549 518 549 q 368 539 404 549 q 338 531 338 531 q 326 544 326 531 q 342 565 326 554 q 522 615 414 615 q 738 521 657 615 q 806 333 806 440 q 702 76 806 175 q 443 -24 599 -24 z "},"7":{"ha":744,"x_min":51,"x_max":751,"o":"m 274 1042 l 718 1042 q 751 1031 751 1042 q 742 1006 751 1019 q 530 565 656 883 q 389 113 404 247 q 389 61 389 113 q 324 8 389 40 q 214 -24 260 -24 q 194 -7 194 -24 q 204 50 194 17 q 351 411 239 167 q 613 914 481 693 l 253 914 q 122 888 160 914 q 76 806 83 863 q 63 788 74 788 q 51 808 51 788 q 62 936 51 839 q 72 1036 72 1033 q 86 1056 72 1056 q 128 1049 74 1056 q 274 1042 183 1042 z "},"8":{"ha":892,"x_min":88,"x_max":804,"o":"m 436 -24 q 183 49 279 -24 q 88 249 88 122 q 165 442 88 357 q 343 560 231 515 q 142 814 142 664 q 218 981 142 910 q 471 1065 308 1065 q 678 1009 600 1065 q 756 853 756 953 q 682 681 756 756 q 551 596 628 625 q 715 485 663 536 q 804 285 804 397 q 708 69 804 156 q 436 -24 604 -24 m 244 257 q 303 103 244 165 q 447 40 363 40 q 587 98 531 40 q 643 250 643 156 q 572 414 643 343 q 408 526 529 456 q 244 257 244 432 m 608 840 q 565 961 608 917 q 456 1006 521 1006 q 325 953 372 1006 q 286 842 286 907 q 332 729 286 779 q 472 628 374 683 q 608 840 608 689 z "},"9":{"ha":858,"x_min":69,"x_max":775,"o":"m 425 1065 q 685 956 589 1065 q 775 688 775 851 q 583 215 775 431 q 263 -26 444 58 q 238 -32 253 -32 q 225 -18 225 -32 q 242 6 225 -8 q 476 238 378 88 q 603 649 603 428 q 538 918 603 822 q 392 1003 479 1003 q 272 944 318 1003 q 225 796 225 886 q 300 585 225 657 q 410 533 353 533 q 494 549 449 533 q 532 565 539 565 q 543 553 543 565 q 536 538 543 544 q 353 474 476 474 q 136 564 215 474 q 69 742 69 640 q 167 974 69 883 q 425 1065 265 1065 z "}," ":{"ha":417,"x_min":0,"x_max":0,"o":""},"!":{"ha":444,"x_min":124,"x_max":321,"o":"m 222 -24 q 164 3 185 -24 q 146 54 146 24 q 166 108 146 83 q 224 133 186 133 q 279 113 257 133 q 301 60 301 93 q 279 1 301 25 q 222 -24 257 -24 m 219 228 q 199 278 203 228 q 164 656 182 475 q 135 906 156 756 q 124 942 124 951 q 131 964 124 953 q 256 1051 172 1015 q 308 1065 289 1065 q 321 1047 321 1065 q 314 992 321 1043 q 299 868 304 928 l 240 272 q 219 228 236 228 z "},"$":{"ha":776,"x_min":81,"x_max":668,"o":"m 368 0 l 356 -112 q 342 -124 354 -121 l 299 -132 q 290 -130 293 -133 q 289 -118 288 -126 l 303 0 q 128 29 199 0 q 90 51 99 42 q 81 89 81 61 q 101 257 81 171 q 122 290 110 290 q 132 253 135 290 q 172 126 128 176 q 308 64 229 64 l 353 474 q 182 633 231 567 q 126 804 126 710 q 226 993 126 922 q 421 1054 313 1054 l 435 1165 q 450 1178 436 1175 l 492 1188 q 500 1188 497 1189 q 503 1181 503 1186 l 486 1054 q 639 1028 568 1054 q 663 993 663 1019 q 646 840 663 924 q 631 821 642 821 q 617 847 617 821 q 575 955 615 914 q 481 996 535 996 l 438 619 q 606 475 554 542 q 668 286 668 393 q 560 63 668 143 q 368 0 474 0 m 376 660 l 414 996 q 314 967 357 996 q 253 840 253 926 q 290 742 253 789 q 376 660 315 710 m 415 432 l 378 64 q 492 117 447 68 q 538 242 538 167 q 415 432 538 349 z "},"%":{"ha":1206,"x_min":51,"x_max":1154,"o":"m 896 0 q 707 82 775 0 q 650 244 650 150 q 708 425 650 353 q 906 510 778 510 q 1096 429 1028 510 q 1154 265 1154 360 q 1094 85 1154 158 q 896 0 1024 0 m 901 47 q 999 102 964 47 q 1035 246 1035 157 q 999 393 1035 328 q 899 463 958 463 q 801 403 836 463 q 769 264 769 350 q 804 118 769 182 q 901 47 843 47 m 431 -6 l 343 -17 q 326 -15 329 -18 q 329 1 324 -11 q 771 1013 543 493 q 465 990 572 996 l 465 988 q 528 915 503 965 q 554 796 554 860 q 493 615 554 689 q 297 531 424 531 q 108 613 176 531 q 51 775 51 681 q 114 957 51 882 q 314 1042 185 1042 q 653 1058 457 1042 q 844 1074 850 1074 q 858 1068 858 1074 q 843 1028 858 1067 l 444 11 q 431 -6 439 -4 m 303 578 q 401 633 365 578 q 436 776 436 688 q 400 924 436 858 q 300 993 360 993 q 203 933 238 993 q 171 794 171 881 q 206 649 171 713 q 303 578 244 578 z "},"&":{"ha":1153,"x_min":81,"x_max":1272,"o":"m 81 283 q 163 494 81 393 q 307 613 228 574 q 236 810 238 704 q 314 979 235 906 q 574 1065 407 1065 q 742 1036 667 1065 q 765 1000 765 1026 q 750 822 765 914 q 733 799 746 799 q 724 825 724 799 q 683 942 724 893 q 529 1004 631 1004 q 433 969 475 1004 q 381 846 381 925 q 454 661 381 761 q 611 481 472 636 q 856 249 669 415 q 922 463 922 342 q 888 532 922 511 q 828 547 864 547 q 811 558 811 547 q 833 572 811 572 q 1000 563 908 572 q 1047 535 1047 557 q 1010 366 1047 456 q 911 206 972 276 q 1104 69 1006 128 q 1183 35 1136 50 q 1251 21 1231 21 q 1272 8 1272 21 q 1231 -4 1272 -4 l 1124 -4 q 944 15 1004 -4 q 796 103 885 35 q 467 -24 657 -24 q 163 85 267 -24 q 81 283 81 169 m 514 64 q 657 96 585 64 q 742 147 713 119 q 492 386 600 269 q 343 560 378 510 q 247 349 247 489 q 325 143 247 222 q 514 64 403 64 z "},"(":{"ha":500,"x_min":79,"x_max":417,"o":"m 214 513 q 406 -72 214 174 q 417 -93 417 -86 q 406 -103 417 -103 q 392 -96 401 -103 q 194 115 279 -17 q 79 494 79 294 q 203 886 79 693 q 390 1094 294 1031 q 407 1103 403 1103 q 417 1092 417 1103 q 408 1076 417 1086 q 288 865 343 1000 q 214 513 214 686 z "},")":{"ha":500,"x_min":83,"x_max":421,"o":"m 286 488 q 94 1072 286 826 q 83 1093 83 1086 q 94 1103 83 1103 q 108 1096 99 1103 q 306 885 221 1017 q 421 506 421 706 q 297 114 421 307 q 110 -94 206 -31 q 93 -103 97 -103 q 83 -92 83 -103 q 92 -76 83 -86 q 213 135 157 0 q 286 488 286 314 z "},"*":{"ha":528,"x_min":68,"x_max":460,"o":"m 257 881 q 251 876 256 881 q 208 761 229 840 q 202 733 206 747 q 185 718 199 718 q 123 731 154 718 q 92 754 92 744 q 106 778 92 763 q 169 838 115 792 q 235 889 219 881 q 239 897 239 893 q 233 901 239 901 q 108 903 179 911 q 85 900 85 900 q 68 999 68 900 q 86 1017 68 1017 q 174 975 114 1017 q 242 922 224 942 q 251 921 246 918 q 253 931 253 924 q 211 1061 249 981 q 203 1083 203 1079 q 246 1110 203 1096 q 306 1122 283 1122 q 319 1107 319 1122 q 274 929 319 1067 q 274 921 271 926 q 281 921 275 919 q 407 1003 331 936 q 426 1017 417 1017 q 447 975 435 1017 q 460 910 460 933 q 446 899 460 901 q 379 899 439 897 q 286 901 314 899 q 279 899 285 901 q 281 889 276 896 q 339 835 294 869 q 397 796 383 800 q 417 782 417 790 q 381 739 417 768 q 333 710 346 710 q 311 729 324 710 q 263 872 281 797 q 257 881 258 881 z "},",":{"ha":347,"x_min":89,"x_max":258,"o":"m 89 99 q 124 164 89 133 q 193 194 160 194 q 232 153 206 194 q 258 88 258 113 q 240 21 258 63 q 131 -164 189 -97 q 107 -181 111 -181 q 96 -167 96 -181 q 107 -143 96 -171 q 147 -22 147 -74 q 118 60 147 25 q 89 99 89 96 z "},"-":{"ha":590,"x_min":44,"x_max":543,"o":"m 104 604 l 499 604 q 543 585 543 604 q 481 554 543 564 q 122 488 200 508 q 88 474 108 483 q 61 465 67 465 q 50 490 44 465 l 71 586 q 104 604 75 604 z "},".":{"ha":347,"x_min":89,"x_max":258,"o":"m 172 0 q 108 28 132 0 q 89 85 89 51 q 108 140 89 115 q 174 169 133 169 q 234 147 210 169 q 258 89 258 125 q 235 26 258 51 q 172 0 211 0 z "},"/":{"ha":753,"x_min":15,"x_max":736,"o":"m 74 -26 l 25 6 q 25 29 15 13 l 658 1057 q 678 1064 667 1071 l 728 1033 q 729 1017 736 1028 l 92 -18 q 74 -26 83 -32 z "},":":{"ha":347,"x_min":89,"x_max":258,"o":"m 172 42 q 108 69 132 42 q 89 126 89 93 q 108 182 89 157 q 174 211 133 211 q 234 189 210 211 q 258 131 258 167 q 235 67 258 93 q 172 42 211 42 m 172 511 q 110 538 132 511 q 89 596 89 564 q 108 651 89 628 q 174 681 132 681 q 234 658 210 681 q 258 600 258 636 q 234 537 258 563 q 172 511 210 511 z "},";":{"ha":347,"x_min":89,"x_max":258,"o":"m 89 113 q 124 178 89 147 q 193 208 160 208 q 232 167 206 208 q 258 101 258 126 q 240 35 258 76 q 131 -150 189 -83 q 107 -167 111 -167 q 96 -153 96 -167 q 107 -129 96 -157 q 147 -8 147 -60 q 118 74 147 39 q 89 113 89 110 m 172 511 q 108 539 132 511 q 89 594 89 563 q 110 653 89 626 q 174 681 132 681 q 234 658 210 681 q 258 600 258 636 q 234 537 258 563 q 172 511 210 511 z "},"?":{"ha":739,"x_min":86,"x_max":642,"o":"m 347 1065 q 581 993 501 1065 q 642 857 642 936 q 564 640 642 746 q 406 461 485 551 q 335 339 335 378 q 363 258 335 308 q 368 243 368 250 q 356 232 368 232 q 285 275 339 232 q 222 363 222 325 q 252 434 222 397 q 342 544 282 471 q 438 701 411 639 q 464 831 464 763 q 429 947 464 901 q 299 1004 385 1004 q 166 949 208 1004 q 118 835 124 894 q 106 807 115 807 q 92 825 96 807 q 86 988 86 850 q 101 1010 86 1000 q 347 1065 194 1065 m 322 -24 q 264 3 285 -24 q 246 54 246 24 q 266 108 246 83 q 324 133 286 133 q 379 113 357 133 q 401 60 401 93 q 379 1 401 25 q 322 -24 357 -24 z "},"A":{"ha":972,"x_min":-89,"x_max":1054,"o":"m 593 358 l 283 358 q 271 347 275 358 l 196 149 q 175 64 175 93 q 231 21 175 21 l 251 21 q 272 10 272 21 q 249 -4 272 -4 q 174 -2 226 -4 q 101 0 122 0 q 41 -2 101 0 q -62 -4 -19 -4 q -89 10 -89 -4 q -72 21 -89 21 q -29 24 -50 21 q 43 63 15 29 q 89 149 65 89 l 438 1021 q 476 1076 460 1076 q 511 1032 492 1076 q 856 178 639 710 q 978 26 914 40 q 1036 21 1003 21 q 1054 10 1054 21 q 1040 -1 1054 1 q 990 -4 1026 -4 q 728 -1 818 -4 q 686 10 686 0 q 706 22 686 21 q 718 54 728 29 l 607 349 q 593 358 603 358 m 311 428 l 567 428 q 574 436 576 428 l 449 779 q 442 792 446 792 q 433 779 436 792 l 306 438 q 311 428 303 428 z "},"B":{"ha":982,"x_min":88,"x_max":883,"o":"m 228 399 l 228 643 q 225 938 228 892 q 165 1017 221 1004 q 111 1021 146 1021 q 88 1033 88 1021 q 118 1046 88 1046 q 230 1044 161 1046 q 307 1042 299 1042 q 399 1044 343 1042 q 476 1046 456 1046 q 718 969 643 1046 q 772 838 772 915 q 631 594 772 708 q 800 490 732 560 q 883 294 883 406 q 794 88 883 172 q 513 -8 692 -8 q 415 -4 497 -8 q 311 0 333 0 q 233 -2 299 0 q 136 -4 167 -4 q 108 10 108 -4 q 139 22 108 19 q 181 26 160 25 q 221 103 213 33 q 228 399 228 157 m 394 963 l 394 619 q 404 604 394 607 q 469 600 422 600 q 569 626 538 600 q 626 774 626 674 q 585 917 626 854 q 453 989 535 989 q 400 983 406 989 q 394 963 394 978 m 713 232 q 578 508 713 414 q 463 542 536 538 q 403 543 436 543 q 394 533 394 543 l 394 204 q 403 110 394 132 q 443 71 411 83 q 544 54 483 54 q 651 89 607 54 q 713 232 713 136 z "},"C":{"ha":1111,"x_min":76,"x_max":1042,"o":"m 725 -24 q 249 127 422 -24 q 76 538 76 278 q 238 917 76 769 q 678 1065 400 1065 q 879 1051 774 1065 q 1018 1028 928 1042 q 1039 1011 1039 1026 q 1036 988 1039 1007 q 1032 935 1033 963 q 1028 785 1031 874 q 1011 753 1025 753 q 997 783 997 753 q 943 911 996 856 q 833 972 907 949 q 661 997 754 997 q 400 911 494 997 q 272 551 272 794 q 421 181 272 322 q 710 57 550 57 q 847 68 799 57 q 964 135 921 85 q 1011 226 1001 176 q 1029 254 1017 254 q 1042 233 1042 254 q 1032 153 1042 218 q 1012 50 1021 81 q 975 8 1003 19 q 725 -24 896 -24 z "},"D":{"ha":1300,"x_min":88,"x_max":1224,"o":"m 228 399 l 228 643 q 225 938 228 892 q 165 1017 221 1004 q 111 1021 146 1021 q 88 1033 88 1021 q 118 1046 88 1046 q 231 1044 160 1046 q 318 1042 303 1042 q 410 1044 335 1042 q 532 1046 485 1046 q 818 1026 719 1046 q 1089 888 989 992 q 1224 535 1224 747 q 1072 147 1224 301 q 607 -17 911 -17 q 447 -8 553 -17 q 311 0 342 0 q 233 -2 299 0 q 136 -4 167 -4 q 108 10 108 -4 q 139 22 108 19 q 181 26 160 25 q 221 103 213 33 q 228 399 228 157 m 401 665 l 401 490 q 404 210 401 271 q 419 104 408 121 q 601 49 458 49 q 922 149 806 49 q 1038 494 1038 249 q 904 842 1038 714 q 510 981 758 981 q 422 972 440 981 q 403 943 403 964 q 401 665 401 881 z "},"E":{"ha":878,"x_min":88,"x_max":789,"o":"m 228 399 l 228 643 q 225 938 228 892 q 165 1017 221 1004 q 111 1021 146 1021 q 88 1033 88 1021 q 118 1046 88 1046 q 231 1044 160 1046 q 318 1042 303 1042 q 665 1043 647 1042 q 725 1051 701 1046 q 747 1057 749 1057 q 756 1044 756 1057 q 751 1019 756 1043 q 745 954 747 992 q 738 863 743 917 q 724 847 735 847 q 712 863 714 847 q 708 892 710 878 q 703 917 707 906 q 610 967 686 957 q 413 972 563 972 q 403 958 403 972 l 403 607 q 413 592 403 592 q 635 594 603 592 q 671 599 658 596 q 701 615 692 604 q 724 633 718 633 q 733 622 733 633 q 729 594 733 621 q 722 521 725 563 q 717 428 717 442 q 704 401 717 401 q 692 416 692 401 q 686 464 692 431 q 608 518 675 511 q 411 522 569 522 q 403 508 403 522 l 403 183 q 435 88 406 110 q 569 67 465 67 q 700 83 664 67 q 763 186 749 106 q 778 207 767 207 q 789 182 789 207 q 771 28 789 97 q 751 -3 764 3 q 696 -8 739 -8 q 456 -4 575 -8 q 311 0 336 0 q 233 -2 299 0 q 136 -4 167 -4 q 108 10 108 -4 q 139 22 108 19 q 181 26 160 25 q 221 103 213 33 q 228 399 228 157 z "},"F":{"ha":864,"x_min":88,"x_max":775,"o":"m 403 511 l 403 399 q 410 103 403 164 q 464 26 418 33 q 533 21 504 21 q 557 10 557 21 q 526 -4 557 -4 q 401 -2 476 -4 q 315 0 326 0 q 234 -2 300 0 q 139 -4 168 -4 q 110 10 110 -4 q 140 22 110 19 q 181 26 160 25 q 221 103 213 33 q 228 399 228 157 l 228 643 q 225 938 228 892 q 165 1017 221 1004 q 111 1021 146 1021 q 88 1032 88 1021 q 119 1046 88 1046 q 231 1044 160 1046 q 319 1042 303 1042 q 686 1043 657 1042 q 743 1049 708 1043 q 765 1057 769 1057 q 775 1044 775 1057 q 771 1024 775 1040 q 764 982 767 1003 q 757 869 761 935 q 743 850 754 850 q 729 872 731 850 q 721 925 729 907 q 629 967 703 965 l 415 971 q 403 951 403 971 l 403 604 q 413 592 403 592 l 590 593 q 656 594 649 593 q 713 619 696 599 q 731 633 724 633 q 739 621 739 633 q 735 590 739 618 q 728 535 731 558 q 722 433 722 478 q 708 407 722 407 q 696 433 700 407 q 689 469 692 451 q 618 519 674 513 q 413 524 585 524 q 403 511 403 524 z "},"G":{"ha":1231,"x_min":76,"x_max":1181,"o":"m 1071 242 l 1071 89 q 1053 39 1071 49 q 718 -24 935 -24 q 269 106 442 -24 q 76 521 76 250 q 150 803 76 678 q 318 975 214 913 q 692 1065 468 1065 q 938 1043 824 1065 q 1047 1028 1003 1031 q 1067 1011 1067 1026 q 1062 957 1067 1024 q 1057 783 1057 890 q 1042 754 1057 754 q 1028 772 1031 754 q 981 888 1018 847 q 869 958 943 928 q 671 996 778 996 q 396 910 499 996 q 268 569 268 803 q 401 194 268 342 q 751 47 535 47 q 886 76 867 47 q 896 114 896 89 l 896 244 q 894 408 896 364 q 835 488 893 475 q 781 492 815 492 q 760 503 760 492 q 789 517 760 517 q 901 515 829 517 q 990 513 974 513 q 1070 515 1011 513 q 1153 517 1129 517 q 1181 503 1181 517 q 1165 492 1181 492 q 1125 488 1149 492 q 1072 408 1075 478 q 1071 242 1071 364 z "},"H":{"ha":1350,"x_min":88,"x_max":1276,"o":"m 410 604 l 940 604 q 949 614 949 604 l 949 643 q 946 938 949 892 q 886 1017 942 1004 q 832 1021 867 1021 q 808 1033 808 1021 q 838 1046 808 1046 q 951 1044 879 1046 q 1038 1042 1024 1042 q 1117 1044 1051 1042 q 1213 1046 1183 1046 q 1242 1033 1242 1046 q 1217 1021 1242 1021 q 1176 1017 1200 1021 q 1125 938 1129 1008 q 1122 643 1122 892 l 1122 399 q 1129 101 1122 163 q 1183 26 1138 33 q 1254 21 1224 21 q 1276 10 1276 21 q 1249 -4 1276 -4 q 1121 -2 1197 -4 q 1032 0 1044 0 q 954 -2 1019 0 q 858 -4 889 -4 q 829 10 829 -4 q 860 22 829 19 q 901 26 881 25 q 942 103 933 33 q 949 399 949 157 l 949 521 q 940 529 949 529 l 410 529 q 401 521 401 529 l 401 399 q 408 101 401 163 q 463 26 417 33 q 533 21 503 21 q 556 10 556 21 q 528 -4 556 -4 q 400 -2 476 -4 q 311 0 324 0 q 233 -2 299 0 q 136 -4 167 -4 q 108 10 108 -4 q 139 22 108 19 q 181 26 160 25 q 221 103 213 33 q 228 399 228 157 l 228 643 q 225 938 228 892 q 165 1017 221 1004 q 111 1021 146 1021 q 88 1033 88 1021 q 117 1046 88 1046 q 231 1044 158 1046 q 317 1042 303 1042 q 397 1044 331 1042 q 492 1046 463 1046 q 521 1033 521 1046 q 496 1021 521 1021 q 456 1017 479 1021 q 404 938 408 1008 q 401 643 401 892 l 401 614 q 410 604 401 604 z "},"I":{"ha":628,"x_min":106,"x_max":554,"o":"m 228 399 l 228 643 q 225 938 228 892 q 178 1015 221 1004 q 130 1021 154 1021 q 106 1035 106 1021 q 139 1046 106 1046 q 234 1044 167 1046 q 319 1042 301 1042 q 397 1044 335 1042 q 489 1046 460 1046 q 518 1035 518 1046 q 498 1021 518 1021 q 454 1017 478 1021 q 403 938 407 1008 q 400 643 400 892 l 400 399 q 406 94 400 150 q 461 26 411 33 q 532 21 501 21 q 554 10 554 21 q 528 -4 554 -4 q 399 -2 475 -4 q 311 0 324 0 q 233 -2 299 0 q 136 -4 167 -4 q 108 10 108 -4 q 139 22 108 19 q 181 26 160 25 q 221 95 214 33 q 228 399 228 157 z "},"J":{"ha":578,"x_min":26,"x_max":519,"o":"m 228 244 l 228 643 q 225 938 228 892 q 165 1017 221 1004 q 111 1021 146 1021 q 88 1033 88 1021 q 118 1046 88 1046 q 231 1044 160 1046 q 315 1042 301 1042 q 395 1044 329 1042 q 490 1046 461 1046 q 519 1033 519 1046 q 494 1021 519 1021 q 454 1017 478 1021 q 403 938 407 1008 q 400 643 400 892 l 400 386 q 402 292 400 357 q 404 190 404 226 q 371 -56 404 39 q 135 -318 318 -206 q 65 -354 122 -325 q 38 -362 49 -362 q 26 -351 26 -362 q 57 -326 26 -343 q 124 -274 88 -310 q 215 -76 196 -200 q 228 244 228 3 z "},"K":{"ha":1067,"x_min":88,"x_max":1206,"o":"m 397 643 l 397 582 l 404 582 q 694 888 529 711 q 764 992 764 969 q 745 1019 764 1015 q 726 1033 726 1024 q 749 1046 726 1046 q 817 1044 763 1046 q 892 1042 872 1042 q 974 1044 914 1042 q 1054 1046 1033 1046 q 1078 1033 1078 1046 q 1057 1021 1078 1021 q 976 1006 1017 1021 q 826 901 906 979 q 526 601 621 701 q 713 392 561 556 q 903 192 858 233 q 997 106 969 128 q 1103 41 1051 61 q 1188 21 1154 21 q 1206 10 1206 21 q 1172 -4 1206 -4 l 1051 -4 q 956 -1 985 -4 q 864 26 904 3 q 783 89 835 43 q 589 301 742 125 q 419 504 447 465 l 404 525 l 397 525 l 397 399 q 401 101 397 161 q 451 26 406 33 q 519 21 488 21 q 538 10 538 21 q 511 -4 538 -4 q 395 -2 467 -4 q 311 0 324 0 q 233 -2 299 0 q 136 -4 167 -4 q 108 10 108 -4 q 139 22 108 19 q 181 26 160 25 q 221 103 213 33 q 228 399 228 157 l 228 643 q 225 938 228 892 q 165 1017 221 1004 q 111 1021 146 1021 q 88 1033 88 1021 q 118 1046 88 1046 q 231 1044 160 1046 q 313 1042 301 1042 q 392 1044 328 1042 q 481 1046 456 1046 q 510 1033 510 1046 q 490 1021 510 1021 q 422 1004 442 1021 q 400 940 403 988 q 397 643 397 892 z "},"L":{"ha":840,"x_min":96,"x_max":824,"o":"m 401 643 l 401 399 q 406 192 401 242 q 431 100 411 117 q 599 69 465 69 q 761 108 725 69 q 797 192 792 142 q 813 213 800 213 q 824 189 824 213 q 803 29 824 106 q 769 -6 794 0 q 715 -8 760 -8 q 481 -4 604 -8 q 311 0 357 0 q 233 -2 299 0 q 136 -4 167 -4 q 108 10 108 -4 q 139 22 108 19 q 181 26 160 25 q 221 103 213 33 q 228 399 228 157 l 228 643 q 225 938 228 892 q 194 1007 222 989 q 119 1021 172 1021 q 96 1033 96 1021 q 126 1046 96 1046 q 232 1044 163 1046 q 317 1042 301 1042 q 403 1044 331 1042 q 506 1046 476 1046 q 535 1033 535 1046 q 510 1021 535 1021 q 456 1017 479 1021 q 404 938 408 1008 q 401 643 401 892 z "},"M":{"ha":1449,"x_min":21,"x_max":1456,"o":"m 142 135 l 279 1040 q 303 1076 285 1076 q 340 1033 319 1076 l 719 250 l 1097 1043 q 1128 1076 1113 1076 q 1153 1033 1146 1076 l 1279 175 q 1303 75 1289 106 q 1347 35 1317 44 q 1433 21 1393 21 q 1456 11 1456 21 q 1419 -4 1456 -4 q 1138 4 1243 -4 q 1097 19 1097 7 q 1112 35 1097 29 q 1119 94 1126 40 l 1036 706 l 1031 706 l 728 75 q 676 -3 690 -3 q 628 67 664 -3 q 468 382 496 318 q 324 690 421 485 l 318 690 l 246 138 q 242 72 242 106 q 283 28 242 38 q 342 21 314 21 q 363 11 363 21 q 329 -4 363 -4 q 244 -2 296 -4 q 183 0 192 0 q 122 -2 172 0 q 46 -4 71 -4 q 21 11 21 -4 q 43 21 21 21 q 85 25 65 21 q 142 135 126 33 z "},"N":{"ha":1315,"x_min":65,"x_max":1233,"o":"m 290 768 l 306 185 q 354 31 310 46 q 408 24 358 29 q 450 10 450 18 q 418 -4 450 -4 q 308 -2 365 -4 q 246 0 251 0 q 193 -2 247 0 q 96 -4 139 -4 q 65 10 65 -4 q 101 22 65 19 q 150 28 126 25 q 185 72 176 36 q 193 200 192 104 l 206 1022 q 224 1069 207 1069 q 275 1026 235 1069 q 706 581 389 904 q 1011 264 847 433 l 1018 264 l 1004 888 q 999 958 1003 939 q 957 1013 988 1000 q 883 1021 936 1021 q 861 1033 861 1021 q 897 1046 861 1046 q 997 1044 939 1046 q 1065 1042 1056 1042 q 1114 1044 1067 1042 q 1201 1046 1161 1046 q 1233 1033 1233 1046 q 1208 1021 1233 1021 q 1124 975 1139 1021 q 1115 899 1117 950 l 1100 22 q 1082 -21 1099 -21 q 1035 10 1067 -21 q 625 418 901 142 q 413 639 531 511 q 294 768 353 704 l 290 768 z "},"O":{"ha":1288,"x_min":76,"x_max":1211,"o":"m 636 -24 q 207 157 361 -24 q 76 521 76 308 q 207 882 76 731 q 650 1065 364 1065 q 1060 925 908 1065 q 1211 546 1211 785 q 1056 142 1211 301 q 636 -24 896 -24 m 694 46 q 892 119 811 46 q 1017 494 1017 232 q 899 864 1017 722 q 610 999 785 999 q 379 911 467 999 q 268 564 268 800 q 382 197 268 340 q 694 46 500 46 z "},"P":{"ha":910,"x_min":88,"x_max":847,"o":"m 228 399 l 228 643 q 225 938 228 892 q 165 1017 221 1004 q 111 1021 146 1021 q 88 1033 88 1021 q 118 1046 88 1046 q 231 1044 160 1046 q 318 1042 303 1042 q 416 1044 346 1042 q 519 1046 486 1046 q 778 967 694 1046 q 847 801 847 901 q 751 560 847 654 q 506 465 654 465 q 476 467 483 465 q 460 479 460 469 q 499 494 460 494 q 621 556 564 494 q 685 724 685 625 q 603 932 685 858 q 464 986 543 986 q 412 981 425 986 q 399 954 399 976 l 399 399 q 406 101 399 163 q 460 26 414 33 q 531 21 500 21 q 553 10 553 21 q 526 -4 553 -4 q 398 -2 474 -4 q 311 0 322 0 q 233 -2 299 0 q 136 -4 167 -4 q 108 10 108 -4 q 139 22 108 19 q 181 26 160 25 q 221 103 213 33 q 228 399 228 157 z "},"Q":{"ha":1292,"x_min":76,"x_max":2122,"o":"m 1078 -115 l 860 13 q 642 -24 764 -24 q 207 158 361 -24 q 76 528 76 311 q 208 882 76 728 q 646 1065 367 1065 q 1053 923 897 1065 q 1208 539 1208 781 q 1121 240 1208 376 q 967 82 1056 142 l 1246 -61 q 1818 -226 1568 -226 q 2089 -178 1963 -226 q 2110 -171 2107 -171 q 2122 -183 2122 -171 q 2106 -200 2122 -192 q 1665 -304 1888 -304 q 1379 -260 1513 -304 q 1078 -115 1256 -219 m 693 46 q 896 121 817 46 q 1014 501 1014 233 q 886 876 1014 738 q 614 999 772 999 q 374 900 464 999 q 269 560 269 786 q 397 179 269 322 q 693 46 517 46 z "},"R":{"ha":1049,"x_min":88,"x_max":1183,"o":"m 228 399 l 228 643 q 225 938 228 892 q 165 1017 221 1004 q 111 1021 146 1021 q 88 1033 88 1021 q 118 1046 88 1046 q 231 1044 161 1046 q 308 1042 300 1042 q 408 1044 332 1042 q 504 1046 483 1046 q 760 986 672 1046 q 821 915 794 963 q 854 796 854 860 q 671 485 854 633 q 838 276 822 293 q 972 119 918 175 q 1128 25 1049 40 q 1160 22 1144 24 q 1183 10 1183 19 q 1157 -4 1183 -4 l 1025 -4 q 876 22 925 -4 q 686 226 808 58 q 549 418 626 311 q 524 428 540 428 l 403 431 q 392 419 392 431 l 392 400 q 399 103 392 164 q 453 26 407 32 q 521 21 494 21 q 538 10 538 21 q 510 -4 538 -4 q 385 -2 463 -4 q 306 0 308 0 q 232 -2 296 0 q 136 -4 168 -4 q 108 10 108 -4 q 139 22 108 19 q 181 26 160 25 q 221 103 213 33 q 228 399 228 157 m 392 956 l 392 533 q 404 508 392 513 q 510 494 443 494 q 608 518 576 494 q 690 726 690 578 q 615 928 690 858 q 478 981 556 981 q 399 972 411 981 q 392 956 392 968 z "},"S":{"ha":808,"x_min":125,"x_max":706,"o":"m 354 -24 q 151 13 233 -24 q 125 60 125 24 q 132 242 125 135 q 149 278 135 278 q 163 254 163 278 q 175 183 163 225 q 374 43 217 43 q 514 94 461 43 q 560 201 560 140 q 424 424 560 317 l 360 474 q 154 803 154 635 q 243 992 154 918 q 475 1065 332 1065 q 660 1042 565 1065 q 679 1025 679 1036 q 676 976 679 1028 q 674 858 674 924 q 658 817 674 817 q 644 842 644 817 q 608 933 644 888 q 457 1001 554 1001 q 336 962 381 1001 q 292 858 292 922 q 323 766 292 810 q 439 658 354 722 l 478 629 q 654 455 603 535 q 706 275 706 375 q 575 33 706 118 q 354 -24 488 -24 z "},"T":{"ha":986,"x_min":19,"x_max":958,"o":"m 413 399 l 413 968 l 206 963 q 71 922 96 960 q 47 874 53 896 q 32 857 43 857 q 19 879 19 857 q 49 1039 19 917 q 65 1065 56 1065 q 88 1058 69 1065 q 125 1049 106 1050 q 264 1042 200 1042 l 814 1042 q 910 1049 868 1042 q 947 1056 951 1056 q 958 1026 958 1056 q 956 949 958 1013 q 953 864 954 885 q 942 843 951 843 q 926 871 929 843 l 925 886 q 761 964 918 960 l 586 968 l 586 399 q 593 101 586 163 q 647 26 601 33 q 718 21 688 21 q 740 10 740 21 q 714 -4 740 -4 q 585 -2 661 -4 q 496 0 508 0 q 417 -2 483 0 q 321 -4 351 -4 q 293 10 293 -4 q 324 22 293 19 q 365 26 344 25 q 406 103 397 33 q 413 399 413 164 z "},"U":{"ha":1183,"x_min":28,"x_max":1140,"o":"m 168 440 l 168 643 q 165 938 168 892 q 106 1017 161 1004 q 51 1021 86 1021 q 28 1033 28 1021 q 58 1046 28 1046 q 172 1044 99 1046 q 261 1042 244 1042 q 341 1044 276 1042 q 432 1046 406 1046 q 463 1033 463 1046 q 440 1021 463 1021 q 400 1017 424 1021 q 349 938 353 1008 q 346 643 346 892 l 346 449 q 454 107 346 196 q 628 50 524 50 q 819 125 744 50 q 889 272 871 176 q 900 469 900 336 l 900 643 q 897 938 900 892 q 838 1017 893 1004 q 788 1021 818 1021 q 764 1033 764 1021 q 793 1046 764 1046 q 953 1042 854 1046 q 1018 1044 957 1042 q 1111 1046 1079 1046 q 1140 1033 1140 1046 q 1115 1021 1140 1021 q 1075 1017 1099 1021 q 1024 938 1028 1008 q 1021 643 1021 892 l 1021 494 q 999 265 1021 353 q 889 76 968 144 q 600 -24 772 -24 q 292 72 397 -24 q 168 440 168 183 z "},"V":{"ha":1006,"x_min":-76,"x_max":1085,"o":"m 450 61 l 100 910 q 54 986 78 964 q -6 1015 35 1004 q -60 1021 -26 1021 q -76 1033 -76 1021 q -40 1046 -76 1046 q 70 1044 0 1046 q 161 1042 140 1042 q 233 1044 174 1042 q 332 1046 293 1046 q 364 1033 364 1046 q 343 1021 364 1021 q 289 1011 303 1021 q 275 982 275 1001 q 307 875 275 960 l 546 244 l 551 244 q 825 936 671 544 q 838 988 838 971 q 818 1015 838 1008 q 764 1021 799 1021 q 740 1032 740 1021 q 779 1046 740 1046 q 872 1044 821 1046 q 925 1042 922 1042 q 983 1044 935 1042 q 1056 1046 1032 1046 q 1085 1033 1085 1046 q 1063 1021 1085 1021 q 994 1004 1019 1021 q 917 879 961 982 q 751 503 872 776 l 567 79 q 529 -3 536 11 q 503 -24 517 -24 q 479 -6 490 -24 q 450 61 472 7 z "},"W":{"ha":1507,"x_min":-25,"x_max":1550,"o":"m 399 28 l 104 910 q 53 1008 76 992 q -3 1021 35 1021 q -25 1033 -25 1021 q 6 1046 -25 1046 q 108 1044 49 1046 q 167 1042 168 1042 q 218 1044 164 1042 q 321 1046 272 1046 q 350 1033 350 1046 q 326 1021 350 1022 q 290 1015 297 1019 q 275 985 275 1008 q 306 857 275 974 q 483 267 357 658 l 488 267 l 757 990 q 792 1040 775 1040 q 832 975 806 1040 l 1121 276 l 1125 276 q 1310 899 1142 339 q 1324 979 1324 944 q 1257 1021 1324 1021 q 1233 1033 1233 1021 q 1265 1046 1233 1046 q 1360 1044 1310 1046 q 1410 1042 1411 1042 q 1453 1044 1410 1042 q 1525 1046 1497 1046 q 1550 1035 1550 1046 q 1531 1021 1550 1021 q 1482 1014 1500 1021 q 1442 965 1460 1006 q 1404 867 1436 953 q 1126 42 1315 622 q 1086 -24 1106 -24 q 1043 44 1071 -24 l 754 740 l 751 740 q 481 50 549 196 q 431 -24 446 -24 q 399 28 415 -24 z "},"X":{"ha":989,"x_min":-29,"x_max":1028,"o":"m 800 904 l 572 576 q 876 88 707 354 q 957 29 911 43 q 1010 21 985 21 q 1028 10 1028 21 q 1001 -4 1028 -4 l 960 -4 q 710 -1 806 -4 q 663 13 663 0 q 681 28 663 24 q 685 60 700 32 q 465 438 560 283 l 260 106 q 240 47 238 71 q 279 22 243 25 q 315 8 315 19 q 288 -4 315 -4 l 263 -4 q 207 -2 261 -4 q 132 0 153 0 q 72 -2 118 0 q 15 -4 26 -4 l -8 -4 q -29 8 -29 -4 q -10 21 -29 21 q 42 28 17 21 q 156 132 92 42 l 421 511 l 182 907 q 67 1011 132 990 q 8 1021 36 1021 q -6 1035 -6 1021 q 22 1046 -6 1046 q 116 1044 35 1046 q 233 1042 197 1042 q 296 1044 239 1042 q 382 1046 353 1046 q 410 1033 410 1046 q 388 1021 410 1021 q 351 1015 367 1021 q 335 993 335 1010 q 349 953 335 979 q 525 646 410 847 q 714 939 608 774 q 729 992 729 967 q 706 1017 729 1010 q 669 1019 688 1018 q 644 1033 644 1022 q 674 1046 644 1046 q 753 1044 704 1046 q 813 1042 803 1042 q 872 1044 824 1042 q 949 1046 919 1046 q 974 1033 974 1046 q 943 1018 974 1024 q 901 1013 922 1015 q 800 904 869 1004 z "},"Y":{"ha":931,"x_min":-68,"x_max":1007,"o":"m 383 242 l 383 356 q 351 501 383 429 q 242 683 343 518 q 107 901 142 849 q 11 1003 56 978 q -47 1021 -21 1021 q -68 1033 -68 1021 q -42 1046 -68 1046 q 38 1044 -32 1046 q 133 1042 108 1042 q 196 1044 144 1042 q 282 1046 247 1046 q 303 1033 303 1046 q 272 1018 303 1026 q 253 993 253 1014 q 269 946 253 981 q 506 531 275 933 q 714 913 600 700 q 733 985 733 956 q 706 1019 733 1013 q 679 1033 679 1025 q 703 1046 679 1046 q 770 1044 726 1046 q 833 1042 814 1042 q 909 1044 849 1042 q 982 1046 969 1046 q 1007 1035 1007 1046 q 980 1021 1007 1021 q 920 1004 953 1021 q 844 936 888 988 q 705 718 811 896 q 579 494 599 540 q 558 356 558 444 l 558 242 q 565 83 558 119 q 619 26 574 32 q 689 21 660 21 q 711 10 711 21 q 682 -4 711 -4 q 557 -2 632 -4 q 469 0 482 0 q 389 -2 454 0 q 296 -4 324 -4 q 265 10 265 -4 q 296 22 265 18 q 336 26 315 25 q 379 103 375 35 q 383 242 383 163 z "},"Z":{"ha":986,"x_min":82,"x_max":921,"o":"m 308 76 l 650 76 q 868 153 826 76 q 893 219 886 186 q 907 242 897 242 q 921 199 921 242 q 893 29 921 129 q 851 -7 883 -7 q 497 -3 742 -7 q 106 0 251 0 q 82 14 82 0 q 103 56 82 24 l 690 968 l 418 968 q 218 939 271 968 q 165 886 182 919 q 140 818 158 874 q 126 806 136 806 q 115 829 115 806 q 143 1029 115 854 q 160 1056 147 1056 q 180 1051 164 1056 q 215 1046 196 1047 q 471 1042 315 1042 l 894 1042 q 918 1031 918 1042 q 907 1004 918 1022 q 308 76 760 765 z "},"[":{"ha":500,"x_min":140,"x_max":444,"o":"m 261 924 l 261 82 q 271 -47 261 -7 q 419 -76 310 -65 q 443 -90 443 -79 q 426 -103 443 -103 l 163 -103 q 144 -99 147 -103 q 140 -81 140 -96 l 140 1085 q 163 1103 140 1103 l 428 1103 q 444 1090 444 1103 q 421 1076 444 1079 q 346 1068 371 1072 q 271 1047 299 1060 q 261 924 261 1007 z "},"]":{"ha":500,"x_min":56,"x_max":360,"o":"m 239 76 l 239 918 q 229 1047 239 1007 q 81 1076 190 1065 q 57 1090 57 1079 q 74 1103 57 1103 l 338 1103 q 356 1099 353 1103 q 360 1081 360 1096 l 360 -85 q 338 -103 360 -103 l 72 -103 q 56 -90 56 -103 q 79 -76 56 -79 q 154 -68 129 -72 q 229 -47 201 -60 q 239 76 239 -7 z "},"_":{"ha":694,"x_min":0,"x_max":694,"o":"m 0 -104 l 694 -104 l 694 -174 l 0 -174 l 0 -104 z "},"`":{"ha":1288,"x_min":403,"x_max":746,"o":"m 746 1163 q 731 1153 746 1153 q 449 1268 708 1153 q 403 1303 403 1289 q 421 1315 403 1310 q 514 1350 469 1329 q 540 1360 535 1360 q 563 1329 540 1360 q 717 1188 608 1267 q 746 1163 746 1167 z "},"a":{"ha":972,"x_min":-89,"x_max":1054,"o":"m 593 358 l 283 358 q 271 347 275 358 l 196 149 q 175 64 175 93 q 231 21 175 21 l 251 21 q 272 10 272 21 q 249 -4 272 -4 q 174 -2 226 -4 q 101 0 122 0 q 41 -2 101 0 q -62 -4 -19 -4 q -89 10 -89 -4 q -72 21 -89 21 q -29 24 -50 21 q 43 63 15 29 q 89 149 65 89 l 438 1021 q 476 1076 460 1076 q 511 1032 492 1076 q 856 178 639 710 q 978 26 914 40 q 1036 21 1003 21 q 1054 10 1054 21 q 1040 -1 1054 1 q 990 -4 1026 -4 q 728 -1 818 -4 q 686 10 686 0 q 706 22 686 21 q 718 54 728 29 l 607 349 q 593 358 603 358 m 311 428 l 567 428 q 574 436 576 428 l 449 779 q 442 792 446 792 q 433 779 436 792 l 306 438 q 311 428 303 428 z "},"b":{"ha":982,"x_min":88,"x_max":883,"o":"m 228 399 l 228 643 q 225 938 228 892 q 165 1017 221 1004 q 111 1021 146 1021 q 88 1033 88 1021 q 118 1046 88 1046 q 230 1044 161 1046 q 307 1042 299 1042 q 399 1044 343 1042 q 476 1046 456 1046 q 718 969 643 1046 q 772 838 772 915 q 631 594 772 708 q 800 490 732 560 q 883 294 883 406 q 794 88 883 172 q 513 -8 692 -8 q 415 -4 497 -8 q 311 0 333 0 q 233 -2 299 0 q 136 -4 167 -4 q 108 10 108 -4 q 139 22 108 19 q 181 26 160 25 q 221 103 213 33 q 228 399 228 157 m 394 963 l 394 619 q 404 604 394 607 q 469 600 422 600 q 569 626 538 600 q 626 774 626 674 q 585 917 626 854 q 453 989 535 989 q 400 983 406 989 q 394 963 394 978 m 713 232 q 578 508 713 414 q 463 542 536 538 q 403 543 436 543 q 394 533 394 543 l 394 204 q 403 110 394 132 q 443 71 411 83 q 544 54 483 54 q 651 89 607 54 q 713 232 713 136 z "},"c":{"ha":1111,"x_min":76,"x_max":1042,"o":"m 725 -24 q 249 127 422 -24 q 76 538 76 278 q 238 917 76 769 q 678 1065 400 1065 q 879 1051 774 1065 q 1018 1028 928 1042 q 1039 1011 1039 1026 q 1036 988 1039 1007 q 1032 935 1033 963 q 1028 785 1031 874 q 1011 753 1025 753 q 997 783 997 753 q 943 911 996 856 q 833 972 907 949 q 661 997 754 997 q 400 911 494 997 q 272 551 272 794 q 421 181 272 322 q 710 57 550 57 q 847 68 799 57 q 964 135 921 85 q 1011 226 1001 176 q 1029 254 1017 254 q 1042 233 1042 254 q 1032 153 1042 218 q 1012 50 1021 81 q 975 8 1003 19 q 725 -24 896 -24 z "},"d":{"ha":1300,"x_min":88,"x_max":1224,"o":"m 228 399 l 228 643 q 225 938 228 892 q 165 1017 221 1004 q 111 1021 146 1021 q 88 1033 88 1021 q 118 1046 88 1046 q 231 1044 160 1046 q 318 1042 303 1042 q 410 1044 335 1042 q 532 1046 485 1046 q 818 1026 719 1046 q 1089 888 989 992 q 1224 535 1224 747 q 1072 147 1224 301 q 607 -17 911 -17 q 447 -8 553 -17 q 311 0 342 0 q 233 -2 299 0 q 136 -4 167 -4 q 108 10 108 -4 q 139 22 108 19 q 181 26 160 25 q 221 103 213 33 q 228 399 228 157 m 401 665 l 401 490 q 404 210 401 271 q 419 104 408 121 q 601 49 458 49 q 922 149 806 49 q 1038 494 1038 249 q 904 842 1038 714 q 510 981 758 981 q 422 972 440 981 q 403 943 403 964 q 401 665 401 881 z "},"e":{"ha":878,"x_min":88,"x_max":789,"o":"m 228 399 l 228 643 q 225 938 228 892 q 165 1017 221 1004 q 111 1021 146 1021 q 88 1033 88 1021 q 118 1046 88 1046 q 231 1044 160 1046 q 318 1042 303 1042 q 665 1043 647 1042 q 725 1051 701 1046 q 747 1057 749 1057 q 756 1044 756 1057 q 751 1019 756 1043 q 745 954 747 992 q 738 863 743 917 q 724 847 735 847 q 712 863 714 847 q 708 892 710 878 q 703 917 707 906 q 610 967 686 957 q 413 972 563 972 q 403 958 403 972 l 403 607 q 413 592 403 592 q 635 594 603 592 q 671 599 658 596 q 701 615 692 604 q 724 633 718 633 q 733 622 733 633 q 729 594 733 621 q 722 521 725 563 q 717 428 717 442 q 704 401 717 401 q 692 416 692 401 q 686 464 692 431 q 608 518 675 511 q 411 522 569 522 q 403 508 403 522 l 403 183 q 435 88 406 110 q 569 67 465 67 q 700 83 664 67 q 763 186 749 106 q 778 207 767 207 q 789 182 789 207 q 771 28 789 97 q 751 -3 764 3 q 696 -8 739 -8 q 456 -4 575 -8 q 311 0 336 0 q 233 -2 299 0 q 136 -4 167 -4 q 108 10 108 -4 q 139 22 108 19 q 181 26 160 25 q 221 103 213 33 q 228 399 228 157 z "},"f":{"ha":864,"x_min":88,"x_max":775,"o":"m 403 511 l 403 399 q 410 103 403 164 q 464 26 418 33 q 533 21 504 21 q 557 10 557 21 q 526 -4 557 -4 q 401 -2 476 -4 q 315 0 326 0 q 234 -2 300 0 q 139 -4 168 -4 q 110 10 110 -4 q 140 22 110 19 q 181 26 160 25 q 221 103 213 33 q 228 399 228 157 l 228 643 q 225 938 228 892 q 165 1017 221 1004 q 111 1021 146 1021 q 88 1032 88 1021 q 119 1046 88 1046 q 231 1044 160 1046 q 319 1042 303 1042 q 686 1043 657 1042 q 743 1049 708 1043 q 765 1057 769 1057 q 775 1044 775 1057 q 771 1024 775 1040 q 764 982 767 1003 q 757 869 761 935 q 743 850 754 850 q 729 872 731 850 q 721 925 729 907 q 629 967 703 965 l 415 971 q 403 951 403 971 l 403 604 q 413 592 403 592 l 590 593 q 656 594 649 593 q 713 619 696 599 q 731 633 724 633 q 739 621 739 633 q 735 590 739 618 q 728 535 731 558 q 722 433 722 478 q 708 407 722 407 q 696 433 700 407 q 689 469 692 451 q 618 519 674 513 q 413 524 585 524 q 403 511 403 524 z "},"g":{"ha":1231,"x_min":76,"x_max":1181,"o":"m 1071 242 l 1071 89 q 1053 39 1071 49 q 718 -24 935 -24 q 269 106 442 -24 q 76 521 76 250 q 150 803 76 678 q 318 975 214 913 q 692 1065 468 1065 q 938 1043 824 1065 q 1047 1028 1003 1031 q 1067 1011 1067 1026 q 1062 957 1067 1024 q 1057 783 1057 890 q 1042 754 1057 754 q 1028 772 1031 754 q 981 888 1018 847 q 869 958 943 928 q 671 996 778 996 q 396 910 499 996 q 268 569 268 803 q 401 194 268 342 q 751 47 535 47 q 886 76 867 47 q 896 114 896 89 l 896 244 q 894 408 896 364 q 835 488 893 475 q 781 492 815 492 q 760 503 760 492 q 789 517 760 517 q 901 515 829 517 q 990 513 974 513 q 1070 515 1011 513 q 1153 517 1129 517 q 1181 503 1181 517 q 1165 492 1181 492 q 1125 488 1149 492 q 1072 408 1075 478 q 1071 242 1071 364 z "},"h":{"ha":1350,"x_min":88,"x_max":1276,"o":"m 410 604 l 940 604 q 949 614 949 604 l 949 643 q 946 938 949 892 q 886 1017 942 1004 q 832 1021 867 1021 q 808 1033 808 1021 q 838 1046 808 1046 q 951 1044 879 1046 q 1038 1042 1024 1042 q 1117 1044 1051 1042 q 1213 1046 1183 1046 q 1242 1033 1242 1046 q 1217 1021 1242 1021 q 1176 1017 1200 1021 q 1125 938 1129 1008 q 1122 643 1122 892 l 1122 399 q 1129 101 1122 163 q 1183 26 1138 33 q 1254 21 1224 21 q 1276 10 1276 21 q 1249 -4 1276 -4 q 1121 -2 1197 -4 q 1032 0 1044 0 q 954 -2 1019 0 q 858 -4 889 -4 q 829 10 829 -4 q 860 22 829 19 q 901 26 881 25 q 942 103 933 33 q 949 399 949 157 l 949 521 q 940 529 949 529 l 410 529 q 401 521 401 529 l 401 399 q 408 101 401 163 q 463 26 417 33 q 533 21 503 21 q 556 10 556 21 q 528 -4 556 -4 q 400 -2 476 -4 q 311 0 324 0 q 233 -2 299 0 q 136 -4 167 -4 q 108 10 108 -4 q 139 22 108 19 q 181 26 160 25 q 221 103 213 33 q 228 399 228 157 l 228 643 q 225 938 228 892 q 165 1017 221 1004 q 111 1021 146 1021 q 88 1033 88 1021 q 117 1046 88 1046 q 231 1044 158 1046 q 317 1042 303 1042 q 397 1044 331 1042 q 492 1046 463 1046 q 521 1033 521 1046 q 496 1021 521 1021 q 456 1017 479 1021 q 404 938 408 1008 q 401 643 401 892 l 401 614 q 410 604 401 604 z "},"i":{"ha":628,"x_min":106,"x_max":554,"o":"m 228 399 l 228 643 q 225 938 228 892 q 178 1015 221 1004 q 130 1021 154 1021 q 106 1035 106 1021 q 139 1046 106 1046 q 234 1044 167 1046 q 319 1042 301 1042 q 397 1044 335 1042 q 489 1046 460 1046 q 518 1035 518 1046 q 498 1021 518 1021 q 454 1017 478 1021 q 403 938 407 1008 q 400 643 400 892 l 400 399 q 406 94 400 150 q 461 26 411 33 q 532 21 501 21 q 554 10 554 21 q 528 -4 554 -4 q 399 -2 475 -4 q 311 0 324 0 q 233 -2 299 0 q 136 -4 167 -4 q 108 10 108 -4 q 139 22 108 19 q 181 26 160 25 q 221 95 214 33 q 228 399 228 157 z "},"j":{"ha":578,"x_min":26,"x_max":519,"o":"m 228 244 l 228 643 q 225 938 228 892 q 165 1017 221 1004 q 111 1021 146 1021 q 88 1033 88 1021 q 118 1046 88 1046 q 231 1044 160 1046 q 315 1042 301 1042 q 395 1044 329 1042 q 490 1046 461 1046 q 519 1033 519 1046 q 494 1021 519 1021 q 454 1017 478 1021 q 403 938 407 1008 q 400 643 400 892 l 400 386 q 402 292 400 357 q 404 190 404 226 q 371 -56 404 39 q 135 -318 318 -206 q 65 -354 122 -325 q 38 -362 49 -362 q 26 -351 26 -362 q 57 -326 26 -343 q 124 -274 88 -310 q 215 -76 196 -200 q 228 244 228 3 z "},"k":{"ha":1067,"x_min":88,"x_max":1206,"o":"m 397 643 l 397 582 l 404 582 q 694 888 529 711 q 764 992 764 969 q 745 1019 764 1015 q 726 1033 726 1024 q 749 1046 726 1046 q 817 1044 763 1046 q 892 1042 872 1042 q 974 1044 914 1042 q 1054 1046 1033 1046 q 1078 1033 1078 1046 q 1057 1021 1078 1021 q 976 1006 1017 1021 q 826 901 906 979 q 526 601 621 701 q 713 392 561 556 q 903 192 858 233 q 997 106 969 128 q 1103 41 1051 61 q 1188 21 1154 21 q 1206 10 1206 21 q 1172 -4 1206 -4 l 1051 -4 q 956 -1 985 -4 q 864 26 904 3 q 783 89 835 43 q 589 301 742 125 q 419 504 447 465 l 404 525 l 397 525 l 397 399 q 401 101 397 161 q 451 26 406 33 q 519 21 488 21 q 538 10 538 21 q 511 -4 538 -4 q 395 -2 467 -4 q 311 0 324 0 q 233 -2 299 0 q 136 -4 167 -4 q 108 10 108 -4 q 139 22 108 19 q 181 26 160 25 q 221 103 213 33 q 228 399 228 157 l 228 643 q 225 938 228 892 q 165 1017 221 1004 q 111 1021 146 1021 q 88 1033 88 1021 q 118 1046 88 1046 q 231 1044 160 1046 q 313 1042 301 1042 q 392 1044 328 1042 q 481 1046 456 1046 q 510 1033 510 1046 q 490 1021 510 1021 q 422 1004 442 1021 q 400 940 403 988 q 397 643 397 892 z "},"l":{"ha":840,"x_min":96,"x_max":824,"o":"m 401 643 l 401 399 q 406 192 401 242 q 431 100 411 117 q 599 69 465 69 q 761 108 725 69 q 797 192 792 142 q 813 213 800 213 q 824 189 824 213 q 803 29 824 106 q 769 -6 794 0 q 715 -8 760 -8 q 481 -4 604 -8 q 311 0 357 0 q 233 -2 299 0 q 136 -4 167 -4 q 108 10 108 -4 q 139 22 108 19 q 181 26 160 25 q 221 103 213 33 q 228 399 228 157 l 228 643 q 225 938 228 892 q 194 1007 222 989 q 119 1021 172 1021 q 96 1033 96 1021 q 126 1046 96 1046 q 232 1044 163 1046 q 317 1042 301 1042 q 403 1044 331 1042 q 506 1046 476 1046 q 535 1033 535 1046 q 510 1021 535 1021 q 456 1017 479 1021 q 404 938 408 1008 q 401 643 401 892 z "},"m":{"ha":1449,"x_min":21,"x_max":1456,"o":"m 142 135 l 279 1040 q 303 1076 285 1076 q 340 1033 319 1076 l 719 250 l 1097 1043 q 1128 1076 1113 1076 q 1153 1033 1146 1076 l 1279 175 q 1303 75 1289 106 q 1347 35 1317 44 q 1433 21 1393 21 q 1456 11 1456 21 q 1419 -4 1456 -4 q 1138 4 1243 -4 q 1097 19 1097 7 q 1112 35 1097 29 q 1119 94 1126 40 l 1036 706 l 1031 706 l 728 75 q 676 -3 690 -3 q 628 67 664 -3 q 468 382 496 318 q 324 690 421 485 l 318 690 l 246 138 q 242 72 242 106 q 283 28 242 38 q 342 21 314 21 q 363 11 363 21 q 329 -4 363 -4 q 244 -2 296 -4 q 183 0 192 0 q 122 -2 172 0 q 46 -4 71 -4 q 21 11 21 -4 q 43 21 21 21 q 85 25 65 21 q 142 135 126 33 z "},"n":{"ha":1315,"x_min":65,"x_max":1233,"o":"m 290 768 l 306 185 q 354 31 310 46 q 408 24 358 29 q 450 10 450 18 q 418 -4 450 -4 q 308 -2 365 -4 q 246 0 251 0 q 193 -2 247 0 q 96 -4 139 -4 q 65 10 65 -4 q 101 22 65 19 q 150 28 126 25 q 185 72 176 36 q 193 200 192 104 l 206 1022 q 224 1069 207 1069 q 275 1026 235 1069 q 706 581 389 904 q 1011 264 847 433 l 1018 264 l 1004 888 q 999 958 1003 939 q 957 1013 988 1000 q 883 1021 936 1021 q 861 1033 861 1021 q 897 1046 861 1046 q 997 1044 939 1046 q 1065 1042 1056 1042 q 1114 1044 1067 1042 q 1201 1046 1161 1046 q 1233 1033 1233 1046 q 1208 1021 1233 1021 q 1124 975 1139 1021 q 1115 899 1117 950 l 1100 22 q 1082 -21 1099 -21 q 1035 10 1067 -21 q 625 418 901 142 q 413 639 531 511 q 294 768 353 704 l 290 768 z "},"o":{"ha":1288,"x_min":76,"x_max":1211,"o":"m 636 -24 q 207 157 361 -24 q 76 521 76 308 q 207 882 76 731 q 650 1065 364 1065 q 1060 925 908 1065 q 1211 546 1211 785 q 1056 142 1211 301 q 636 -24 896 -24 m 694 46 q 892 119 811 46 q 1017 494 1017 232 q 899 864 1017 722 q 610 999 785 999 q 379 911 467 999 q 268 564 268 800 q 382 197 268 340 q 694 46 500 46 z "},"p":{"ha":910,"x_min":88,"x_max":847,"o":"m 228 399 l 228 643 q 225 938 228 892 q 165 1017 221 1004 q 111 1021 146 1021 q 88 1033 88 1021 q 118 1046 88 1046 q 231 1044 160 1046 q 318 1042 303 1042 q 416 1044 346 1042 q 519 1046 486 1046 q 778 967 694 1046 q 847 801 847 901 q 751 560 847 654 q 506 465 654 465 q 476 467 483 465 q 460 479 460 469 q 499 494 460 494 q 621 556 564 494 q 685 724 685 625 q 603 932 685 858 q 464 986 543 986 q 412 981 425 986 q 399 954 399 976 l 399 399 q 406 101 399 163 q 460 26 414 33 q 531 21 500 21 q 553 10 553 21 q 526 -4 553 -4 q 398 -2 474 -4 q 311 0 322 0 q 233 -2 299 0 q 136 -4 167 -4 q 108 10 108 -4 q 139 22 108 19 q 181 26 160 25 q 221 103 213 33 q 228 399 228 157 z "},"q":{"ha":1292,"x_min":76,"x_max":2122,"o":"m 1078 -115 l 860 13 q 642 -24 764 -24 q 207 158 361 -24 q 76 528 76 311 q 208 882 76 728 q 646 1065 367 1065 q 1053 923 897 1065 q 1208 539 1208 781 q 1121 240 1208 376 q 967 82 1056 142 l 1246 -61 q 1818 -226 1568 -226 q 2089 -178 1963 -226 q 2110 -171 2107 -171 q 2122 -183 2122 -171 q 2106 -200 2122 -192 q 1665 -304 1888 -304 q 1379 -260 1513 -304 q 1078 -115 1256 -219 m 693 46 q 896 121 817 46 q 1014 501 1014 233 q 886 876 1014 738 q 614 999 772 999 q 374 900 464 999 q 269 560 269 786 q 397 179 269 322 q 693 46 517 46 z "},"r":{"ha":1049,"x_min":88,"x_max":1183,"o":"m 228 399 l 228 643 q 225 938 228 892 q 165 1017 221 1004 q 111 1021 146 1021 q 88 1033 88 1021 q 118 1046 88 1046 q 231 1044 161 1046 q 308 1042 300 1042 q 408 1044 332 1042 q 504 1046 483 1046 q 760 986 672 1046 q 821 915 794 963 q 854 796 854 860 q 671 485 854 633 q 838 276 822 293 q 972 119 918 175 q 1128 25 1049 40 q 1160 22 1144 24 q 1183 10 1183 19 q 1157 -4 1183 -4 l 1025 -4 q 876 22 925 -4 q 686 226 808 58 q 549 418 626 311 q 524 428 540 428 l 403 431 q 392 419 392 431 l 392 400 q 399 103 392 164 q 453 26 407 32 q 521 21 494 21 q 538 10 538 21 q 510 -4 538 -4 q 385 -2 463 -4 q 306 0 308 0 q 232 -2 296 0 q 136 -4 168 -4 q 108 10 108 -4 q 139 22 108 19 q 181 26 160 25 q 221 103 213 33 q 228 399 228 157 m 392 956 l 392 533 q 404 508 392 513 q 510 494 443 494 q 608 518 576 494 q 690 726 690 578 q 615 928 690 858 q 478 981 556 981 q 399 972 411 981 q 392 956 392 968 z "},"s":{"ha":808,"x_min":125,"x_max":706,"o":"m 354 -24 q 151 13 233 -24 q 125 60 125 24 q 132 242 125 135 q 149 278 135 278 q 163 254 163 278 q 175 183 163 225 q 374 43 217 43 q 514 94 461 43 q 560 201 560 140 q 424 424 560 317 l 360 474 q 154 803 154 635 q 243 992 154 918 q 475 1065 332 1065 q 660 1042 565 1065 q 679 1025 679 1036 q 676 976 679 1028 q 674 858 674 924 q 658 817 674 817 q 644 842 644 817 q 608 933 644 888 q 457 1001 554 1001 q 336 962 381 1001 q 292 858 292 922 q 323 766 292 810 q 439 658 354 722 l 478 629 q 654 455 603 535 q 706 275 706 375 q 575 33 706 118 q 354 -24 488 -24 z "},"t":{"ha":986,"x_min":19,"x_max":958,"o":"m 413 399 l 413 968 l 206 963 q 71 922 96 960 q 47 874 53 896 q 32 857 43 857 q 19 879 19 857 q 49 1039 19 917 q 65 1065 56 1065 q 88 1058 69 1065 q 125 1049 106 1050 q 264 1042 200 1042 l 814 1042 q 882 1049 838 1042 q 947 1056 926 1056 q 958 1026 958 1056 q 956 949 958 1013 q 953 864 954 885 q 942 843 951 843 q 926 871 929 843 l 925 886 q 761 964 918 960 l 586 968 l 586 399 q 593 101 586 163 q 647 26 601 33 q 718 21 688 21 q 740 10 740 21 q 714 -4 740 -4 q 585 -2 661 -4 q 496 0 508 0 q 417 -2 483 0 q 321 -4 351 -4 q 293 10 293 -4 q 324 22 293 19 q 365 26 344 25 q 406 103 397 33 q 413 399 413 164 z "},"u":{"ha":1183,"x_min":28,"x_max":1140,"o":"m 168 440 l 168 643 q 165 938 168 892 q 106 1017 161 1004 q 51 1021 86 1021 q 28 1033 28 1021 q 58 1046 28 1046 q 172 1044 99 1046 q 261 1042 244 1042 q 341 1044 276 1042 q 432 1046 406 1046 q 463 1033 463 1046 q 440 1021 463 1021 q 400 1017 424 1021 q 349 938 353 1008 q 346 643 346 892 l 346 449 q 454 107 346 196 q 628 50 524 50 q 819 125 744 50 q 889 272 871 176 q 900 469 900 336 l 900 643 q 897 938 900 892 q 838 1017 893 1004 q 788 1021 818 1021 q 764 1033 764 1021 q 793 1046 764 1046 q 953 1042 854 1046 q 1018 1044 957 1042 q 1111 1046 1079 1046 q 1140 1033 1140 1046 q 1115 1021 1140 1021 q 1075 1017 1099 1021 q 1024 938 1028 1008 q 1021 643 1021 892 l 1021 494 q 999 265 1021 353 q 889 76 968 144 q 600 -24 772 -24 q 292 72 397 -24 q 168 440 168 183 z "},"v":{"ha":1006,"x_min":-76,"x_max":1085,"o":"m 450 61 l 100 910 q 54 986 78 964 q -6 1015 35 1004 q -60 1021 -26 1021 q -76 1033 -76 1021 q -40 1046 -76 1046 q 70 1044 0 1046 q 161 1042 140 1042 q 233 1044 174 1042 q 332 1046 293 1046 q 364 1033 364 1046 q 343 1021 364 1021 q 289 1011 303 1021 q 275 982 275 1001 q 307 875 275 960 l 546 244 l 551 244 q 825 936 671 544 q 838 988 838 971 q 818 1015 838 1008 q 764 1021 799 1021 q 740 1032 740 1021 q 779 1046 740 1046 q 872 1044 821 1046 q 925 1042 922 1042 q 983 1044 935 1042 q 1056 1046 1032 1046 q 1085 1033 1085 1046 q 1063 1021 1085 1021 q 994 1004 1019 1021 q 917 879 961 982 q 751 503 872 776 l 567 79 q 529 -3 536 11 q 503 -24 517 -24 q 479 -6 490 -24 q 450 61 472 7 z "},"w":{"ha":1507,"x_min":-25,"x_max":1550,"o":"m 399 28 l 104 910 q 53 1008 76 992 q -3 1021 35 1021 q -25 1033 -25 1021 q 6 1046 -25 1046 q 108 1044 49 1046 q 167 1042 168 1042 q 218 1044 164 1042 q 321 1046 272 1046 q 350 1033 350 1046 q 326 1021 350 1022 q 290 1015 297 1019 q 275 985 275 1008 q 306 857 275 974 q 483 267 357 658 l 488 267 l 757 990 q 792 1040 775 1040 q 832 975 806 1040 l 1121 276 l 1125 276 q 1310 899 1142 339 q 1324 979 1324 944 q 1257 1021 1324 1021 q 1233 1033 1233 1021 q 1265 1046 1233 1046 q 1360 1044 1310 1046 q 1410 1042 1411 1042 q 1453 1044 1410 1042 q 1525 1046 1497 1046 q 1550 1035 1550 1046 q 1531 1021 1550 1021 q 1482 1014 1500 1021 q 1442 965 1460 1006 q 1404 867 1436 953 q 1126 42 1315 622 q 1086 -24 1106 -24 q 1043 44 1071 -24 l 754 740 l 751 740 q 481 50 549 196 q 431 -24 446 -24 q 399 28 415 -24 z "},"x":{"ha":989,"x_min":-29,"x_max":1028,"o":"m 800 904 l 572 576 q 876 88 707 354 q 957 29 911 43 q 1010 21 985 21 q 1028 10 1028 21 q 1001 -4 1028 -4 l 960 -4 q 710 -1 806 -4 q 663 13 663 0 q 681 28 663 24 q 685 60 700 32 q 465 438 560 283 l 260 106 q 240 47 238 71 q 279 22 243 25 q 315 8 315 19 q 288 -4 315 -4 l 263 -4 q 207 -2 261 -4 q 132 0 153 0 q 72 -2 118 0 q 15 -4 26 -4 l -8 -4 q -29 8 -29 -4 q -10 21 -29 21 q 42 28 17 21 q 156 132 92 42 l 421 511 l 182 907 q 67 1011 132 990 q 8 1021 36 1021 q -6 1035 -6 1021 q 22 1046 -6 1046 q 116 1044 35 1046 q 233 1042 197 1042 q 296 1044 239 1042 q 382 1046 353 1046 q 410 1033 410 1046 q 388 1021 410 1021 q 351 1015 367 1021 q 335 993 335 1010 q 349 953 335 979 q 525 646 410 847 q 714 939 608 774 q 729 992 729 967 q 706 1017 729 1010 q 669 1019 688 1018 q 644 1033 644 1022 q 674 1046 644 1046 q 753 1044 704 1046 q 813 1042 803 1042 q 872 1044 824 1042 q 949 1046 919 1046 q 974 1033 974 1046 q 943 1018 974 1024 q 901 1013 922 1015 q 800 904 869 1004 z "},"y":{"ha":931,"x_min":-68,"x_max":1007,"o":"m 383 242 l 383 356 q 351 501 383 429 q 242 683 343 518 q 107 901 142 849 q 11 1003 56 978 q -47 1021 -21 1021 q -68 1033 -68 1021 q -42 1046 -68 1046 q 38 1044 -32 1046 q 133 1042 108 1042 q 196 1044 144 1042 q 282 1046 247 1046 q 303 1033 303 1046 q 272 1018 303 1026 q 253 993 253 1014 q 269 946 253 981 q 506 531 275 933 q 714 913 600 700 q 733 985 733 956 q 706 1019 733 1013 q 679 1033 679 1025 q 703 1046 679 1046 q 770 1044 726 1046 q 833 1042 814 1042 q 909 1044 849 1042 q 982 1046 969 1046 q 1007 1035 1007 1046 q 980 1021 1007 1021 q 920 1004 953 1021 q 844 936 888 988 q 705 718 811 896 q 579 494 599 540 q 558 356 558 444 l 558 242 q 565 83 558 119 q 619 26 574 32 q 689 21 660 21 q 711 10 711 21 q 682 -4 711 -4 q 557 -2 632 -4 q 469 0 482 0 q 389 -2 454 0 q 296 -4 324 -4 q 265 10 265 -4 q 296 22 265 18 q 336 26 315 25 q 379 103 375 35 q 383 242 383 163 z "},"z":{"ha":986,"x_min":82,"x_max":921,"o":"m 308 76 l 650 76 q 868 153 826 76 q 893 219 886 186 q 907 242 897 242 q 921 199 921 242 q 893 29 921 129 q 851 -7 883 -7 q 497 -3 742 -7 q 106 0 251 0 q 82 14 82 0 q 103 56 82 24 l 690 968 l 418 968 q 218 939 271 968 q 165 886 182 919 q 140 818 158 874 q 126 806 136 806 q 115 829 115 806 q 143 1029 115 854 q 160 1056 147 1056 q 180 1051 164 1056 q 215 1046 196 1047 q 471 1042 315 1042 l 894 1042 q 918 1031 918 1042 q 907 1004 918 1022 q 308 76 760 765 z "},"{":{"ha":500,"x_min":67,"x_max":438,"o":"m 300 236 q 404 -75 300 -50 q 438 -93 438 -83 q 388 -103 438 -103 q 238 -8 307 -103 q 168 307 168 88 q 174 386 168 331 q 179 456 179 442 q 169 497 179 482 q 86 532 153 522 q 67 546 67 535 q 86 561 67 560 q 143 568 131 564 q 179 610 172 579 q 182 650 182 625 q 175 732 182 678 q 168 801 168 786 q 193 958 168 899 q 257 1046 213 1006 q 408 1103 319 1103 q 436 1093 436 1103 q 411 1081 436 1085 q 343 1038 375 1075 q 300 910 300 988 q 289 660 300 701 q 249 594 279 625 q 189 554 218 563 l 189 553 q 286 444 264 525 q 300 236 300 394 z "},"}":{"ha":500,"x_min":63,"x_max":433,"o":"m 200 236 q 214 444 200 394 q 311 553 236 525 l 311 554 q 251 594 282 563 q 211 660 221 625 q 200 910 200 701 q 157 1038 200 988 q 89 1081 125 1075 q 64 1093 64 1085 q 92 1103 64 1103 q 243 1046 181 1103 q 332 801 332 965 q 325 732 332 786 q 318 650 318 678 q 336 581 318 596 q 382 564 354 565 q 426 560 418 563 q 433 546 433 557 q 414 532 433 535 q 331 497 347 522 q 321 456 321 483 q 326 386 321 442 q 332 307 332 331 q 263 -8 332 88 q 113 -103 193 -103 q 63 -93 63 -103 q 96 -75 63 -83 q 200 236 200 -50 z "},"":{"ha":444,"x_min":124,"x_max":321,"o":"m 225 814 q 246 764 242 814 q 281 386 263 567 q 310 136 289 286 q 321 100 321 90 q 314 78 321 89 q 189 -10 272 26 q 136 -24 156 -24 q 124 -6 124 -24 q 131 50 124 -1 q 146 174 140 114 l 204 769 q 225 814 208 814 m 235 1065 q 293 1039 272 1065 q 311 988 311 1018 q 293 936 311 958 q 233 908 271 908 q 178 928 200 908 q 156 982 156 949 q 178 1041 156 1017 q 235 1065 200 1065 z "},"":{"ha":818,"x_min":76,"x_max":733,"o":"m 531 813 l 468 238 q 526 232 500 232 q 642 258 604 232 q 701 357 681 283 q 718 374 707 374 q 729 357 729 374 q 711 206 729 301 q 692 182 707 186 q 521 158 614 158 q 458 160 478 158 l 439 -26 q 428 -42 438 -40 l 376 -49 q 367 -48 369 -50 q 364 -40 364 -46 l 389 168 q 164 285 247 193 q 76 528 76 381 q 186 785 76 692 q 471 878 296 878 l 486 1017 q 500 1031 488 1029 l 544 1036 q 556 1035 553 1038 q 560 1028 560 1033 l 540 878 q 724 842 632 878 q 733 813 733 838 q 725 669 733 764 q 711 654 724 654 q 699 669 700 654 q 665 761 694 725 q 531 813 624 813 m 399 253 l 461 813 q 296 744 364 818 q 228 565 228 671 q 290 349 228 440 q 399 253 339 274 z "},"":{"ha":842,"x_min":-10,"x_max":794,"o":"m 565 499 l 363 499 l 356 436 q 318 288 347 363 q 203 117 275 176 l 206 107 l 557 111 q 702 138 661 113 q 756 229 743 163 q 771 246 758 246 q 783 224 783 246 q 757 21 783 125 q 721 -7 751 -1 q 669 -7 717 -7 q 519 -3 626 -7 q 313 0 413 0 l 32 0 q -10 17 -10 0 q 32 44 -10 35 q 143 146 106 63 q 189 350 172 213 l 207 500 l 108 500 q 90 499 99 500 q 78 497 81 497 q 74 514 68 497 l 88 554 q 108 564 90 564 l 215 564 l 226 638 q 378 979 264 883 q 618 1065 481 1065 q 743 1049 693 1065 q 781 1042 756 1046 q 794 1013 794 1040 q 783 849 794 915 q 769 829 781 829 q 756 851 757 829 q 722 954 753 915 q 594 1006 681 1006 q 397 753 433 1006 l 371 565 l 546 565 q 588 568 568 565 q 607 571 607 571 q 617 557 622 571 l 600 510 q 565 499 596 499 z "},"":{"ha":889,"x_min":-58,"x_max":936,"o":"m 511 397 l 511 229 q 513 99 511 135 q 576 26 515 36 q 646 22 604 22 q 665 8 665 22 q 646 -4 665 -4 q 518 -2 592 -4 q 439 0 444 0 q 361 -2 433 0 q 236 -4 289 -4 q 215 8 215 -4 q 233 22 215 22 q 304 26 276 22 q 369 99 367 36 q 371 229 371 136 l 371 397 l 146 397 q 138 408 135 397 l 150 456 q 165 464 153 464 l 363 464 q 111 904 361 467 q 24 1003 69 978 q -40 1019 -7 1019 q -58 1032 -58 1019 q -35 1046 -58 1046 q 42 1044 -22 1046 q 118 1042 106 1042 q 181 1044 132 1042 q 267 1046 231 1046 q 286 1032 286 1046 q 261 1017 286 1021 q 236 992 236 1013 q 251 944 236 976 q 472 533 351 761 q 669 914 610 779 q 688 989 688 954 q 653 1017 688 1008 q 631 1032 631 1022 q 650 1046 631 1046 q 719 1044 678 1046 q 774 1042 761 1042 q 840 1044 782 1042 q 914 1046 899 1046 q 936 1033 936 1046 q 907 1018 936 1022 q 867 1013 886 1015 q 851 1007 858 1011 q 779 938 824 994 q 650 718 749 897 q 517 464 558 551 l 740 464 q 751 450 754 464 l 742 408 q 724 397 739 397 l 511 397 z "},"":{"ha":1288,"x_min":433,"x_max":856,"o":"m 789 1153 q 726 1218 726 1153 q 743 1263 726 1242 q 790 1283 760 1283 q 856 1222 856 1283 q 837 1173 856 1193 q 789 1153 818 1153 m 496 1153 q 433 1218 433 1153 q 450 1262 433 1242 q 497 1282 467 1282 q 563 1222 563 1282 q 544 1173 563 1193 q 496 1153 525 1153 z "},"":{"ha":1253,"x_min":76,"x_max":1176,"o":"m 628 -24 q 233 131 390 -24 q 76 519 76 286 q 237 906 76 747 q 628 1065 397 1065 q 1020 910 864 1065 q 1176 519 1176 754 q 1017 135 1176 293 q 628 -24 857 -24 m 165 521 q 301 183 165 324 q 628 42 436 42 q 956 180 825 42 q 1088 521 1088 318 q 953 858 1088 717 q 628 1000 819 1000 q 297 863 428 1000 q 165 521 165 726 m 664 213 q 408 299 506 213 q 310 533 310 386 q 401 758 310 675 q 646 838 488 838 q 760 826 690 838 q 808 817 771 825 q 843 810 842 810 q 851 811 846 810 q 858 811 857 811 q 860 785 860 811 q 853 664 860 700 q 842 650 850 650 q 829 671 831 650 q 803 736 826 710 q 647 786 758 786 q 502 727 557 786 q 447 565 447 668 q 525 347 447 432 q 681 271 594 271 q 784 292 751 271 q 833 375 817 313 q 847 392 838 392 q 857 376 857 392 q 842 268 857 344 q 833 239 838 244 q 813 229 829 233 q 664 213 750 213 z "},"":{"ha":590,"x_min":-7,"x_max":592,"o":"m 353 715 l 189 715 q 179 707 183 715 l 153 636 q 147 604 147 621 q 171 586 147 586 l 181 586 q 192 576 192 586 q 179 567 192 567 q 142 568 168 567 q 101 569 115 569 q 59 568 93 569 q 6 567 25 567 q -7 576 -7 567 q 24 588 -7 588 q 82 639 60 593 l 275 1050 q 299 1076 288 1076 q 319 1056 310 1076 q 499 653 385 904 q 553 589 528 592 q 585 586 578 586 q 592 576 592 586 q 560 567 592 567 q 415 569 497 567 q 394 576 394 571 q 404 588 394 588 q 408 600 414 588 l 363 707 q 353 715 358 715 m 207 763 l 336 763 q 339 767 339 763 l 283 904 q 272 922 276 922 q 261 908 267 922 l 203 767 q 207 763 201 763 z "},"":{"ha":764,"x_min":58,"x_max":669,"o":"m 664 343 l 664 343 l 611 283 q 597 274 603 274 q 553 319 593 274 q 357 532 443 446 q 332 565 332 557 q 358 596 332 574 q 626 838 485 710 q 653 853 646 853 q 669 842 669 853 q 661 824 669 833 q 456 572 514 660 q 650 374 497 515 l 660 365 q 669 353 669 356 q 664 343 669 349 m 390 343 l 390 343 l 338 283 q 324 274 329 274 q 279 319 319 274 q 83 532 169 446 q 58 565 58 557 q 85 596 58 574 q 353 838 211 710 q 379 853 372 853 q 396 842 396 853 q 388 824 396 833 q 182 572 240 660 q 376 374 224 515 l 386 365 q 396 353 396 356 q 390 343 396 349 z "},"":{"ha":1253,"x_min":76,"x_max":1176,"o":"m 628 -24 q 233 131 390 -24 q 76 519 76 286 q 237 906 76 747 q 628 1065 397 1065 q 1020 910 864 1065 q 1176 519 1176 754 q 1017 135 1176 293 q 628 -24 857 -24 m 165 521 q 301 183 165 324 q 628 42 436 42 q 956 180 825 42 q 1088 521 1088 318 q 953 858 1088 717 q 628 1000 819 1000 q 297 863 428 1000 q 165 521 165 726 m 632 472 l 549 472 l 549 408 q 561 257 549 272 q 614 247 569 247 q 628 236 626 247 q 613 224 625 224 l 586 224 q 549 225 585 224 q 489 226 513 226 q 433 225 467 226 q 397 224 400 224 l 372 224 q 360 235 360 224 q 375 246 360 246 q 422 253 413 247 q 435 289 432 260 q 438 456 438 324 l 438 596 q 436 763 438 746 q 371 806 433 804 q 358 818 358 806 q 375 828 358 828 l 399 828 q 436 826 400 828 q 494 825 472 825 q 538 826 508 825 q 593 828 568 828 q 767 793 719 828 q 821 685 821 754 q 715 503 821 597 q 892 294 782 424 q 956 246 936 246 q 969 233 969 246 q 953 224 969 224 l 919 224 q 819 239 849 224 q 711 356 783 258 q 632 472 679 403 m 549 781 l 549 528 q 604 513 571 513 q 664 525 643 513 q 711 643 711 553 q 677 747 711 708 q 585 786 643 786 q 549 781 560 786 z "},"":{"ha":617,"x_min":56,"x_max":529,"o":"m 429 424 l 71 424 q 56 435 56 424 q 72 457 56 440 q 300 676 235 590 q 379 878 379 778 q 335 988 379 949 q 253 1018 300 1018 q 157 979 196 1018 q 128 908 129 951 q 115 893 128 893 q 106 915 107 893 q 100 1011 100 961 q 110 1031 100 1026 q 276 1065 181 1065 q 450 1015 388 1065 q 506 901 506 969 q 424 703 506 800 q 203 504 368 638 q 204 497 196 497 l 244 497 q 404 503 340 497 q 507 574 486 510 q 521 588 511 588 q 529 575 529 588 q 515 506 529 560 q 494 442 501 451 q 429 424 481 424 z "},"":{"ha":588,"x_min":72,"x_max":503,"o":"m 210 418 q 88 436 119 418 q 72 481 72 444 q 76 569 72 540 q 85 585 79 585 q 96 571 94 585 q 238 468 108 468 q 335 500 296 468 q 382 600 379 535 q 328 715 385 671 q 229 756 285 749 q 199 769 199 760 q 228 786 199 782 q 296 822 257 790 q 350 921 350 864 q 326 983 350 956 q 238 1021 296 1021 q 154 995 189 1021 q 119 932 119 969 q 111 914 119 914 q 100 929 103 914 q 92 1018 92 983 q 111 1040 92 1033 q 268 1065 185 1065 q 429 1021 378 1065 q 467 947 467 990 q 415 847 467 893 q 333 796 378 813 l 333 793 q 439 749 390 785 q 503 633 503 701 q 421 481 503 544 q 210 418 339 418 z "},"":{"ha":1288,"x_min":550,"x_max":879,"o":"m 833 1349 q 838 1341 833 1349 q 874 1267 843 1332 q 875 1250 879 1256 q 867 1246 874 1246 q 819 1246 819 1246 q 582 1164 711 1233 q 558 1153 561 1153 q 550 1161 550 1153 q 563 1179 550 1167 q 786 1354 658 1271 q 814 1367 806 1367 q 833 1349 824 1367 z "},"":{"ha":1288,"x_min":494,"x_max":794,"o":"m 674 0 l 756 0 l 615 -93 l 615 -96 q 794 -207 794 -111 q 750 -290 794 -253 q 664 -336 713 -322 q 518 -356 594 -356 q 494 -342 494 -356 q 531 -324 494 -326 q 628 -294 589 -318 q 668 -231 668 -269 q 535 -128 668 -157 q 507 -115 507 -122 q 535 -93 507 -111 l 674 0 z "},"":{"ha":472,"x_min":32,"x_max":431,"o":"m 189 674 l 189 826 q 188 915 189 899 q 171 940 186 940 q 56 896 154 940 q 40 892 46 892 q 32 904 32 892 q 39 915 32 913 q 257 1049 138 976 q 294 1065 285 1065 q 306 1047 306 1065 q 303 981 306 1053 q 301 826 301 910 l 301 674 q 306 497 301 533 q 346 453 310 461 q 410 446 376 446 q 431 435 431 446 q 406 421 431 421 q 308 422 364 421 q 238 424 251 424 q 167 422 226 424 q 69 421 108 421 q 44 433 44 421 q 64 446 44 446 q 145 453 110 446 q 185 497 181 461 q 189 674 189 533 z "},"":{"ha":656,"x_min":42,"x_max":614,"o":"m 324 563 q 108 644 185 563 q 42 814 42 714 q 107 982 42 911 q 331 1065 186 1065 q 538 1001 463 1065 q 614 825 614 936 q 535 638 614 713 q 324 563 456 563 m 489 804 q 438 961 489 900 q 310 1022 388 1022 q 214 982 251 1022 q 167 829 167 932 q 219 673 167 740 q 346 606 272 606 q 435 639 399 606 q 489 804 489 689 z "},"":{"ha":764,"x_min":94,"x_max":706,"o":"m 100 783 l 100 783 l 153 843 q 167 853 161 853 q 211 807 171 853 q 407 594 321 681 q 432 561 432 569 q 406 531 432 553 q 138 289 279 417 q 111 274 118 274 q 94 285 94 274 q 103 303 94 293 q 308 554 250 467 q 114 753 267 611 l 104 761 q 94 774 94 771 q 100 783 94 778 m 374 783 l 374 783 l 426 843 q 440 853 435 853 q 485 807 444 853 q 681 594 594 681 q 706 561 706 569 q 679 531 706 553 q 411 289 553 417 q 385 274 392 274 q 368 285 368 274 q 376 303 368 293 q 582 554 524 467 q 388 753 540 611 l 378 761 q 368 774 368 771 q 374 783 368 778 z "},"":{"ha":739,"x_min":97,"x_max":653,"o":"m 392 -24 q 158 49 238 -24 q 97 185 97 106 q 175 401 97 296 q 333 581 254 490 q 404 703 404 664 q 376 783 404 733 q 371 799 371 792 q 383 810 371 810 q 454 767 400 810 q 517 679 517 717 q 489 608 517 644 q 397 497 457 571 q 301 341 328 401 q 275 213 275 281 q 310 94 275 142 q 440 38 354 38 q 573 92 531 38 q 621 207 615 147 q 633 235 624 235 q 647 217 643 235 q 653 54 653 192 q 638 32 653 42 q 392 -24 544 -24 m 411 1065 q 469 1039 449 1065 q 488 988 488 1018 q 469 936 488 958 q 410 908 447 908 q 354 928 376 908 q 332 982 332 949 q 354 1041 332 1017 q 411 1065 376 1065 z "},"":{"ha":972,"x_min":-89,"x_max":1054,"o":"m 593 358 l 283 358 q 271 347 275 358 l 196 149 q 175 64 175 93 q 231 21 175 21 l 251 21 q 272 10 272 21 q 249 -4 272 -4 q 174 -2 226 -4 q 101 0 122 0 q 41 -2 101 0 q -62 -4 -19 -4 q -89 10 -89 -4 q -72 21 -89 21 q -29 24 -50 21 q 43 63 15 29 q 89 149 65 89 l 438 1021 q 476 1076 460 1076 q 511 1032 492 1076 q 856 178 639 710 q 978 26 914 40 q 1036 21 1003 21 q 1054 10 1054 21 q 1040 -1 1054 1 q 990 -4 1026 -4 q 728 -1 818 -4 q 686 10 686 0 q 706 22 686 21 q 718 54 728 29 l 607 349 q 593 358 603 358 m 311 428 l 567 428 q 574 436 576 428 l 449 779 q 442 792 446 792 q 433 779 436 792 l 306 438 q 311 428 303 428 m 589 1163 q 574 1153 589 1153 q 292 1268 551 1153 q 246 1303 246 1289 q 264 1315 246 1310 q 357 1350 313 1329 q 383 1360 378 1360 q 406 1329 383 1360 q 560 1188 451 1267 q 589 1163 589 1167 z "},"":{"ha":972,"x_min":-89,"x_max":1054,"o":"m 593 358 l 283 358 q 271 347 275 358 l 196 149 q 175 64 175 93 q 231 21 175 21 l 251 21 q 272 10 272 21 q 249 -4 272 -4 q 174 -2 226 -4 q 101 0 122 0 q 41 -2 101 0 q -62 -4 -19 -4 q -89 10 -89 -4 q -72 21 -89 21 q -29 24 -50 21 q 43 63 15 29 q 89 149 65 89 l 438 1021 q 476 1076 460 1076 q 511 1032 492 1076 q 856 178 639 710 q 978 26 914 40 q 1036 21 1003 21 q 1054 10 1054 21 q 1040 -1 1054 1 q 990 -4 1026 -4 q 728 -1 818 -4 q 686 10 686 0 q 706 22 686 21 q 718 54 728 29 l 607 349 q 593 358 603 358 m 311 428 l 567 428 q 574 436 576 428 l 449 779 q 442 792 446 792 q 433 779 436 792 l 306 438 q 311 428 303 428 m 676 1349 q 681 1341 676 1349 q 717 1267 686 1332 q 718 1250 722 1256 q 710 1246 717 1246 q 663 1246 663 1246 q 425 1164 554 1233 q 401 1153 404 1153 q 393 1161 393 1153 q 406 1179 393 1167 q 629 1354 501 1271 q 657 1367 649 1367 q 676 1349 667 1367 z "},"":{"ha":972,"x_min":-89,"x_max":1054,"o":"m 593 358 l 283 358 q 271 347 275 358 l 196 149 q 175 64 175 93 q 231 21 175 21 l 251 21 q 272 10 272 21 q 249 -4 272 -4 q 174 -2 226 -4 q 101 0 122 0 q 41 -2 101 0 q -62 -4 -19 -4 q -89 10 -89 -4 q -72 21 -89 21 q -29 24 -50 21 q 43 63 15 29 q 89 149 65 89 l 438 1021 q 476 1076 460 1076 q 511 1032 492 1076 q 856 178 639 710 q 978 26 914 40 q 1036 21 1003 21 q 1054 10 1054 21 q 1040 -1 1054 1 q 990 -4 1026 -4 q 728 -1 818 -4 q 686 10 686 0 q 706 22 686 21 q 718 54 728 29 l 607 349 q 593 358 603 358 m 311 428 l 567 428 q 574 436 576 428 l 449 779 q 442 792 446 792 q 433 779 436 792 l 306 438 q 311 428 303 428 m 494 1363 q 519 1347 499 1363 q 685 1222 549 1322 q 704 1203 704 1208 q 697 1189 704 1196 l 657 1149 q 639 1139 647 1139 q 618 1154 633 1139 q 496 1257 575 1199 q 478 1265 485 1265 q 457 1258 469 1265 q 310 1156 375 1213 q 282 1139 290 1139 q 269 1153 269 1139 q 282 1174 269 1160 q 465 1346 329 1226 q 494 1363 485 1363 z "},"":{"ha":972,"x_min":-89,"x_max":1054,"o":"m 593 358 l 283 358 q 271 347 275 358 l 196 149 q 175 64 175 93 q 231 21 175 21 l 251 21 q 272 10 272 21 q 249 -4 272 -4 q 174 -2 226 -4 q 101 0 122 0 q 41 -2 101 0 q -62 -4 -19 -4 q -89 10 -89 -4 q -72 21 -89 21 q -29 24 -50 21 q 43 63 15 29 q 89 149 65 89 l 438 1021 q 476 1076 460 1076 q 511 1032 492 1076 q 856 178 639 710 q 978 26 914 40 q 1036 21 1003 21 q 1054 10 1054 21 q 1040 -1 1054 1 q 990 -4 1026 -4 q 728 -1 818 -4 q 686 10 686 0 q 706 22 686 21 q 718 54 728 29 l 607 349 q 593 358 603 358 m 311 428 l 567 428 q 574 436 576 428 l 449 779 q 442 792 446 792 q 433 779 436 792 l 306 438 q 311 428 303 428 m 585 1153 q 468 1188 532 1153 q 371 1222 404 1222 q 276 1172 324 1222 q 254 1158 264 1158 q 244 1168 244 1158 q 256 1194 244 1178 q 400 1301 324 1301 q 511 1263 442 1301 q 611 1232 565 1232 q 696 1274 664 1232 q 718 1292 710 1292 q 729 1281 729 1292 q 721 1257 729 1274 q 672 1196 706 1226 q 585 1153 628 1153 z "},"":{"ha":972,"x_min":-89,"x_max":1054,"o":"m 593 358 l 283 358 q 271 347 275 358 l 196 149 q 175 64 175 93 q 231 21 175 21 l 251 21 q 272 10 272 21 q 249 -4 272 -4 q 174 -2 226 -4 q 101 0 122 0 q 41 -2 101 0 q -62 -4 -19 -4 q -89 10 -89 -4 q -72 21 -89 21 q -29 24 -50 21 q 43 63 15 29 q 89 149 65 89 l 438 1021 q 476 1076 460 1076 q 511 1032 492 1076 q 856 178 639 710 q 978 26 914 40 q 1036 21 1003 21 q 1054 10 1054 21 q 1040 -1 1054 1 q 990 -4 1026 -4 q 728 -1 818 -4 q 686 10 686 0 q 706 22 686 21 q 718 54 728 29 l 607 349 q 593 358 603 358 m 311 428 l 567 428 q 574 436 576 428 l 449 779 q 442 792 446 792 q 433 779 436 792 l 306 438 q 311 428 303 428 m 632 1153 q 569 1218 569 1153 q 586 1263 569 1242 q 633 1283 603 1283 q 699 1222 699 1283 q 680 1173 699 1193 q 632 1153 661 1153 m 339 1153 q 276 1218 276 1153 q 293 1262 276 1242 q 340 1282 310 1282 q 406 1222 406 1282 q 387 1173 406 1193 q 339 1153 368 1153 z "},"":{"ha":972,"x_min":-89,"x_max":1054,"o":"m 593 358 l 283 358 q 271 347 275 358 l 196 149 q 175 64 175 93 q 231 21 175 21 l 251 21 q 272 10 272 21 q 249 -4 272 -4 q 174 -2 226 -4 q 101 0 122 0 q 41 -2 101 0 q -62 -4 -19 -4 q -89 10 -89 -4 q -72 21 -89 21 q -29 24 -50 21 q 43 63 15 29 q 89 149 65 89 l 438 1021 q 476 1076 460 1076 q 511 1032 492 1076 q 856 178 639 710 q 978 26 914 40 q 1036 21 1003 21 q 1054 10 1054 21 q 1040 -1 1054 1 q 990 -4 1026 -4 q 728 -1 818 -4 q 686 10 686 0 q 706 22 686 21 q 718 54 728 29 l 607 349 q 593 358 603 358 m 311 428 l 567 428 q 574 436 576 428 l 449 779 q 442 792 446 792 q 433 779 436 792 l 306 438 q 311 428 303 428 m 450 1139 q 360 1163 394 1139 q 326 1222 326 1186 q 382 1308 326 1271 q 517 1344 438 1344 q 613 1322 576 1344 q 649 1264 649 1300 q 583 1172 649 1208 q 450 1139 524 1139 m 411 1242 q 433 1193 411 1213 q 481 1174 454 1174 q 540 1195 515 1174 q 564 1246 564 1217 q 490 1310 564 1310 q 439 1293 463 1310 q 411 1242 411 1274 z "},"":{"ha":1288,"x_min":-129,"x_max":1199,"o":"m 647 399 l 647 465 q 635 476 647 476 l 411 476 q 388 467 394 476 q 238 208 324 357 q 176 72 176 107 q 202 33 176 44 q 271 21 228 21 q 292 10 292 21 q 265 -4 292 -4 q 144 -2 214 -4 q 67 0 74 0 q -4 -2 60 0 q -110 -4 -68 -4 q -129 10 -129 -4 q -110 21 -129 21 q -50 33 -79 21 q 43 106 0 56 q 97 178 69 142 q 607 965 163 260 q 638 1025 632 1004 q 656 1046 643 1046 q 679 1044 656 1046 q 729 1042 703 1042 q 1076 1043 1058 1042 q 1136 1051 1113 1046 q 1158 1057 1160 1057 q 1167 1044 1167 1057 q 1163 1019 1167 1043 q 1156 954 1158 992 q 1149 863 1154 917 q 1135 847 1146 847 q 1123 863 1125 847 q 1119 892 1121 878 q 1114 917 1118 906 q 1021 967 1097 957 q 824 972 974 972 q 814 958 814 972 l 814 563 q 824 547 814 547 q 1046 550 1014 547 q 1082 554 1069 551 q 1113 571 1103 560 q 1135 589 1129 589 q 1144 576 1144 589 q 1140 549 1144 575 q 1133 475 1136 517 q 1128 382 1128 396 q 1115 356 1128 356 q 1103 370 1103 356 q 1097 418 1103 385 q 1019 472 1086 465 q 822 478 968 478 q 814 464 814 478 l 814 399 q 813 276 814 374 q 813 183 813 186 q 844 88 814 110 q 979 67 875 67 q 1110 83 1074 67 q 1172 186 1158 106 q 1188 207 1176 207 q 1199 182 1199 207 q 1181 28 1199 97 q 1161 -3 1174 3 q 1106 -8 1149 -8 q 865 -4 985 -8 q 721 0 746 0 q 647 -2 706 0 q 560 -4 588 -4 q 533 8 533 -4 q 553 21 533 21 q 600 26 574 21 q 640 103 632 33 q 647 399 647 157 m 647 553 l 647 889 l 640 889 q 442 556 547 735 q 439 544 438 547 q 449 542 440 542 l 635 542 q 647 553 647 542 z "},"":{"ha":1111,"x_min":76,"x_max":1042,"o":"m 725 -24 q 249 127 422 -24 q 76 538 76 278 q 238 917 76 769 q 678 1065 400 1065 q 879 1051 774 1065 q 1018 1028 928 1042 q 1039 1011 1039 1026 q 1036 988 1039 1007 q 1032 935 1033 963 q 1028 785 1031 874 q 1011 753 1025 753 q 997 783 997 753 q 943 911 996 856 q 833 972 907 949 q 661 997 754 997 q 400 911 494 997 q 272 551 272 794 q 421 181 272 322 q 710 57 550 57 q 847 68 799 57 q 964 135 921 85 q 1011 226 1001 176 q 1029 254 1017 254 q 1042 233 1042 254 q 1032 153 1042 218 q 1012 50 1021 81 q 975 8 1003 19 q 725 -24 896 -24 m 586 0 l 668 0 l 528 -93 l 528 -96 q 707 -207 707 -111 q 663 -290 707 -253 q 576 -336 625 -322 q 431 -356 507 -356 q 407 -342 407 -356 q 443 -324 407 -326 q 541 -294 501 -318 q 581 -231 581 -269 q 447 -128 581 -157 q 419 -115 419 -122 q 447 -93 419 -111 l 586 0 z "},"":{"ha":878,"x_min":88,"x_max":789,"o":"m 228 399 l 228 643 q 225 938 228 892 q 165 1017 221 1004 q 111 1021 146 1021 q 88 1033 88 1021 q 118 1046 88 1046 q 231 1044 160 1046 q 318 1042 303 1042 q 665 1043 647 1042 q 725 1051 701 1046 q 747 1057 749 1057 q 756 1044 756 1057 q 751 1019 756 1043 q 745 954 747 992 q 738 863 743 917 q 724 847 735 847 q 712 863 714 847 q 708 892 710 878 q 703 917 707 906 q 610 967 686 957 q 413 972 563 972 q 403 958 403 972 l 403 607 q 413 592 403 592 q 635 594 603 592 q 671 599 658 596 q 701 615 692 604 q 724 633 718 633 q 733 622 733 633 q 729 594 733 621 q 722 521 725 563 q 717 428 717 442 q 704 401 717 401 q 692 416 692 401 q 686 464 692 431 q 608 518 675 511 q 411 522 569 522 q 403 508 403 522 l 403 183 q 435 88 406 110 q 569 67 465 67 q 700 83 664 67 q 763 186 749 106 q 778 207 767 207 q 789 182 789 207 q 771 28 789 97 q 751 -3 764 3 q 696 -8 739 -8 q 456 -4 575 -8 q 311 0 336 0 q 233 -2 299 0 q 136 -4 167 -4 q 108 10 108 -4 q 139 22 108 19 q 181 26 160 25 q 221 103 213 33 q 228 399 228 157 m 563 1163 q 547 1153 563 1153 q 265 1268 525 1153 q 219 1303 219 1289 q 238 1315 219 1310 q 331 1350 286 1329 q 357 1360 351 1360 q 379 1329 357 1360 q 533 1188 425 1267 q 563 1163 563 1167 z "},"":{"ha":878,"x_min":88,"x_max":789,"o":"m 228 399 l 228 643 q 225 938 228 892 q 165 1017 221 1004 q 111 1021 146 1021 q 88 1033 88 1021 q 118 1046 88 1046 q 231 1044 160 1046 q 318 1042 303 1042 q 665 1043 647 1042 q 725 1051 701 1046 q 747 1057 749 1057 q 756 1044 756 1057 q 751 1019 756 1043 q 745 954 747 992 q 738 863 743 917 q 724 847 735 847 q 712 863 714 847 q 708 892 710 878 q 703 917 707 906 q 610 967 686 957 q 413 972 563 972 q 403 958 403 972 l 403 607 q 413 592 403 592 q 635 594 603 592 q 671 599 658 596 q 701 615 692 604 q 724 633 718 633 q 733 622 733 633 q 729 594 733 621 q 722 521 725 563 q 717 428 717 442 q 704 401 717 401 q 692 416 692 401 q 686 464 692 431 q 608 518 675 511 q 411 522 569 522 q 403 508 403 522 l 403 183 q 435 88 406 110 q 569 67 465 67 q 700 83 664 67 q 763 186 749 106 q 778 207 767 207 q 789 182 789 207 q 771 28 789 97 q 751 -3 764 3 q 696 -8 739 -8 q 456 -4 575 -8 q 311 0 336 0 q 233 -2 299 0 q 136 -4 167 -4 q 108 10 108 -4 q 139 22 108 19 q 181 26 160 25 q 221 103 213 33 q 228 399 228 157 m 643 1349 q 648 1341 643 1349 q 683 1267 653 1332 q 685 1250 689 1256 q 676 1246 683 1246 q 629 1246 629 1246 q 392 1164 521 1233 q 368 1153 371 1153 q 360 1161 360 1153 q 372 1179 360 1167 q 596 1354 468 1271 q 624 1367 615 1367 q 643 1349 633 1367 z "},"":{"ha":878,"x_min":88,"x_max":789,"o":"m 228 399 l 228 643 q 225 938 228 892 q 165 1017 221 1004 q 111 1021 146 1021 q 88 1033 88 1021 q 118 1046 88 1046 q 231 1044 160 1046 q 318 1042 303 1042 q 665 1043 647 1042 q 725 1051 701 1046 q 747 1057 749 1057 q 756 1044 756 1057 q 751 1019 756 1043 q 745 954 747 992 q 738 863 743 917 q 724 847 735 847 q 712 863 714 847 q 708 892 710 878 q 703 917 707 906 q 610 967 686 957 q 413 972 563 972 q 403 958 403 972 l 403 607 q 413 592 403 592 q 635 594 603 592 q 671 599 658 596 q 701 615 692 604 q 724 633 718 633 q 733 622 733 633 q 729 594 733 621 q 722 521 725 563 q 717 428 717 442 q 704 401 717 401 q 692 416 692 401 q 686 464 692 431 q 608 518 675 511 q 411 522 569 522 q 403 508 403 522 l 403 183 q 435 88 406 110 q 569 67 465 67 q 700 83 664 67 q 763 186 749 106 q 778 207 767 207 q 789 182 789 207 q 771 28 789 97 q 751 -3 764 3 q 696 -8 739 -8 q 456 -4 575 -8 q 311 0 336 0 q 233 -2 299 0 q 136 -4 167 -4 q 108 10 108 -4 q 139 22 108 19 q 181 26 160 25 q 221 103 213 33 q 228 399 228 157 m 447 1363 q 472 1347 451 1363 q 638 1222 501 1322 q 657 1203 657 1208 q 650 1189 657 1196 l 610 1149 q 592 1139 600 1139 q 571 1154 586 1139 q 449 1257 528 1199 q 431 1265 438 1265 q 410 1258 422 1265 q 263 1156 328 1213 q 235 1139 243 1139 q 222 1153 222 1139 q 235 1174 222 1160 q 418 1346 282 1226 q 447 1363 438 1363 z "},"":{"ha":878,"x_min":88,"x_max":789,"o":"m 228 399 l 228 643 q 225 938 228 892 q 165 1017 221 1004 q 111 1021 146 1021 q 88 1033 88 1021 q 118 1046 88 1046 q 231 1044 160 1046 q 318 1042 303 1042 q 665 1043 647 1042 q 725 1051 701 1046 q 747 1057 749 1057 q 756 1044 756 1057 q 751 1019 756 1043 q 745 954 747 992 q 738 863 743 917 q 724 847 735 847 q 712 863 714 847 q 708 892 710 878 q 703 917 707 906 q 610 967 686 957 q 413 972 563 972 q 403 958 403 972 l 403 607 q 413 592 403 592 q 635 594 603 592 q 671 599 658 596 q 701 615 692 604 q 724 633 718 633 q 733 622 733 633 q 729 594 733 621 q 722 521 725 563 q 717 428 717 442 q 704 401 717 401 q 692 416 692 401 q 686 464 692 431 q 608 518 675 511 q 411 522 569 522 q 403 508 403 522 l 403 183 q 435 88 406 110 q 569 67 465 67 q 700 83 664 67 q 763 186 749 106 q 778 207 767 207 q 789 182 789 207 q 771 28 789 97 q 751 -3 764 3 q 696 -8 739 -8 q 456 -4 575 -8 q 311 0 336 0 q 233 -2 299 0 q 136 -4 167 -4 q 108 10 108 -4 q 139 22 108 19 q 181 26 160 25 q 221 103 213 33 q 228 399 228 157 m 613 1153 q 550 1218 550 1153 q 567 1263 550 1242 q 614 1283 583 1283 q 679 1222 679 1283 q 660 1173 679 1193 q 613 1153 642 1153 m 319 1153 q 257 1218 257 1153 q 274 1262 257 1242 q 321 1282 290 1282 q 386 1222 386 1282 q 367 1173 386 1193 q 319 1153 349 1153 z "},"":{"ha":628,"x_min":74,"x_max":554,"o":"m 228 399 l 228 643 q 225 938 228 892 q 178 1015 221 1004 q 130 1021 154 1021 q 106 1035 106 1021 q 139 1046 106 1046 q 234 1044 167 1046 q 319 1042 301 1042 q 397 1044 335 1042 q 489 1046 460 1046 q 518 1035 518 1046 q 498 1021 518 1021 q 454 1017 478 1021 q 403 938 407 1008 q 400 643 400 892 l 400 399 q 406 94 400 150 q 461 26 411 33 q 532 21 501 21 q 554 10 554 21 q 528 -4 554 -4 q 399 -2 475 -4 q 311 0 324 0 q 233 -2 299 0 q 136 -4 167 -4 q 108 10 108 -4 q 139 22 108 19 q 181 26 160 25 q 221 95 214 33 q 228 399 228 157 m 417 1163 q 401 1153 417 1153 q 119 1268 379 1153 q 74 1303 74 1289 q 92 1315 74 1310 q 185 1350 140 1329 q 211 1360 206 1360 q 233 1329 211 1360 q 388 1188 279 1267 q 417 1163 417 1167 z "},"":{"ha":628,"x_min":106,"x_max":558,"o":"m 228 399 l 228 643 q 225 938 228 892 q 178 1015 221 1004 q 130 1021 154 1021 q 106 1035 106 1021 q 139 1046 106 1046 q 234 1044 167 1046 q 319 1042 301 1042 q 397 1044 335 1042 q 489 1046 460 1046 q 518 1035 518 1046 q 498 1021 518 1021 q 454 1017 478 1021 q 403 938 407 1008 q 400 643 400 892 l 400 399 q 406 94 400 150 q 461 26 411 33 q 532 21 501 21 q 554 10 554 21 q 528 -4 554 -4 q 399 -2 475 -4 q 311 0 324 0 q 233 -2 299 0 q 136 -4 167 -4 q 108 10 108 -4 q 139 22 108 19 q 181 26 160 25 q 221 95 214 33 q 228 399 228 157 m 518 1349 q 523 1341 518 1349 q 558 1267 528 1332 q 560 1250 564 1256 q 551 1246 558 1246 q 504 1246 504 1246 q 267 1164 396 1233 q 243 1153 246 1153 q 235 1161 235 1153 q 247 1179 235 1167 q 471 1354 343 1271 q 499 1367 490 1367 q 518 1349 508 1367 z "},"":{"ha":628,"x_min":97,"x_max":554,"o":"m 228 399 l 228 643 q 225 938 228 892 q 178 1015 221 1004 q 130 1021 154 1021 q 106 1035 106 1021 q 139 1046 106 1046 q 234 1044 167 1046 q 319 1042 301 1042 q 397 1044 335 1042 q 489 1046 460 1046 q 518 1035 518 1046 q 498 1021 518 1021 q 454 1017 478 1021 q 403 938 407 1008 q 400 643 400 892 l 400 399 q 406 94 400 150 q 461 26 411 33 q 532 21 501 21 q 554 10 554 21 q 528 -4 554 -4 q 399 -2 475 -4 q 311 0 324 0 q 233 -2 299 0 q 136 -4 167 -4 q 108 10 108 -4 q 139 22 108 19 q 181 26 160 25 q 221 95 214 33 q 228 399 228 157 m 322 1363 q 347 1347 326 1363 q 513 1222 376 1322 q 532 1203 532 1208 q 525 1189 532 1196 l 485 1149 q 467 1139 475 1139 q 446 1154 461 1139 q 324 1257 403 1199 q 306 1265 313 1265 q 285 1258 297 1265 q 138 1156 203 1213 q 110 1139 118 1139 q 97 1153 97 1139 q 110 1174 97 1160 q 293 1346 157 1226 q 322 1363 313 1363 z "},"":{"ha":628,"x_min":104,"x_max":554,"o":"m 228 399 l 228 643 q 225 938 228 892 q 178 1015 221 1004 q 130 1021 154 1021 q 106 1035 106 1021 q 139 1046 106 1046 q 234 1044 167 1046 q 319 1042 301 1042 q 397 1044 335 1042 q 489 1046 460 1046 q 518 1035 518 1046 q 498 1021 518 1021 q 454 1017 478 1021 q 403 938 407 1008 q 400 643 400 892 l 400 399 q 406 94 400 150 q 461 26 411 33 q 532 21 501 21 q 554 10 554 21 q 528 -4 554 -4 q 399 -2 475 -4 q 311 0 324 0 q 233 -2 299 0 q 136 -4 167 -4 q 108 10 108 -4 q 139 22 108 19 q 181 26 160 25 q 221 95 214 33 q 228 399 228 157 m 460 1153 q 397 1218 397 1153 q 414 1263 397 1242 q 461 1283 431 1283 q 526 1222 526 1283 q 508 1173 526 1193 q 460 1153 489 1153 m 167 1153 q 104 1218 104 1153 q 121 1262 104 1242 q 168 1282 138 1282 q 233 1222 233 1282 q 215 1173 233 1193 q 167 1153 196 1153 z "},"":{"ha":1300,"x_min":78,"x_max":1224,"o":"m 228 490 l 88 490 q 81 507 78 490 l 88 549 q 106 563 90 563 l 228 563 l 228 643 q 225 938 228 892 q 165 1017 221 1004 q 111 1021 146 1021 q 88 1033 88 1021 q 118 1046 88 1046 q 231 1044 160 1046 q 318 1042 303 1042 q 410 1044 335 1042 q 532 1046 485 1046 q 818 1026 719 1046 q 1089 888 989 992 q 1224 535 1224 747 q 1074 144 1224 299 q 907 39 1015 85 q 629 -17 774 -17 q 452 -8 575 -17 q 311 0 329 0 q 233 -2 299 0 q 136 -4 167 -4 q 108 10 108 -4 q 139 22 108 19 q 181 26 160 25 q 221 103 213 33 q 228 399 228 157 l 228 490 m 401 564 l 679 564 q 689 547 692 564 l 681 501 q 664 489 678 489 l 401 489 l 401 425 q 404 211 401 272 q 419 106 408 122 q 601 49 460 49 q 926 153 810 49 q 1038 494 1038 253 q 904 842 1038 714 q 510 981 758 981 q 422 972 440 981 q 403 943 403 964 q 401 665 401 881 l 401 564 z "},"":{"ha":1315,"x_min":65,"x_max":1233,"o":"m 290 768 l 306 185 q 354 31 310 46 q 408 24 358 29 q 450 10 450 18 q 418 -4 450 -4 q 308 -2 365 -4 q 246 0 251 0 q 193 -2 247 0 q 96 -4 139 -4 q 65 10 65 -4 q 101 22 65 19 q 150 28 126 25 q 185 72 176 36 q 193 200 192 104 l 206 1022 q 224 1069 207 1069 q 275 1026 235 1069 q 706 581 389 904 q 1011 264 847 433 l 1018 264 l 1004 888 q 999 958 1003 939 q 957 1013 988 1000 q 883 1021 936 1021 q 861 1033 861 1021 q 897 1046 861 1046 q 997 1044 939 1046 q 1065 1042 1056 1042 q 1114 1044 1067 1042 q 1201 1046 1161 1046 q 1233 1033 1233 1046 q 1208 1021 1233 1021 q 1124 975 1139 1021 q 1115 899 1117 950 l 1100 22 q 1082 -21 1099 -21 q 1035 10 1067 -21 q 625 418 901 142 q 413 639 531 511 q 294 768 353 704 l 290 768 m 783 1153 q 667 1188 731 1153 q 569 1222 603 1222 q 475 1172 522 1222 q 453 1158 463 1158 q 443 1168 443 1158 q 454 1194 443 1178 q 599 1301 522 1301 q 710 1263 640 1301 q 810 1232 764 1232 q 894 1274 863 1232 q 917 1292 908 1292 q 928 1281 928 1292 q 919 1257 928 1274 q 871 1196 904 1226 q 783 1153 826 1153 z "},"":{"ha":1288,"x_min":76,"x_max":1211,"o":"m 636 -24 q 207 157 361 -24 q 76 521 76 308 q 207 882 76 731 q 650 1065 364 1065 q 1060 925 908 1065 q 1211 546 1211 785 q 1056 142 1211 301 q 636 -24 896 -24 m 694 46 q 892 119 811 46 q 1017 494 1017 232 q 899 864 1017 722 q 610 999 785 999 q 379 911 467 999 q 268 564 268 800 q 382 197 268 340 q 694 46 500 46 m 746 1163 q 731 1153 746 1153 q 449 1268 708 1153 q 403 1303 403 1289 q 421 1315 403 1310 q 514 1350 469 1329 q 540 1360 535 1360 q 563 1329 540 1360 q 717 1188 608 1267 q 746 1163 746 1167 z "},"":{"ha":1288,"x_min":76,"x_max":1211,"o":"m 636 -24 q 207 157 361 -24 q 76 521 76 308 q 207 882 76 731 q 650 1065 364 1065 q 1060 925 908 1065 q 1211 546 1211 785 q 1056 142 1211 301 q 636 -24 896 -24 m 694 46 q 892 119 811 46 q 1017 494 1017 232 q 899 864 1017 722 q 610 999 785 999 q 379 911 467 999 q 268 564 268 800 q 382 197 268 340 q 694 46 500 46 m 833 1349 q 838 1341 833 1349 q 874 1267 843 1332 q 875 1250 879 1256 q 867 1246 874 1246 q 819 1246 819 1246 q 582 1164 711 1233 q 558 1153 561 1153 q 550 1161 550 1153 q 563 1179 550 1167 q 786 1354 658 1271 q 814 1367 806 1367 q 833 1349 824 1367 z "},"":{"ha":1288,"x_min":76,"x_max":1211,"o":"m 636 -24 q 207 157 361 -24 q 76 521 76 308 q 207 882 76 731 q 650 1065 364 1065 q 1060 925 908 1065 q 1211 546 1211 785 q 1056 142 1211 301 q 636 -24 896 -24 m 694 46 q 892 119 811 46 q 1017 494 1017 232 q 899 864 1017 722 q 610 999 785 999 q 379 911 467 999 q 268 564 268 800 q 382 197 268 340 q 694 46 500 46 m 651 1363 q 676 1347 656 1363 q 842 1222 706 1322 q 861 1203 861 1208 q 854 1189 861 1196 l 814 1149 q 796 1139 804 1139 q 775 1154 790 1139 q 653 1257 732 1199 q 635 1265 642 1265 q 614 1258 626 1265 q 467 1156 532 1213 q 439 1139 447 1139 q 426 1153 426 1139 q 439 1174 426 1160 q 622 1346 486 1226 q 651 1363 642 1363 z "},"":{"ha":1288,"x_min":76,"x_max":1211,"o":"m 636 -24 q 207 157 361 -24 q 76 521 76 308 q 207 882 76 731 q 650 1065 364 1065 q 1060 925 908 1065 q 1211 546 1211 785 q 1056 142 1211 301 q 636 -24 896 -24 m 694 46 q 892 119 811 46 q 1017 494 1017 232 q 899 864 1017 722 q 610 999 785 999 q 379 911 467 999 q 268 564 268 800 q 382 197 268 340 q 694 46 500 46 m 742 1153 q 625 1188 689 1153 q 528 1222 561 1222 q 433 1172 481 1222 q 411 1158 421 1158 q 401 1168 401 1158 q 413 1194 401 1178 q 557 1301 481 1301 q 668 1263 599 1301 q 768 1232 722 1232 q 853 1274 821 1232 q 875 1292 867 1292 q 886 1281 886 1292 q 878 1257 886 1274 q 829 1196 863 1226 q 742 1153 785 1153 z "},"":{"ha":1288,"x_min":76,"x_max":1211,"o":"m 636 -24 q 207 157 361 -24 q 76 521 76 308 q 207 882 76 731 q 650 1065 364 1065 q 1060 925 908 1065 q 1211 546 1211 785 q 1056 142 1211 301 q 636 -24 896 -24 m 694 46 q 892 119 811 46 q 1017 494 1017 232 q 899 864 1017 722 q 610 999 785 999 q 379 911 467 999 q 268 564 268 800 q 382 197 268 340 q 694 46 500 46 m 789 1153 q 726 1218 726 1153 q 743 1263 726 1242 q 790 1283 760 1283 q 856 1222 856 1283 q 837 1173 856 1193 q 789 1153 818 1153 m 496 1153 q 433 1218 433 1153 q 450 1262 433 1242 q 497 1282 467 1282 q 563 1222 563 1282 q 544 1173 563 1193 q 496 1153 525 1153 z "},"":{"ha":1288,"x_min":76,"x_max":1211,"o":"m 283 85 l 167 -37 q 153 -37 160 -44 l 114 -3 q 111 11 106 6 l 228 135 q 76 521 76 288 q 207 882 76 731 q 650 1065 364 1065 q 1011 964 868 1065 l 1115 1074 q 1135 1071 1122 1082 l 1174 1038 q 1174 1022 1182 1031 l 1071 914 q 1211 546 1211 776 q 1056 142 1211 301 q 636 -24 896 -24 q 283 85 425 -24 m 950 786 l 385 192 q 696 44 504 44 q 893 118 813 44 q 1018 493 1018 231 q 950 786 1018 657 m 342 256 l 907 853 q 611 997 793 997 q 381 910 468 997 q 269 563 269 799 q 342 256 269 385 z "},"":{"ha":1183,"x_min":28,"x_max":1140,"o":"m 168 440 l 168 643 q 165 938 168 892 q 106 1017 161 1004 q 51 1021 86 1021 q 28 1033 28 1021 q 58 1046 28 1046 q 172 1044 99 1046 q 261 1042 244 1042 q 341 1044 276 1042 q 432 1046 406 1046 q 463 1033 463 1046 q 440 1021 463 1021 q 400 1017 424 1021 q 349 938 353 1008 q 346 643 346 892 l 346 449 q 454 107 346 196 q 628 50 524 50 q 819 125 744 50 q 889 272 871 176 q 900 469 900 336 l 900 643 q 897 938 900 892 q 838 1017 893 1004 q 788 1021 818 1021 q 764 1033 764 1021 q 793 1046 764 1046 q 953 1042 854 1046 q 1018 1044 957 1042 q 1111 1046 1079 1046 q 1140 1033 1140 1046 q 1115 1021 1140 1021 q 1075 1017 1099 1021 q 1024 938 1028 1008 q 1021 643 1021 892 l 1021 494 q 999 265 1021 353 q 889 76 968 144 q 600 -24 772 -24 q 292 72 397 -24 q 168 440 168 183 m 694 1163 q 679 1153 694 1153 q 397 1268 657 1153 q 351 1303 351 1289 q 369 1315 351 1310 q 463 1350 418 1329 q 489 1360 483 1360 q 511 1329 489 1360 q 665 1188 557 1267 q 694 1163 694 1167 z "},"":{"ha":1183,"x_min":28,"x_max":1140,"o":"m 168 440 l 168 643 q 165 938 168 892 q 106 1017 161 1004 q 51 1021 86 1021 q 28 1033 28 1021 q 58 1046 28 1046 q 172 1044 99 1046 q 261 1042 244 1042 q 341 1044 276 1042 q 432 1046 406 1046 q 463 1033 463 1046 q 440 1021 463 1021 q 400 1017 424 1021 q 349 938 353 1008 q 346 643 346 892 l 346 449 q 454 107 346 196 q 628 50 524 50 q 819 125 744 50 q 889 272 871 176 q 900 469 900 336 l 900 643 q 897 938 900 892 q 838 1017 893 1004 q 788 1021 818 1021 q 764 1033 764 1021 q 793 1046 764 1046 q 953 1042 854 1046 q 1018 1044 957 1042 q 1111 1046 1079 1046 q 1140 1033 1140 1046 q 1115 1021 1140 1021 q 1075 1017 1099 1021 q 1024 938 1028 1008 q 1021 643 1021 892 l 1021 494 q 999 265 1021 353 q 889 76 968 144 q 600 -24 772 -24 q 292 72 397 -24 q 168 440 168 183 m 831 1349 q 835 1341 831 1349 q 871 1267 840 1332 q 872 1250 876 1256 q 864 1246 871 1246 q 817 1246 817 1246 q 579 1164 708 1233 q 556 1153 558 1153 q 547 1161 547 1153 q 560 1179 547 1167 q 783 1354 656 1271 q 811 1367 803 1367 q 831 1349 821 1367 z "},"":{"ha":1183,"x_min":28,"x_max":1140,"o":"m 168 440 l 168 643 q 165 938 168 892 q 106 1017 161 1004 q 51 1021 86 1021 q 28 1033 28 1021 q 58 1046 28 1046 q 172 1044 99 1046 q 261 1042 244 1042 q 341 1044 276 1042 q 432 1046 406 1046 q 463 1033 463 1046 q 440 1021 463 1021 q 400 1017 424 1021 q 349 938 353 1008 q 346 643 346 892 l 346 449 q 454 107 346 196 q 628 50 524 50 q 819 125 744 50 q 889 272 871 176 q 900 469 900 336 l 900 643 q 897 938 900 892 q 838 1017 893 1004 q 788 1021 818 1021 q 764 1033 764 1021 q 793 1046 764 1046 q 953 1042 854 1046 q 1018 1044 957 1042 q 1111 1046 1079 1046 q 1140 1033 1140 1046 q 1115 1021 1140 1021 q 1075 1017 1099 1021 q 1024 938 1028 1008 q 1021 643 1021 892 l 1021 494 q 999 265 1021 353 q 889 76 968 144 q 600 -24 772 -24 q 292 72 397 -24 q 168 440 168 183 m 621 1363 q 646 1347 625 1363 q 811 1222 675 1322 q 831 1203 831 1208 q 824 1189 831 1196 l 783 1149 q 765 1139 774 1139 q 744 1154 760 1139 q 622 1257 701 1199 q 604 1265 611 1265 q 583 1258 596 1265 q 436 1156 501 1213 q 408 1139 417 1139 q 396 1153 396 1139 q 408 1174 396 1160 q 592 1346 456 1226 q 621 1363 611 1363 z "},"":{"ha":1183,"x_min":28,"x_max":1140,"o":"m 168 440 l 168 643 q 165 938 168 892 q 106 1017 161 1004 q 51 1021 86 1021 q 28 1033 28 1021 q 58 1046 28 1046 q 172 1044 99 1046 q 261 1042 244 1042 q 341 1044 276 1042 q 432 1046 406 1046 q 463 1033 463 1046 q 440 1021 463 1021 q 400 1017 424 1021 q 349 938 353 1008 q 346 643 346 892 l 346 449 q 454 107 346 196 q 628 50 524 50 q 819 125 744 50 q 889 272 871 176 q 900 469 900 336 l 900 643 q 897 938 900 892 q 838 1017 893 1004 q 788 1021 818 1021 q 764 1033 764 1021 q 793 1046 764 1046 q 953 1042 854 1046 q 1018 1044 957 1042 q 1111 1046 1079 1046 q 1140 1033 1140 1046 q 1115 1021 1140 1021 q 1075 1017 1099 1021 q 1024 938 1028 1008 q 1021 643 1021 892 l 1021 494 q 999 265 1021 353 q 889 76 968 144 q 600 -24 772 -24 q 292 72 397 -24 q 168 440 168 183 m 772 1153 q 710 1218 710 1153 q 726 1263 710 1242 q 774 1283 743 1283 q 839 1222 839 1283 q 820 1173 839 1193 q 772 1153 801 1153 m 479 1153 q 417 1218 417 1153 q 433 1262 417 1242 q 481 1282 450 1282 q 546 1222 546 1282 q 527 1173 546 1193 q 479 1153 508 1153 z "},"":{"ha":931,"x_min":-68,"x_max":1007,"o":"m 383 242 l 383 356 q 351 501 383 429 q 242 683 343 518 q 107 901 142 849 q 11 1003 56 978 q -47 1021 -21 1021 q -68 1033 -68 1021 q -42 1046 -68 1046 q 38 1044 -32 1046 q 133 1042 108 1042 q 196 1044 144 1042 q 282 1046 247 1046 q 303 1033 303 1046 q 272 1018 303 1026 q 253 993 253 1014 q 269 946 253 981 q 506 531 275 933 q 714 913 600 700 q 733 985 733 956 q 706 1019 733 1013 q 679 1033 679 1025 q 703 1046 679 1046 q 770 1044 726 1046 q 833 1042 814 1042 q 909 1044 849 1042 q 982 1046 969 1046 q 1007 1035 1007 1046 q 980 1021 1007 1021 q 920 1004 953 1021 q 844 936 888 988 q 705 718 811 896 q 579 494 599 540 q 558 356 558 444 l 558 242 q 565 83 558 119 q 619 26 574 32 q 689 21 660 21 q 711 10 711 21 q 682 -4 711 -4 q 557 -2 632 -4 q 469 0 482 0 q 389 -2 454 0 q 296 -4 324 -4 q 265 10 265 -4 q 296 22 265 18 q 336 26 315 25 q 379 103 375 35 q 383 242 383 163 m 725 1349 q 730 1341 725 1349 q 765 1267 735 1332 q 767 1250 771 1256 q 758 1246 765 1246 q 711 1246 711 1246 q 474 1164 603 1233 q 450 1153 453 1153 q 442 1161 442 1153 q 454 1179 442 1167 q 678 1354 550 1271 q 706 1367 697 1367 q 725 1349 715 1367 z "},"":{"ha":910,"x_min":88,"x_max":847,"o":"m 228 399 l 228 643 q 225 938 228 892 q 165 1017 221 1004 q 111 1021 146 1021 q 88 1033 88 1021 q 118 1046 88 1046 q 231 1044 160 1046 q 317 1042 303 1042 q 400 1044 329 1042 q 511 1046 471 1046 q 538 1033 538 1046 q 506 1019 538 1024 q 464 1015 485 1017 q 401 942 403 1004 q 399 817 399 849 q 521 822 482 822 q 779 743 689 822 q 847 579 847 683 q 751 340 847 432 q 506 249 654 249 q 476 250 483 249 q 460 263 460 250 q 499 278 460 278 q 619 340 564 278 q 681 501 681 408 q 603 715 681 638 q 469 764 554 764 q 410 756 429 764 q 399 729 399 751 l 399 399 q 406 101 399 163 q 460 26 414 33 q 528 21 500 21 q 546 10 546 21 q 518 -4 546 -4 q 397 -2 471 -4 q 311 0 324 0 q 233 -2 299 0 q 136 -4 167 -4 q 108 10 108 -4 q 139 22 108 19 q 181 26 160 25 q 221 103 213 33 q 228 399 228 157 z "},"":{"ha":1617,"x_min":125,"x_max":1514,"o":"m 354 -24 q 151 13 233 -24 q 125 60 125 24 q 132 242 125 135 q 149 278 135 278 q 163 254 163 278 q 175 183 163 225 q 374 43 217 43 q 514 94 461 43 q 560 201 560 140 q 424 424 560 317 l 360 474 q 154 803 154 635 q 243 992 154 918 q 475 1065 332 1065 q 660 1042 565 1065 q 679 1025 679 1036 q 676 976 679 1028 q 674 858 674 924 q 658 817 674 817 q 644 842 644 817 q 608 933 644 888 q 457 1001 554 1001 q 336 962 381 1001 q 292 858 292 922 q 323 766 292 810 q 439 658 354 722 l 478 629 q 654 455 603 535 q 706 275 706 375 q 575 33 706 118 q 354 -24 488 -24 m 1163 -24 q 960 13 1042 -24 q 933 60 933 24 q 940 242 933 135 q 957 278 943 278 q 971 254 971 278 q 983 183 971 225 q 1182 43 1025 43 q 1322 94 1269 43 q 1368 201 1368 140 q 1232 424 1368 317 l 1168 474 q 963 803 963 635 q 1051 992 963 918 q 1283 1065 1140 1065 q 1468 1042 1374 1065 q 1488 1025 1488 1036 q 1485 976 1488 1028 q 1482 858 1482 924 q 1467 817 1482 817 q 1453 842 1453 817 q 1417 933 1453 888 q 1265 1001 1363 1001 q 1144 962 1189 1001 q 1100 858 1100 922 q 1131 766 1100 810 q 1247 658 1163 722 l 1286 629 q 1463 455 1411 535 q 1514 275 1514 375 q 1383 33 1514 118 q 1163 -24 1296 -24 z "},"":{"ha":972,"x_min":-89,"x_max":1054,"o":"m 593 358 l 283 358 q 271 347 275 358 l 196 149 q 175 64 175 93 q 231 21 175 21 l 251 21 q 272 10 272 21 q 249 -4 272 -4 q 174 -2 226 -4 q 101 0 122 0 q 41 -2 101 0 q -62 -4 -19 -4 q -89 10 -89 -4 q -72 21 -89 21 q -29 24 -50 21 q 43 63 15 29 q 89 149 65 89 l 438 1021 q 476 1076 460 1076 q 511 1032 492 1076 q 856 178 639 710 q 978 26 914 40 q 1036 21 1003 21 q 1054 10 1054 21 q 1040 -1 1054 1 q 990 -4 1026 -4 q 728 -1 818 -4 q 686 10 686 0 q 706 22 686 21 q 718 54 728 29 l 607 349 q 593 358 603 358 m 311 428 l 567 428 q 574 436 576 428 l 449 779 q 442 792 446 792 q 433 779 436 792 l 306 438 q 311 428 303 428 m 589 1163 q 574 1153 589 1153 q 292 1268 551 1153 q 246 1303 246 1289 q 264 1315 246 1310 q 357 1350 313 1329 q 383 1360 378 1360 q 406 1329 383 1360 q 560 1188 451 1267 q 589 1163 589 1167 z "},"":{"ha":972,"x_min":-89,"x_max":1054,"o":"m 593 358 l 283 358 q 271 347 275 358 l 196 149 q 175 64 175 93 q 231 21 175 21 l 251 21 q 272 10 272 21 q 249 -4 272 -4 q 174 -2 226 -4 q 101 0 122 0 q 41 -2 101 0 q -62 -4 -19 -4 q -89 10 -89 -4 q -72 21 -89 21 q -29 24 -50 21 q 43 63 15 29 q 89 149 65 89 l 438 1021 q 476 1076 460 1076 q 511 1032 492 1076 q 856 178 639 710 q 978 26 914 40 q 1036 21 1003 21 q 1054 10 1054 21 q 1040 -1 1054 1 q 990 -4 1026 -4 q 728 -1 818 -4 q 686 10 686 0 q 706 22 686 21 q 718 54 728 29 l 607 349 q 593 358 603 358 m 311 428 l 567 428 q 574 436 576 428 l 449 779 q 442 792 446 792 q 433 779 436 792 l 306 438 q 311 428 303 428 m 676 1349 q 681 1341 676 1349 q 717 1267 686 1332 q 718 1250 722 1256 q 710 1246 717 1246 q 663 1246 663 1246 q 425 1164 554 1233 q 401 1153 404 1153 q 393 1161 393 1153 q 406 1179 393 1167 q 629 1354 501 1271 q 657 1367 649 1367 q 676 1349 667 1367 z "},"":{"ha":972,"x_min":-89,"x_max":1054,"o":"m 593 358 l 283 358 q 271 347 275 358 l 196 149 q 175 64 175 93 q 231 21 175 21 l 251 21 q 272 10 272 21 q 249 -4 272 -4 q 174 -2 226 -4 q 101 0 122 0 q 41 -2 101 0 q -62 -4 -19 -4 q -89 10 -89 -4 q -72 21 -89 21 q -29 24 -50 21 q 43 63 15 29 q 89 149 65 89 l 438 1021 q 476 1076 460 1076 q 511 1032 492 1076 q 856 178 639 710 q 978 26 914 40 q 1036 21 1003 21 q 1054 10 1054 21 q 1040 -1 1054 1 q 990 -4 1026 -4 q 728 -1 818 -4 q 686 10 686 0 q 706 22 686 21 q 718 54 728 29 l 607 349 q 593 358 603 358 m 311 428 l 567 428 q 574 436 576 428 l 449 779 q 442 792 446 792 q 433 779 436 792 l 306 438 q 311 428 303 428 m 494 1363 q 519 1347 499 1363 q 685 1222 549 1322 q 704 1203 704 1208 q 697 1189 704 1196 l 657 1149 q 639 1139 647 1139 q 618 1154 633 1139 q 496 1257 575 1199 q 478 1265 485 1265 q 457 1258 469 1265 q 310 1156 375 1213 q 282 1139 290 1139 q 269 1153 269 1139 q 282 1174 269 1160 q 465 1346 329 1226 q 494 1363 485 1363 z "},"":{"ha":972,"x_min":-89,"x_max":1054,"o":"m 593 358 l 283 358 q 271 347 275 358 l 196 149 q 175 64 175 93 q 231 21 175 21 l 251 21 q 272 10 272 21 q 249 -4 272 -4 q 174 -2 226 -4 q 101 0 122 0 q 41 -2 101 0 q -62 -4 -19 -4 q -89 10 -89 -4 q -72 21 -89 21 q -29 24 -50 21 q 43 63 15 29 q 89 149 65 89 l 438 1021 q 476 1076 460 1076 q 511 1032 492 1076 q 856 178 639 710 q 978 26 914 40 q 1036 21 1003 21 q 1054 10 1054 21 q 1040 -1 1054 1 q 990 -4 1026 -4 q 728 -1 818 -4 q 686 10 686 0 q 706 22 686 21 q 718 54 728 29 l 607 349 q 593 358 603 358 m 311 428 l 567 428 q 574 436 576 428 l 449 779 q 442 792 446 792 q 433 779 436 792 l 306 438 q 311 428 303 428 m 585 1153 q 468 1188 532 1153 q 371 1222 404 1222 q 276 1172 324 1222 q 254 1158 264 1158 q 244 1168 244 1158 q 256 1194 244 1178 q 400 1301 324 1301 q 511 1263 442 1301 q 611 1232 565 1232 q 696 1274 664 1232 q 718 1292 710 1292 q 729 1281 729 1292 q 721 1257 729 1274 q 672 1196 706 1226 q 585 1153 628 1153 z "},"":{"ha":972,"x_min":-89,"x_max":1054,"o":"m 593 358 l 283 358 q 271 347 275 358 l 196 149 q 175 64 175 93 q 231 21 175 21 l 251 21 q 272 10 272 21 q 249 -4 272 -4 q 174 -2 226 -4 q 101 0 122 0 q 41 -2 101 0 q -62 -4 -19 -4 q -89 10 -89 -4 q -72 21 -89 21 q -29 24 -50 21 q 43 63 15 29 q 89 149 65 89 l 438 1021 q 476 1076 460 1076 q 511 1032 492 1076 q 856 178 639 710 q 978 26 914 40 q 1036 21 1003 21 q 1054 10 1054 21 q 1040 -1 1054 1 q 990 -4 1026 -4 q 728 -1 818 -4 q 686 10 686 0 q 706 22 686 21 q 718 54 728 29 l 607 349 q 593 358 603 358 m 311 428 l 567 428 q 574 436 576 428 l 449 779 q 442 792 446 792 q 433 779 436 792 l 306 438 q 311 428 303 428 m 632 1153 q 569 1218 569 1153 q 586 1263 569 1242 q 633 1283 603 1283 q 699 1222 699 1283 q 680 1173 699 1193 q 632 1153 661 1153 m 339 1153 q 276 1218 276 1153 q 293 1262 276 1242 q 340 1282 310 1282 q 406 1222 406 1282 q 387 1173 406 1193 q 339 1153 368 1153 z "},"":{"ha":972,"x_min":-89,"x_max":1054,"o":"m 593 358 l 283 358 q 271 347 275 358 l 196 149 q 175 64 175 93 q 231 21 175 21 l 251 21 q 272 10 272 21 q 249 -4 272 -4 q 174 -2 226 -4 q 101 0 122 0 q 41 -2 101 0 q -62 -4 -19 -4 q -89 10 -89 -4 q -72 21 -89 21 q -29 24 -50 21 q 43 63 15 29 q 89 149 65 89 l 438 1021 q 476 1076 460 1076 q 511 1032 492 1076 q 856 178 639 710 q 978 26 914 40 q 1036 21 1003 21 q 1054 10 1054 21 q 1040 -1 1054 1 q 990 -4 1026 -4 q 728 -1 818 -4 q 686 10 686 0 q 706 22 686 21 q 718 54 728 29 l 607 349 q 593 358 603 358 m 311 428 l 567 428 q 574 436 576 428 l 449 779 q 442 792 446 792 q 433 779 436 792 l 306 438 q 311 428 303 428 m 450 1139 q 360 1163 394 1139 q 326 1222 326 1186 q 382 1308 326 1271 q 517 1344 438 1344 q 613 1322 576 1344 q 649 1264 649 1300 q 583 1172 649 1208 q 450 1139 524 1139 m 411 1242 q 433 1193 411 1213 q 481 1174 454 1174 q 540 1195 515 1174 q 564 1246 564 1217 q 490 1310 564 1310 q 439 1293 463 1310 q 411 1242 411 1274 z "},"":{"ha":1288,"x_min":-129,"x_max":1199,"o":"m 647 399 l 647 465 q 635 476 647 476 l 411 476 q 388 467 394 476 q 238 208 324 357 q 176 72 176 107 q 202 33 176 44 q 271 21 228 21 q 292 10 292 21 q 265 -4 292 -4 q 144 -2 214 -4 q 67 0 74 0 q -4 -2 60 0 q -110 -4 -68 -4 q -129 10 -129 -4 q -110 21 -129 21 q -50 33 -79 21 q 43 106 0 56 q 97 178 69 142 q 607 965 163 260 q 638 1025 632 1004 q 656 1046 643 1046 q 679 1044 656 1046 q 729 1042 703 1042 q 1076 1043 1058 1042 q 1136 1051 1113 1046 q 1158 1057 1160 1057 q 1167 1044 1167 1057 q 1163 1019 1167 1043 q 1156 954 1158 992 q 1149 863 1154 917 q 1135 847 1146 847 q 1123 863 1125 847 q 1119 892 1121 878 q 1114 917 1118 906 q 1021 967 1097 957 q 824 972 974 972 q 814 958 814 972 l 814 563 q 824 547 814 547 q 1046 550 1014 547 q 1082 554 1069 551 q 1113 571 1103 560 q 1135 589 1129 589 q 1144 576 1144 589 q 1140 549 1144 575 q 1133 475 1136 517 q 1128 382 1128 396 q 1115 356 1128 356 q 1103 370 1103 356 q 1097 418 1103 385 q 1019 472 1086 465 q 822 478 968 478 q 814 464 814 478 l 814 399 q 813 276 814 374 q 813 183 813 186 q 844 88 814 110 q 979 67 875 67 q 1110 83 1074 67 q 1172 186 1158 106 q 1188 207 1176 207 q 1199 182 1199 207 q 1181 28 1199 97 q 1161 -3 1174 3 q 1106 -8 1149 -8 q 865 -4 985 -8 q 721 0 746 0 q 647 -2 706 0 q 560 -4 588 -4 q 533 8 533 -4 q 553 21 533 21 q 600 26 574 21 q 640 103 632 33 q 647 399 647 157 m 647 553 l 647 889 l 640 889 q 442 556 547 735 q 439 544 438 547 q 449 542 440 542 l 635 542 q 647 553 647 542 z "},"":{"ha":1111,"x_min":76,"x_max":1042,"o":"m 725 -24 q 249 127 422 -24 q 76 538 76 278 q 238 917 76 769 q 678 1065 400 1065 q 879 1051 774 1065 q 1018 1028 928 1042 q 1039 1011 1039 1026 q 1036 988 1039 1007 q 1032 935 1033 963 q 1028 785 1031 874 q 1011 753 1025 753 q 997 783 997 753 q 943 911 996 856 q 833 972 907 949 q 661 997 754 997 q 400 911 494 997 q 272 551 272 794 q 421 181 272 322 q 710 57 550 57 q 847 68 799 57 q 964 135 921 85 q 1011 226 1001 176 q 1029 254 1017 254 q 1042 233 1042 254 q 1032 153 1042 218 q 1012 50 1021 81 q 975 8 1003 19 q 725 -24 896 -24 m 586 0 l 668 0 l 528 -93 l 528 -96 q 707 -207 707 -111 q 663 -290 707 -253 q 576 -336 625 -322 q 431 -356 507 -356 q 407 -342 407 -356 q 443 -324 407 -326 q 541 -294 501 -318 q 581 -231 581 -269 q 447 -128 581 -157 q 419 -115 419 -122 q 447 -93 419 -111 l 586 0 z "},"":{"ha":878,"x_min":88,"x_max":789,"o":"m 228 399 l 228 643 q 225 938 228 892 q 165 1017 221 1004 q 111 1021 146 1021 q 88 1033 88 1021 q 118 1046 88 1046 q 231 1044 160 1046 q 318 1042 303 1042 q 665 1043 647 1042 q 725 1051 701 1046 q 747 1057 749 1057 q 756 1044 756 1057 q 751 1019 756 1043 q 745 954 747 992 q 738 863 743 917 q 724 847 735 847 q 712 863 714 847 q 708 892 710 878 q 703 917 707 906 q 610 967 686 957 q 413 972 563 972 q 403 958 403 972 l 403 607 q 413 592 403 592 q 635 594 603 592 q 671 599 658 596 q 701 615 692 604 q 724 633 718 633 q 733 622 733 633 q 729 594 733 621 q 722 521 725 563 q 717 428 717 442 q 704 401 717 401 q 692 416 692 401 q 686 464 692 431 q 608 518 675 511 q 411 522 569 522 q 403 508 403 522 l 403 183 q 435 88 406 110 q 569 67 465 67 q 700 83 664 67 q 763 186 749 106 q 778 207 767 207 q 789 182 789 207 q 771 28 789 97 q 751 -3 764 3 q 696 -8 739 -8 q 456 -4 575 -8 q 311 0 336 0 q 233 -2 299 0 q 136 -4 167 -4 q 108 10 108 -4 q 139 22 108 19 q 181 26 160 25 q 221 103 213 33 q 228 399 228 157 m 563 1163 q 547 1153 563 1153 q 265 1268 525 1153 q 219 1303 219 1289 q 238 1315 219 1310 q 331 1350 286 1329 q 357 1360 351 1360 q 379 1329 357 1360 q 533 1188 425 1267 q 563 1163 563 1167 z "},"":{"ha":878,"x_min":88,"x_max":789,"o":"m 228 399 l 228 643 q 225 938 228 892 q 165 1017 221 1004 q 111 1021 146 1021 q 88 1033 88 1021 q 118 1046 88 1046 q 231 1044 160 1046 q 318 1042 303 1042 q 665 1043 647 1042 q 725 1051 701 1046 q 747 1057 749 1057 q 756 1044 756 1057 q 751 1019 756 1043 q 745 954 747 992 q 738 863 743 917 q 724 847 735 847 q 712 863 714 847 q 708 892 710 878 q 703 917 707 906 q 610 967 686 957 q 413 972 563 972 q 403 958 403 972 l 403 607 q 413 592 403 592 q 635 594 603 592 q 671 599 658 596 q 701 615 692 604 q 724 633 718 633 q 733 622 733 633 q 729 594 733 621 q 722 521 725 563 q 717 428 717 442 q 704 401 717 401 q 692 416 692 401 q 686 464 692 431 q 608 518 675 511 q 411 522 569 522 q 403 508 403 522 l 403 183 q 435 88 406 110 q 569 67 465 67 q 700 83 664 67 q 763 186 749 106 q 778 207 767 207 q 789 182 789 207 q 771 28 789 97 q 751 -3 764 3 q 696 -8 739 -8 q 456 -4 575 -8 q 311 0 336 0 q 233 -2 299 0 q 136 -4 167 -4 q 108 10 108 -4 q 139 22 108 19 q 181 26 160 25 q 221 103 213 33 q 228 399 228 157 m 643 1349 q 648 1341 643 1349 q 683 1267 653 1332 q 685 1250 689 1256 q 676 1246 683 1246 q 629 1246 629 1246 q 392 1164 521 1233 q 368 1153 371 1153 q 360 1161 360 1153 q 372 1179 360 1167 q 596 1354 468 1271 q 624 1367 615 1367 q 643 1349 633 1367 z "},"":{"ha":878,"x_min":88,"x_max":789,"o":"m 228 399 l 228 643 q 225 938 228 892 q 165 1017 221 1004 q 111 1021 146 1021 q 88 1033 88 1021 q 118 1046 88 1046 q 231 1044 160 1046 q 318 1042 303 1042 q 665 1043 647 1042 q 725 1051 701 1046 q 747 1057 749 1057 q 756 1044 756 1057 q 751 1019 756 1043 q 745 954 747 992 q 738 863 743 917 q 724 847 735 847 q 712 863 714 847 q 708 892 710 878 q 703 917 707 906 q 610 967 686 957 q 413 972 563 972 q 403 958 403 972 l 403 607 q 413 592 403 592 q 635 594 603 592 q 671 599 658 596 q 701 615 692 604 q 724 633 718 633 q 733 622 733 633 q 729 594 733 621 q 722 521 725 563 q 717 428 717 442 q 704 401 717 401 q 692 416 692 401 q 686 464 692 431 q 608 518 675 511 q 411 522 569 522 q 403 508 403 522 l 403 183 q 435 88 406 110 q 569 67 465 67 q 700 83 664 67 q 763 186 749 106 q 778 207 767 207 q 789 182 789 207 q 771 28 789 97 q 751 -3 764 3 q 696 -8 739 -8 q 456 -4 575 -8 q 311 0 336 0 q 233 -2 299 0 q 136 -4 167 -4 q 108 10 108 -4 q 139 22 108 19 q 181 26 160 25 q 221 103 213 33 q 228 399 228 157 m 447 1363 q 472 1347 451 1363 q 638 1222 501 1322 q 657 1203 657 1208 q 650 1189 657 1196 l 610 1149 q 592 1139 600 1139 q 571 1154 586 1139 q 449 1257 528 1199 q 431 1265 438 1265 q 410 1258 422 1265 q 263 1156 328 1213 q 235 1139 243 1139 q 222 1153 222 1139 q 235 1174 222 1160 q 418 1346 282 1226 q 447 1363 438 1363 z "},"":{"ha":878,"x_min":88,"x_max":789,"o":"m 228 399 l 228 643 q 225 938 228 892 q 165 1017 221 1004 q 111 1021 146 1021 q 88 1033 88 1021 q 118 1046 88 1046 q 231 1044 160 1046 q 318 1042 303 1042 q 665 1043 647 1042 q 725 1051 701 1046 q 747 1057 749 1057 q 756 1044 756 1057 q 751 1019 756 1043 q 745 954 747 992 q 738 863 743 917 q 724 847 735 847 q 712 863 714 847 q 708 892 710 878 q 703 917 707 906 q 610 967 686 957 q 413 972 563 972 q 403 958 403 972 l 403 607 q 413 592 403 592 q 635 594 603 592 q 671 599 658 596 q 701 615 692 604 q 724 633 718 633 q 733 622 733 633 q 729 594 733 621 q 722 521 725 563 q 717 428 717 442 q 704 401 717 401 q 692 416 692 401 q 686 464 692 431 q 608 518 675 511 q 411 522 569 522 q 403 508 403 522 l 403 183 q 435 88 406 110 q 569 67 465 67 q 700 83 664 67 q 763 186 749 106 q 778 207 767 207 q 789 182 789 207 q 771 28 789 97 q 751 -3 764 3 q 696 -8 739 -8 q 456 -4 575 -8 q 311 0 336 0 q 233 -2 299 0 q 136 -4 167 -4 q 108 10 108 -4 q 139 22 108 19 q 181 26 160 25 q 221 103 213 33 q 228 399 228 157 m 613 1153 q 550 1218 550 1153 q 567 1263 550 1242 q 614 1283 583 1283 q 679 1222 679 1283 q 660 1173 679 1193 q 613 1153 642 1153 m 319 1153 q 257 1218 257 1153 q 274 1262 257 1242 q 321 1282 290 1282 q 386 1222 386 1282 q 367 1173 386 1193 q 319 1153 349 1153 z "},"":{"ha":628,"x_min":74,"x_max":554,"o":"m 228 399 l 228 643 q 225 938 228 892 q 178 1015 221 1004 q 130 1021 154 1021 q 106 1035 106 1021 q 139 1046 106 1046 q 234 1044 167 1046 q 319 1042 301 1042 q 397 1044 335 1042 q 489 1046 460 1046 q 518 1035 518 1046 q 498 1021 518 1021 q 454 1017 478 1021 q 403 938 407 1008 q 400 643 400 892 l 400 399 q 406 94 400 150 q 461 26 411 33 q 532 21 501 21 q 554 10 554 21 q 528 -4 554 -4 q 399 -2 475 -4 q 311 0 324 0 q 233 -2 299 0 q 136 -4 167 -4 q 108 10 108 -4 q 139 22 108 19 q 181 26 160 25 q 221 95 214 33 q 228 399 228 157 m 417 1163 q 401 1153 417 1153 q 119 1268 379 1153 q 74 1303 74 1289 q 92 1315 74 1310 q 185 1350 140 1329 q 211 1360 206 1360 q 233 1329 211 1360 q 388 1188 279 1267 q 417 1163 417 1167 z "},"":{"ha":628,"x_min":106,"x_max":558,"o":"m 228 399 l 228 643 q 225 938 228 892 q 178 1015 221 1004 q 130 1021 154 1021 q 106 1035 106 1021 q 139 1046 106 1046 q 234 1044 167 1046 q 319 1042 301 1042 q 397 1044 335 1042 q 489 1046 460 1046 q 518 1035 518 1046 q 498 1021 518 1021 q 454 1017 478 1021 q 403 938 407 1008 q 400 643 400 892 l 400 399 q 406 94 400 150 q 461 26 411 33 q 532 21 501 21 q 554 10 554 21 q 528 -4 554 -4 q 399 -2 475 -4 q 311 0 324 0 q 233 -2 299 0 q 136 -4 167 -4 q 108 10 108 -4 q 139 22 108 19 q 181 26 160 25 q 221 95 214 33 q 228 399 228 157 m 518 1349 q 523 1341 518 1349 q 558 1267 528 1332 q 560 1250 564 1256 q 551 1246 558 1246 q 504 1246 504 1246 q 267 1164 396 1233 q 243 1153 246 1153 q 235 1161 235 1153 q 247 1179 235 1167 q 471 1354 343 1271 q 499 1367 490 1367 q 518 1349 508 1367 z "},"":{"ha":628,"x_min":97,"x_max":554,"o":"m 228 399 l 228 643 q 225 938 228 892 q 178 1015 221 1004 q 130 1021 154 1021 q 106 1035 106 1021 q 139 1046 106 1046 q 234 1044 167 1046 q 319 1042 301 1042 q 397 1044 335 1042 q 489 1046 460 1046 q 518 1035 518 1046 q 498 1021 518 1021 q 454 1017 478 1021 q 403 938 407 1008 q 400 643 400 892 l 400 399 q 406 94 400 150 q 461 26 411 33 q 532 21 501 21 q 554 10 554 21 q 528 -4 554 -4 q 399 -2 475 -4 q 311 0 324 0 q 233 -2 299 0 q 136 -4 167 -4 q 108 10 108 -4 q 139 22 108 19 q 181 26 160 25 q 221 95 214 33 q 228 399 228 157 m 322 1363 q 347 1347 326 1363 q 513 1222 376 1322 q 532 1203 532 1208 q 525 1189 532 1196 l 485 1149 q 467 1139 475 1139 q 446 1154 461 1139 q 324 1257 403 1199 q 306 1265 313 1265 q 285 1258 297 1265 q 138 1156 203 1213 q 110 1139 118 1139 q 97 1153 97 1139 q 110 1174 97 1160 q 293 1346 157 1226 q 322 1363 313 1363 z "},"":{"ha":628,"x_min":104,"x_max":554,"o":"m 228 399 l 228 643 q 225 938 228 892 q 178 1015 221 1004 q 130 1021 154 1021 q 106 1035 106 1021 q 139 1046 106 1046 q 234 1044 167 1046 q 319 1042 301 1042 q 397 1044 335 1042 q 489 1046 460 1046 q 518 1035 518 1046 q 498 1021 518 1021 q 454 1017 478 1021 q 403 938 407 1008 q 400 643 400 892 l 400 399 q 406 94 400 150 q 461 26 411 33 q 532 21 501 21 q 554 10 554 21 q 528 -4 554 -4 q 399 -2 475 -4 q 311 0 324 0 q 233 -2 299 0 q 136 -4 167 -4 q 108 10 108 -4 q 139 22 108 19 q 181 26 160 25 q 221 95 214 33 q 228 399 228 157 m 460 1153 q 397 1218 397 1153 q 414 1263 397 1242 q 461 1283 431 1283 q 526 1222 526 1283 q 508 1173 526 1193 q 460 1153 489 1153 m 167 1153 q 104 1218 104 1153 q 121 1262 104 1242 q 168 1282 138 1282 q 233 1222 233 1282 q 215 1173 233 1193 q 167 1153 196 1153 z "},"":{"ha":1300,"x_min":78,"x_max":1224,"o":"m 228 490 l 88 490 q 81 507 78 490 l 88 549 q 106 563 90 563 l 228 563 l 228 643 q 225 938 228 892 q 165 1017 221 1004 q 111 1021 146 1021 q 88 1033 88 1021 q 118 1046 88 1046 q 231 1044 160 1046 q 318 1042 303 1042 q 410 1044 335 1042 q 532 1046 485 1046 q 818 1026 719 1046 q 1089 888 989 992 q 1224 535 1224 747 q 1074 144 1224 299 q 907 39 1015 85 q 629 -17 774 -17 q 452 -8 575 -17 q 311 0 329 0 q 233 -2 299 0 q 136 -4 167 -4 q 108 10 108 -4 q 139 22 108 19 q 181 26 160 25 q 221 103 213 33 q 228 399 228 157 l 228 490 m 401 564 l 679 564 q 689 547 692 564 l 681 501 q 664 489 678 489 l 401 489 l 401 425 q 404 211 401 272 q 419 106 408 122 q 601 49 460 49 q 926 153 810 49 q 1038 494 1038 253 q 904 842 1038 714 q 510 981 758 981 q 422 972 440 981 q 403 943 403 964 q 401 665 401 881 l 401 564 z "},"":{"ha":1315,"x_min":65,"x_max":1233,"o":"m 290 768 l 306 185 q 354 31 310 46 q 408 24 358 29 q 450 10 450 18 q 418 -4 450 -4 q 308 -2 365 -4 q 246 0 251 0 q 193 -2 247 0 q 96 -4 139 -4 q 65 10 65 -4 q 101 22 65 19 q 150 28 126 25 q 185 72 176 36 q 193 200 192 104 l 206 1022 q 224 1069 207 1069 q 275 1026 235 1069 q 706 581 389 904 q 1011 264 847 433 l 1018 264 l 1004 888 q 999 958 1003 939 q 957 1013 988 1000 q 883 1021 936 1021 q 861 1033 861 1021 q 897 1046 861 1046 q 997 1044 939 1046 q 1065 1042 1056 1042 q 1114 1044 1067 1042 q 1201 1046 1161 1046 q 1233 1033 1233 1046 q 1208 1021 1233 1021 q 1124 975 1139 1021 q 1115 899 1117 950 l 1100 22 q 1082 -21 1099 -21 q 1035 10 1067 -21 q 625 418 901 142 q 413 639 531 511 q 294 768 353 704 l 290 768 m 783 1153 q 667 1188 731 1153 q 569 1222 603 1222 q 475 1172 522 1222 q 453 1158 463 1158 q 443 1168 443 1158 q 454 1194 443 1178 q 599 1301 522 1301 q 710 1263 640 1301 q 810 1232 764 1232 q 894 1274 863 1232 q 917 1292 908 1292 q 928 1281 928 1292 q 919 1257 928 1274 q 871 1196 904 1226 q 783 1153 826 1153 z "},"":{"ha":1288,"x_min":76,"x_max":1211,"o":"m 636 -24 q 207 157 361 -24 q 76 521 76 308 q 207 882 76 731 q 650 1065 364 1065 q 1060 925 908 1065 q 1211 546 1211 785 q 1056 142 1211 301 q 636 -24 896 -24 m 694 46 q 892 119 811 46 q 1017 494 1017 232 q 899 864 1017 722 q 610 999 785 999 q 379 911 467 999 q 268 564 268 800 q 382 197 268 340 q 694 46 500 46 m 746 1163 q 731 1153 746 1153 q 449 1268 708 1153 q 403 1303 403 1289 q 421 1315 403 1310 q 514 1350 469 1329 q 540 1360 535 1360 q 563 1329 540 1360 q 717 1188 608 1267 q 746 1163 746 1167 z "},"":{"ha":1288,"x_min":76,"x_max":1211,"o":"m 636 -24 q 207 157 361 -24 q 76 521 76 308 q 207 882 76 731 q 650 1065 364 1065 q 1060 925 908 1065 q 1211 546 1211 785 q 1056 142 1211 301 q 636 -24 896 -24 m 694 46 q 892 119 811 46 q 1017 494 1017 232 q 899 864 1017 722 q 610 999 785 999 q 379 911 467 999 q 268 564 268 800 q 382 197 268 340 q 694 46 500 46 m 833 1349 q 838 1341 833 1349 q 874 1267 843 1332 q 875 1250 879 1256 q 867 1246 874 1246 q 819 1246 819 1246 q 582 1164 711 1233 q 558 1153 561 1153 q 550 1161 550 1153 q 563 1179 550 1167 q 786 1354 658 1271 q 814 1367 806 1367 q 833 1349 824 1367 z "},"":{"ha":1288,"x_min":76,"x_max":1211,"o":"m 636 -24 q 207 157 361 -24 q 76 521 76 308 q 207 882 76 731 q 650 1065 364 1065 q 1060 925 908 1065 q 1211 546 1211 785 q 1056 142 1211 301 q 636 -24 896 -24 m 694 46 q 892 119 811 46 q 1017 494 1017 232 q 899 864 1017 722 q 610 999 785 999 q 379 911 467 999 q 268 564 268 800 q 382 197 268 340 q 694 46 500 46 m 651 1363 q 676 1347 656 1363 q 842 1222 706 1322 q 861 1203 861 1208 q 854 1189 861 1196 l 814 1149 q 796 1139 804 1139 q 775 1154 790 1139 q 653 1257 732 1199 q 635 1265 642 1265 q 614 1258 626 1265 q 467 1156 532 1213 q 439 1139 447 1139 q 426 1153 426 1139 q 439 1174 426 1160 q 622 1346 486 1226 q 651 1363 642 1363 z "},"":{"ha":1288,"x_min":76,"x_max":1211,"o":"m 636 -24 q 207 157 361 -24 q 76 521 76 308 q 207 882 76 731 q 650 1065 364 1065 q 1060 925 908 1065 q 1211 546 1211 785 q 1056 142 1211 301 q 636 -24 896 -24 m 694 46 q 892 119 811 46 q 1017 494 1017 232 q 899 864 1017 722 q 610 999 785 999 q 379 911 467 999 q 268 564 268 800 q 382 197 268 340 q 694 46 500 46 m 742 1153 q 625 1188 689 1153 q 528 1222 561 1222 q 433 1172 481 1222 q 411 1158 421 1158 q 401 1168 401 1158 q 413 1194 401 1178 q 557 1301 481 1301 q 668 1263 599 1301 q 768 1232 722 1232 q 853 1274 821 1232 q 875 1292 867 1292 q 886 1281 886 1292 q 878 1257 886 1274 q 829 1196 863 1226 q 742 1153 785 1153 z "},"":{"ha":1288,"x_min":76,"x_max":1211,"o":"m 636 -24 q 207 157 361 -24 q 76 521 76 308 q 207 882 76 731 q 650 1065 364 1065 q 1060 925 908 1065 q 1211 546 1211 785 q 1056 142 1211 301 q 636 -24 896 -24 m 694 46 q 892 119 811 46 q 1017 494 1017 232 q 899 864 1017 722 q 610 999 785 999 q 379 911 467 999 q 268 564 268 800 q 382 197 268 340 q 694 46 500 46 m 789 1153 q 726 1218 726 1153 q 743 1263 726 1242 q 790 1283 760 1283 q 856 1222 856 1283 q 837 1173 856 1193 q 789 1153 818 1153 m 496 1153 q 433 1218 433 1153 q 450 1262 433 1242 q 497 1282 467 1282 q 563 1222 563 1282 q 544 1173 563 1193 q 496 1153 525 1153 z "},"":{"ha":1288,"x_min":76,"x_max":1211,"o":"m 283 85 l 167 -37 q 153 -37 160 -44 l 114 -3 q 111 11 106 6 l 228 135 q 76 521 76 288 q 207 882 76 731 q 650 1065 364 1065 q 1011 964 868 1065 l 1115 1074 q 1135 1071 1122 1082 l 1174 1038 q 1174 1022 1182 1031 l 1071 914 q 1211 546 1211 776 q 1056 142 1211 301 q 636 -24 896 -24 q 283 85 425 -24 m 950 786 l 385 192 q 696 44 504 44 q 893 118 813 44 q 1018 493 1018 231 q 950 786 1018 657 m 342 256 l 907 853 q 611 997 793 997 q 381 910 468 997 q 269 563 269 799 q 342 256 269 385 z "},"":{"ha":1183,"x_min":28,"x_max":1140,"o":"m 168 440 l 168 643 q 165 938 168 892 q 106 1017 161 1004 q 51 1021 86 1021 q 28 1033 28 1021 q 58 1046 28 1046 q 172 1044 99 1046 q 261 1042 244 1042 q 341 1044 276 1042 q 432 1046 406 1046 q 463 1033 463 1046 q 440 1021 463 1021 q 400 1017 424 1021 q 349 938 353 1008 q 346 643 346 892 l 346 449 q 454 107 346 196 q 628 50 524 50 q 819 125 744 50 q 889 272 871 176 q 900 469 900 336 l 900 643 q 897 938 900 892 q 838 1017 893 1004 q 788 1021 818 1021 q 764 1033 764 1021 q 793 1046 764 1046 q 953 1042 854 1046 q 1018 1044 957 1042 q 1111 1046 1079 1046 q 1140 1033 1140 1046 q 1115 1021 1140 1021 q 1075 1017 1099 1021 q 1024 938 1028 1008 q 1021 643 1021 892 l 1021 494 q 999 265 1021 353 q 889 76 968 144 q 600 -24 772 -24 q 292 72 397 -24 q 168 440 168 183 m 694 1163 q 679 1153 694 1153 q 397 1268 657 1153 q 351 1303 351 1289 q 369 1315 351 1310 q 463 1350 418 1329 q 489 1360 483 1360 q 511 1329 489 1360 q 665 1188 557 1267 q 694 1163 694 1167 z "},"":{"ha":1183,"x_min":28,"x_max":1140,"o":"m 168 440 l 168 643 q 165 938 168 892 q 106 1017 161 1004 q 51 1021 86 1021 q 28 1033 28 1021 q 58 1046 28 1046 q 172 1044 99 1046 q 261 1042 244 1042 q 341 1044 276 1042 q 432 1046 406 1046 q 463 1033 463 1046 q 440 1021 463 1021 q 400 1017 424 1021 q 349 938 353 1008 q 346 643 346 892 l 346 449 q 454 107 346 196 q 628 50 524 50 q 819 125 744 50 q 889 272 871 176 q 900 469 900 336 l 900 643 q 897 938 900 892 q 838 1017 893 1004 q 788 1021 818 1021 q 764 1033 764 1021 q 793 1046 764 1046 q 953 1042 854 1046 q 1018 1044 957 1042 q 1111 1046 1079 1046 q 1140 1033 1140 1046 q 1115 1021 1140 1021 q 1075 1017 1099 1021 q 1024 938 1028 1008 q 1021 643 1021 892 l 1021 494 q 999 265 1021 353 q 889 76 968 144 q 600 -24 772 -24 q 292 72 397 -24 q 168 440 168 183 m 831 1349 q 835 1341 831 1349 q 871 1267 840 1332 q 872 1250 876 1256 q 864 1246 871 1246 q 817 1246 817 1246 q 579 1164 708 1233 q 556 1153 558 1153 q 547 1161 547 1153 q 560 1179 547 1167 q 783 1354 656 1271 q 811 1367 803 1367 q 831 1349 821 1367 z "},"":{"ha":1183,"x_min":28,"x_max":1140,"o":"m 168 440 l 168 643 q 165 938 168 892 q 106 1017 161 1004 q 51 1021 86 1021 q 28 1033 28 1021 q 58 1046 28 1046 q 172 1044 99 1046 q 261 1042 244 1042 q 341 1044 276 1042 q 432 1046 406 1046 q 463 1033 463 1046 q 440 1021 463 1021 q 400 1017 424 1021 q 349 938 353 1008 q 346 643 346 892 l 346 449 q 454 107 346 196 q 628 50 524 50 q 819 125 744 50 q 889 272 871 176 q 900 469 900 336 l 900 643 q 897 938 900 892 q 838 1017 893 1004 q 788 1021 818 1021 q 764 1033 764 1021 q 793 1046 764 1046 q 953 1042 854 1046 q 1018 1044 957 1042 q 1111 1046 1079 1046 q 1140 1033 1140 1046 q 1115 1021 1140 1021 q 1075 1017 1099 1021 q 1024 938 1028 1008 q 1021 643 1021 892 l 1021 494 q 999 265 1021 353 q 889 76 968 144 q 600 -24 772 -24 q 292 72 397 -24 q 168 440 168 183 m 621 1363 q 646 1347 625 1363 q 811 1222 675 1322 q 831 1203 831 1208 q 824 1189 831 1196 l 783 1149 q 765 1139 774 1139 q 744 1154 760 1139 q 622 1257 701 1199 q 604 1265 611 1265 q 583 1258 596 1265 q 436 1156 501 1213 q 408 1139 417 1139 q 396 1153 396 1139 q 408 1174 396 1160 q 592 1346 456 1226 q 621 1363 611 1363 z "},"":{"ha":1183,"x_min":28,"x_max":1140,"o":"m 168 440 l 168 643 q 165 938 168 892 q 106 1017 161 1004 q 51 1021 86 1021 q 28 1033 28 1021 q 58 1046 28 1046 q 172 1044 99 1046 q 261 1042 244 1042 q 341 1044 276 1042 q 432 1046 406 1046 q 463 1033 463 1046 q 440 1021 463 1021 q 400 1017 424 1021 q 349 938 353 1008 q 346 643 346 892 l 346 449 q 454 107 346 196 q 628 50 524 50 q 819 125 744 50 q 889 272 871 176 q 900 469 900 336 l 900 643 q 897 938 900 892 q 838 1017 893 1004 q 788 1021 818 1021 q 764 1033 764 1021 q 793 1046 764 1046 q 953 1042 854 1046 q 1018 1044 957 1042 q 1111 1046 1079 1046 q 1140 1033 1140 1046 q 1115 1021 1140 1021 q 1075 1017 1099 1021 q 1024 938 1028 1008 q 1021 643 1021 892 l 1021 494 q 999 265 1021 353 q 889 76 968 144 q 600 -24 772 -24 q 292 72 397 -24 q 168 440 168 183 m 772 1153 q 710 1218 710 1153 q 726 1263 710 1242 q 774 1283 743 1283 q 839 1222 839 1283 q 820 1173 839 1193 q 772 1153 801 1153 m 479 1153 q 417 1218 417 1153 q 433 1262 417 1242 q 481 1282 450 1282 q 546 1222 546 1282 q 527 1173 546 1193 q 479 1153 508 1153 z "},"":{"ha":931,"x_min":-68,"x_max":1007,"o":"m 383 242 l 383 356 q 351 501 383 429 q 242 683 343 518 q 107 901 142 849 q 11 1003 56 978 q -47 1021 -21 1021 q -68 1033 -68 1021 q -42 1046 -68 1046 q 38 1044 -32 1046 q 133 1042 108 1042 q 196 1044 144 1042 q 282 1046 247 1046 q 303 1033 303 1046 q 272 1018 303 1026 q 253 993 253 1014 q 269 946 253 981 q 506 531 275 933 q 714 913 600 700 q 733 985 733 956 q 706 1019 733 1013 q 679 1033 679 1025 q 703 1046 679 1046 q 770 1044 726 1046 q 833 1042 814 1042 q 909 1044 849 1042 q 982 1046 969 1046 q 1007 1035 1007 1046 q 980 1021 1007 1021 q 920 1004 953 1021 q 844 936 888 988 q 705 718 811 896 q 579 494 599 540 q 558 356 558 444 l 558 242 q 565 83 558 119 q 619 26 574 32 q 689 21 660 21 q 711 10 711 21 q 682 -4 711 -4 q 557 -2 632 -4 q 469 0 482 0 q 389 -2 454 0 q 296 -4 324 -4 q 265 10 265 -4 q 296 22 265 18 q 336 26 315 25 q 379 103 375 35 q 383 242 383 163 m 725 1349 q 730 1341 725 1349 q 765 1267 735 1332 q 767 1250 771 1256 q 758 1246 765 1246 q 711 1246 711 1246 q 474 1164 603 1233 q 450 1153 453 1153 q 442 1161 442 1153 q 454 1179 442 1167 q 678 1354 550 1271 q 706 1367 697 1367 q 725 1349 715 1367 z "},"":{"ha":910,"x_min":88,"x_max":847,"o":"m 228 399 l 228 643 q 225 938 228 892 q 165 1017 221 1004 q 111 1021 146 1021 q 88 1033 88 1021 q 118 1046 88 1046 q 231 1044 160 1046 q 317 1042 303 1042 q 400 1044 329 1042 q 511 1046 471 1046 q 538 1033 538 1046 q 506 1019 538 1024 q 464 1015 485 1017 q 401 942 403 1004 q 399 817 399 849 q 521 822 482 822 q 779 743 689 822 q 847 579 847 683 q 751 340 847 432 q 506 249 654 249 q 476 250 483 249 q 460 263 460 250 q 499 278 460 278 q 619 340 564 278 q 681 501 681 408 q 603 715 681 638 q 469 764 554 764 q 410 756 429 764 q 399 729 399 751 l 399 399 q 406 101 399 163 q 460 26 414 33 q 528 21 500 21 q 546 10 546 21 q 518 -4 546 -4 q 397 -2 471 -4 q 311 0 324 0 q 233 -2 299 0 q 136 -4 167 -4 q 108 10 108 -4 q 139 22 108 19 q 181 26 160 25 q 221 103 213 33 q 228 399 228 157 z "},"":{"ha":931,"x_min":-68,"x_max":1007,"o":"m 383 242 l 383 356 q 351 501 383 429 q 242 683 343 518 q 107 901 142 849 q 11 1003 56 978 q -47 1021 -21 1021 q -68 1033 -68 1021 q -42 1046 -68 1046 q 38 1044 -32 1046 q 133 1042 108 1042 q 196 1044 144 1042 q 282 1046 247 1046 q 303 1033 303 1046 q 272 1018 303 1026 q 253 993 253 1014 q 269 946 253 981 q 506 531 275 933 q 714 913 600 700 q 733 985 733 956 q 706 1019 733 1013 q 679 1033 679 1025 q 703 1046 679 1046 q 770 1044 726 1046 q 833 1042 814 1042 q 909 1044 849 1042 q 982 1046 969 1046 q 1007 1035 1007 1046 q 980 1021 1007 1021 q 920 1004 953 1021 q 844 936 888 988 q 705 718 811 896 q 579 494 599 540 q 558 356 558 444 l 558 242 q 565 83 558 119 q 619 26 574 32 q 689 21 660 21 q 711 10 711 21 q 682 -4 711 -4 q 557 -2 632 -4 q 469 0 482 0 q 389 -2 454 0 q 296 -4 324 -4 q 265 10 265 -4 q 296 22 265 18 q 336 26 315 25 q 379 103 375 35 q 383 242 383 163 m 653 1153 q 590 1218 590 1153 q 607 1263 590 1242 q 654 1283 624 1283 q 719 1222 719 1283 q 701 1173 719 1193 q 653 1153 682 1153 m 360 1153 q 297 1218 297 1153 q 314 1262 297 1242 q 361 1282 331 1282 q 426 1222 426 1282 q 408 1173 426 1193 q 360 1153 389 1153 z "},"":{"ha":628,"x_min":106,"x_max":554,"o":"m 228 399 l 228 643 q 225 938 228 892 q 178 1015 221 1004 q 130 1021 154 1021 q 106 1035 106 1021 q 139 1046 106 1046 q 234 1044 167 1046 q 319 1042 301 1042 q 397 1044 335 1042 q 489 1046 460 1046 q 518 1035 518 1046 q 498 1021 518 1021 q 454 1017 478 1021 q 403 938 407 1008 q 400 643 400 892 l 400 399 q 406 94 400 150 q 461 26 411 33 q 532 21 501 21 q 554 10 554 21 q 528 -4 554 -4 q 399 -2 475 -4 q 311 0 324 0 q 233 -2 299 0 q 136 -4 167 -4 q 108 10 108 -4 q 139 22 108 19 q 181 26 160 25 q 221 95 214 33 q 228 399 228 157 z "},"":{"ha":840,"x_min":71,"x_max":824,"o":"m 401 528 l 401 399 q 406 192 401 242 q 431 100 411 117 q 599 69 465 69 q 761 108 725 69 q 797 192 792 142 q 813 217 800 217 q 824 189 824 217 q 803 29 824 106 q 769 -6 794 0 q 715 -8 760 -8 q 481 -4 604 -8 q 311 0 357 0 q 233 -2 299 0 q 136 -4 167 -4 q 108 10 108 -4 q 139 22 108 19 q 181 26 160 25 q 221 103 213 33 q 228 399 228 157 l 228 457 l 113 396 q 97 401 103 390 l 75 449 q 79 461 71 457 l 228 536 l 228 643 q 225 938 228 892 q 165 1017 221 1004 q 120 1021 146 1021 q 94 1033 94 1021 q 125 1046 94 1046 q 232 1044 163 1046 q 317 1042 301 1042 q 400 1044 331 1042 q 499 1046 469 1046 q 528 1033 528 1046 q 503 1021 528 1021 q 456 1017 479 1021 q 404 938 408 1008 q 401 643 401 892 l 401 610 l 586 700 q 608 696 604 708 l 625 650 q 615 631 631 636 l 401 528 z "},"":{"ha":840,"x_min":71,"x_max":824,"o":"m 401 528 l 401 399 q 406 192 401 242 q 431 100 411 117 q 599 69 465 69 q 761 108 725 69 q 797 192 792 142 q 813 217 800 217 q 824 189 824 217 q 803 29 824 106 q 769 -6 794 0 q 715 -8 760 -8 q 481 -4 604 -8 q 311 0 357 0 q 233 -2 299 0 q 136 -4 167 -4 q 108 10 108 -4 q 139 22 108 19 q 181 26 160 25 q 221 103 213 33 q 228 399 228 157 l 228 457 l 113 396 q 97 401 103 390 l 75 449 q 79 461 71 457 l 228 536 l 228 643 q 225 938 228 892 q 165 1017 221 1004 q 120 1021 146 1021 q 94 1033 94 1021 q 125 1046 94 1046 q 232 1044 163 1046 q 317 1042 301 1042 q 400 1044 331 1042 q 499 1046 469 1046 q 528 1033 528 1046 q 503 1021 528 1021 q 456 1017 479 1021 q 404 938 408 1008 q 401 643 401 892 l 401 610 l 586 700 q 608 696 604 708 l 625 650 q 615 631 631 636 l 401 528 z "},"":{"ha":1653,"x_min":76,"x_max":1564,"o":"m 1178 510 l 1178 185 q 1210 89 1181 111 q 1344 67 1240 67 q 1475 83 1439 67 q 1538 186 1524 106 q 1553 207 1542 207 q 1564 182 1564 207 q 1546 28 1564 97 q 1526 -3 1539 3 q 1471 -8 1514 -8 q 1228 -4 1351 -8 q 1072 0 1106 0 q 1045 -2 1060 0 q 1025 -4 1031 -4 q 1011 6 1011 -4 q 1015 47 1011 -4 q 1017 124 1017 65 q 617 -24 865 -24 q 203 156 350 -24 q 76 522 76 308 q 206 890 76 740 q 625 1065 356 1065 q 1013 907 875 1065 l 1017 907 q 1015 1006 1017 981 q 1014 1018 1015 1008 q 1013 1033 1013 1028 q 1026 1046 1013 1046 q 1045 1044 1025 1046 q 1093 1042 1065 1042 q 1440 1043 1422 1042 q 1500 1051 1476 1046 q 1522 1057 1524 1057 q 1531 1044 1531 1057 q 1526 1019 1531 1043 q 1520 954 1522 992 q 1513 863 1518 917 q 1499 847 1510 847 q 1487 863 1489 847 q 1483 892 1485 878 q 1478 917 1482 906 q 1385 967 1461 957 q 1188 972 1338 972 q 1178 958 1178 972 l 1178 608 q 1188 593 1178 593 q 1410 596 1378 593 q 1446 600 1433 597 q 1476 617 1467 606 q 1499 635 1493 635 q 1508 622 1508 635 q 1504 594 1508 621 q 1497 521 1500 563 q 1492 428 1492 442 q 1479 401 1492 401 q 1467 416 1467 401 q 1461 464 1467 431 q 1383 518 1450 511 q 1186 524 1332 524 q 1178 510 1178 524 m 265 564 q 390 179 265 325 q 679 44 507 44 q 918 149 832 44 q 1011 472 1011 260 q 906 843 1011 699 q 601 997 793 997 q 367 894 458 997 q 265 564 265 778 z "},"":{"ha":1653,"x_min":76,"x_max":1564,"o":"m 1178 510 l 1178 185 q 1210 89 1181 111 q 1344 67 1240 67 q 1475 83 1439 67 q 1538 186 1524 106 q 1553 207 1542 207 q 1564 182 1564 207 q 1546 28 1564 97 q 1526 -3 1539 3 q 1471 -8 1514 -8 q 1272 -4 1404 -8 q 1072 0 1139 0 q 1045 -2 1060 0 q 1025 -4 1031 -4 q 1011 6 1011 -4 q 1015 47 1011 -4 q 1017 124 1017 65 q 617 -24 865 -24 q 203 156 350 -24 q 76 522 76 308 q 206 890 76 740 q 625 1065 356 1065 q 1013 907 875 1065 l 1017 907 q 1015 1006 1017 981 q 1014 1018 1015 1008 q 1013 1033 1013 1028 q 1026 1046 1013 1046 q 1045 1044 1025 1046 q 1093 1042 1065 1042 q 1440 1043 1422 1042 q 1500 1051 1476 1046 q 1522 1057 1524 1057 q 1531 1044 1531 1057 q 1526 1019 1531 1043 q 1520 954 1522 992 q 1513 863 1518 917 q 1499 847 1510 847 q 1487 863 1489 847 q 1483 892 1485 878 q 1478 917 1482 906 q 1385 967 1461 957 q 1188 972 1338 972 q 1178 958 1178 972 l 1178 608 q 1188 593 1178 593 q 1410 596 1378 593 q 1446 600 1433 597 q 1476 617 1467 606 q 1499 635 1493 635 q 1508 622 1508 635 q 1504 594 1508 621 q 1497 521 1500 563 q 1492 428 1492 442 q 1479 401 1492 401 q 1467 416 1467 401 q 1461 464 1467 431 q 1383 518 1450 511 q 1186 524 1332 524 q 1178 510 1178 524 m 265 564 q 390 179 265 325 q 679 44 507 44 q 918 149 832 44 q 1011 472 1011 260 q 906 843 1011 699 q 601 997 793 997 q 367 894 458 997 q 265 564 265 778 z "},"":{"ha":808,"x_min":125,"x_max":706,"o":"m 354 -24 q 151 13 233 -24 q 125 60 125 24 q 132 242 125 135 q 149 278 135 278 q 163 254 163 278 q 175 183 163 225 q 374 43 217 43 q 514 94 461 43 q 560 201 560 140 q 424 424 560 317 l 360 474 q 154 803 154 635 q 243 992 154 918 q 475 1065 332 1065 q 660 1042 565 1065 q 679 1025 679 1036 q 676 976 679 1028 q 674 858 674 924 q 658 817 674 817 q 644 842 644 817 q 608 933 644 888 q 457 1001 554 1001 q 336 962 381 1001 q 292 858 292 922 q 323 766 292 810 q 439 658 354 722 l 478 629 q 654 455 603 535 q 706 275 706 375 q 575 33 706 118 q 354 -24 488 -24 m 215 1313 l 256 1353 q 271 1363 265 1363 q 294 1347 279 1363 q 417 1244 344 1297 q 435 1236 428 1236 q 456 1242 446 1236 q 604 1349 528 1285 q 631 1363 622 1363 q 643 1349 643 1363 q 631 1328 643 1342 q 447 1156 567 1260 q 418 1139 428 1139 q 393 1154 414 1139 q 228 1279 364 1179 q 208 1299 208 1293 q 215 1313 208 1306 z "},"":{"ha":808,"x_min":125,"x_max":706,"o":"m 354 -24 q 151 13 233 -24 q 125 60 125 24 q 132 242 125 135 q 149 278 135 278 q 163 254 163 278 q 175 183 163 225 q 374 43 217 43 q 514 94 461 43 q 560 201 560 140 q 424 424 560 317 l 360 474 q 154 803 154 635 q 243 992 154 918 q 475 1065 332 1065 q 660 1042 565 1065 q 679 1025 679 1036 q 676 976 679 1028 q 674 858 674 924 q 658 817 674 817 q 644 842 644 817 q 608 933 644 888 q 457 1001 554 1001 q 336 962 381 1001 q 292 858 292 922 q 323 766 292 810 q 439 658 354 722 l 478 629 q 654 455 603 535 q 706 275 706 375 q 575 33 706 118 q 354 -24 488 -24 m 215 1313 l 256 1353 q 271 1363 265 1363 q 294 1347 279 1363 q 417 1244 344 1297 q 435 1236 428 1236 q 456 1242 446 1236 q 604 1349 528 1285 q 631 1363 622 1363 q 643 1349 643 1363 q 631 1328 643 1342 q 447 1156 567 1260 q 418 1139 428 1139 q 393 1154 414 1139 q 228 1279 364 1179 q 208 1299 208 1293 q 215 1313 208 1306 z "},"":{"ha":931,"x_min":-68,"x_max":1007,"o":"m 383 242 l 383 356 q 351 501 383 429 q 242 683 343 518 q 107 901 142 849 q 11 1003 56 978 q -47 1021 -21 1021 q -68 1033 -68 1021 q -42 1046 -68 1046 q 38 1044 -32 1046 q 133 1042 108 1042 q 196 1044 144 1042 q 282 1046 247 1046 q 303 1033 303 1046 q 272 1018 303 1026 q 253 993 253 1014 q 269 946 253 981 q 506 531 275 933 q 714 913 600 700 q 733 985 733 956 q 706 1019 733 1013 q 679 1033 679 1025 q 703 1046 679 1046 q 770 1044 726 1046 q 833 1042 814 1042 q 909 1044 849 1042 q 982 1046 969 1046 q 1007 1035 1007 1046 q 980 1021 1007 1021 q 920 1004 953 1021 q 844 936 888 988 q 705 718 811 896 q 579 494 599 540 q 558 356 558 444 l 558 242 q 565 83 558 119 q 619 26 574 32 q 689 21 660 21 q 711 10 711 21 q 682 -4 711 -4 q 557 -2 632 -4 q 469 0 482 0 q 389 -2 454 0 q 296 -4 324 -4 q 265 10 265 -4 q 296 22 265 18 q 336 26 315 25 q 379 103 375 35 q 383 242 383 163 m 653 1153 q 590 1218 590 1153 q 607 1263 590 1242 q 654 1283 624 1283 q 719 1222 719 1283 q 701 1173 719 1193 q 653 1153 682 1153 m 360 1153 q 297 1218 297 1153 q 314 1262 297 1242 q 361 1282 331 1282 q 426 1222 426 1282 q 408 1173 426 1193 q 360 1153 389 1153 z "},"":{"ha":986,"x_min":82,"x_max":921,"o":"m 308 76 l 650 76 q 868 153 826 76 q 893 219 886 186 q 907 242 897 242 q 921 199 921 242 q 893 29 921 129 q 851 -7 883 -7 q 497 -3 742 -7 q 106 0 251 0 q 82 14 82 0 q 103 56 82 24 l 690 968 l 418 968 q 218 939 271 968 q 165 886 182 919 q 140 818 158 874 q 126 806 136 806 q 115 829 115 806 q 143 1029 115 854 q 160 1056 147 1056 q 180 1051 164 1056 q 215 1046 196 1047 q 471 1042 315 1042 l 894 1042 q 918 1031 918 1042 q 907 1004 918 1022 q 308 76 760 765 m 311 1313 l 351 1353 q 367 1363 361 1363 q 390 1347 375 1363 q 513 1244 440 1297 q 531 1236 524 1236 q 551 1242 542 1236 q 700 1349 624 1285 q 726 1363 718 1363 q 739 1349 739 1363 q 726 1328 739 1342 q 543 1156 663 1260 q 514 1139 524 1139 q 489 1154 510 1139 q 324 1279 460 1179 q 304 1299 304 1293 q 311 1313 304 1306 z "},"":{"ha":986,"x_min":82,"x_max":921,"o":"m 308 76 l 650 76 q 868 153 826 76 q 893 219 886 186 q 907 242 897 242 q 921 199 921 242 q 893 29 921 129 q 851 -7 883 -7 q 497 -3 742 -7 q 106 0 251 0 q 82 14 82 0 q 103 56 82 24 l 690 968 l 418 968 q 218 939 271 968 q 165 886 182 919 q 140 818 158 874 q 126 806 136 806 q 115 829 115 806 q 143 1029 115 854 q 160 1056 147 1056 q 180 1051 164 1056 q 215 1046 196 1047 q 471 1042 315 1042 l 894 1042 q 918 1031 918 1042 q 907 1004 918 1022 q 308 76 760 765 m 311 1313 l 351 1353 q 367 1363 361 1363 q 390 1347 375 1363 q 513 1244 440 1297 q 531 1236 524 1236 q 551 1242 542 1236 q 700 1349 624 1285 q 726 1363 718 1363 q 739 1349 739 1363 q 726 1328 739 1342 q 543 1156 663 1260 q 514 1139 524 1139 q 489 1154 510 1139 q 324 1279 460 1179 q 304 1299 304 1293 q 311 1313 304 1306 z "},"":{"ha":771,"x_min":-85,"x_max":771,"o":"m 449 471 l 363 471 q 293 1 344 311 q 225 -186 265 -122 q 90 -297 178 -257 q -33 -322 36 -322 q -85 -307 -85 -322 q -75 -292 -85 -292 q -40 -290 -53 -292 q 18 -278 -3 -286 q 89 -218 63 -260 q 163 85 138 -142 l 206 472 l 158 475 q 106 472 149 475 q 61 468 63 468 q 50 481 46 468 l 63 524 q 79 540 67 540 q 105 539 81 540 q 153 538 129 538 l 214 538 q 353 953 243 828 q 613 1065 451 1065 q 754 1040 696 1065 q 771 1010 771 1033 q 756 857 771 972 q 739 826 751 826 q 726 857 726 826 q 701 950 726 908 q 581 1008 665 1008 q 436 903 488 1008 q 367 538 399 826 l 524 538 q 592 540 561 538 q 622 542 624 542 q 629 521 636 542 l 614 479 q 585 465 608 465 q 535 468 586 465 q 449 471 485 471 z "},"":{"ha":1288,"x_min":426,"x_max":861,"o":"m 651 1363 q 676 1347 656 1363 q 842 1222 706 1322 q 861 1203 861 1208 q 854 1189 861 1196 l 814 1149 q 796 1139 804 1139 q 775 1154 790 1139 q 653 1257 732 1199 q 635 1265 642 1265 q 614 1258 626 1265 q 467 1156 532 1213 q 439 1139 447 1139 q 426 1153 426 1139 q 439 1174 426 1160 q 622 1346 486 1226 q 651 1363 642 1363 z "},"":{"ha":1288,"x_min":426,"x_max":861,"o":"m 433 1313 l 474 1353 q 489 1363 483 1363 q 513 1347 497 1363 q 635 1244 563 1297 q 653 1236 646 1236 q 674 1242 664 1236 q 822 1349 746 1285 q 849 1363 840 1363 q 861 1349 861 1363 q 849 1328 861 1342 q 665 1156 785 1260 q 636 1139 646 1139 q 611 1154 632 1139 q 446 1279 582 1179 q 426 1299 426 1293 q 433 1313 426 1306 z "},"":{"ha":1288,"x_min":456,"x_max":832,"o":"m 803 1190 l 469 1190 q 458 1200 456 1190 l 469 1250 q 485 1263 472 1263 l 818 1263 q 829 1249 832 1263 l 818 1199 q 803 1190 817 1190 z "},"":{"ha":1288,"x_min":431,"x_max":857,"o":"m 431 1258 q 442 1272 431 1264 l 488 1308 q 506 1318 500 1318 q 535 1286 507 1318 q 663 1225 588 1225 q 785 1264 733 1225 q 828 1301 807 1281 q 846 1315 842 1315 q 857 1303 857 1315 q 826 1252 857 1288 q 769 1200 794 1217 q 619 1153 699 1153 q 482 1203 543 1153 q 431 1258 431 1244 z "},"":{"ha":1288,"x_min":565,"x_max":722,"o":"m 643 1153 q 583 1179 604 1153 q 565 1231 565 1200 q 583 1283 565 1261 q 643 1311 606 1311 q 700 1290 678 1311 q 722 1236 722 1269 q 700 1177 722 1201 q 643 1153 678 1153 z "},"":{"ha":1288,"x_min":483,"x_max":806,"o":"m 607 1139 q 517 1163 551 1139 q 483 1222 483 1186 q 539 1308 483 1271 q 674 1344 594 1344 q 769 1322 733 1344 q 806 1264 806 1300 q 740 1172 806 1208 q 607 1139 681 1139 m 568 1242 q 590 1193 568 1213 q 638 1174 611 1174 q 697 1195 672 1174 q 721 1246 721 1217 q 647 1310 721 1310 q 596 1293 619 1310 q 568 1242 568 1274 z "},"":{"ha":1288,"x_min":475,"x_max":813,"o":"m 675 -1 l 739 -1 q 649 -69 672 -46 q 597 -165 597 -118 q 694 -251 597 -229 q 808 -262 746 -254 q 813 -269 813 -265 q 799 -282 813 -278 q 682 -296 749 -296 q 475 -199 475 -296 q 567 -65 475 -136 q 675 -1 638 -10 z "},"":{"ha":1288,"x_min":401,"x_max":886,"o":"m 742 1153 q 625 1188 689 1153 q 528 1222 561 1222 q 433 1172 481 1222 q 411 1158 421 1158 q 401 1168 401 1158 q 413 1194 401 1178 q 557 1301 481 1301 q 668 1263 599 1301 q 768 1232 722 1232 q 853 1274 821 1232 q 875 1292 867 1292 q 886 1281 886 1292 q 878 1257 886 1274 q 829 1196 863 1226 q 742 1153 785 1153 z "},"":{"ha":1288,"x_min":375,"x_max":915,"o":"m 535 1335 q 569 1368 564 1368 q 596 1363 582 1368 q 660 1322 626 1350 q 663 1303 675 1310 q 608 1283 650 1300 q 419 1169 494 1231 q 389 1153 399 1153 q 382 1167 375 1153 q 535 1335 449 1240 m 775 1335 q 810 1368 804 1368 q 836 1363 822 1368 q 900 1322 867 1350 q 903 1303 915 1310 q 849 1283 890 1300 q 660 1169 735 1231 q 629 1153 639 1153 q 622 1167 615 1153 q 775 1335 689 1240 z "},"":{"ha":1449,"x_min":21,"x_max":1456,"o":"m 142 135 l 279 1040 q 303 1076 285 1076 q 340 1033 319 1076 l 719 250 l 1097 1043 q 1128 1076 1113 1076 q 1153 1033 1146 1076 l 1279 175 q 1303 75 1289 106 q 1347 35 1317 44 q 1433 21 1393 21 q 1456 11 1456 21 q 1419 -4 1456 -4 q 1138 4 1243 -4 q 1097 19 1097 7 q 1112 35 1097 29 q 1119 94 1126 40 l 1036 706 l 1031 706 l 728 75 q 676 -3 690 -3 q 628 67 664 -3 q 468 382 496 318 q 324 690 421 485 l 318 690 l 246 138 q 242 72 242 106 q 283 28 242 38 q 342 21 314 21 q 363 11 363 21 q 329 -4 363 -4 q 244 -2 296 -4 q 183 0 192 0 q 122 -2 172 0 q 46 -4 71 -4 q 21 11 21 -4 q 43 21 21 21 q 85 25 65 21 q 142 135 126 33 z "},"":{"ha":694,"x_min":0,"x_max":694,"o":"m 0 524 l 0 604 l 694 604 l 694 524 l 0 524 z "},"":{"ha":1389,"x_min":0,"x_max":1389,"o":"m 1389 524 l 0 524 l 0 604 l 1389 604 l 1389 524 z "},"":{"ha":303,"x_min":60,"x_max":243,"o":"m 182 896 q 215 800 182 833 q 231 775 231 785 q 215 764 231 764 q 100 790 189 764 q 60 831 60 803 q 113 988 60 890 q 213 1128 160 1075 q 235 1139 224 1139 q 243 1131 243 1139 q 236 1113 243 1126 q 182 896 182 1007 z "},"":{"ha":303,"x_min":60,"x_max":243,"o":"m 121 1007 q 88 1103 121 1069 q 72 1128 72 1118 q 88 1139 72 1139 q 203 1113 114 1139 q 243 1072 243 1100 q 190 915 243 1013 q 90 775 143 828 q 68 764 79 764 q 60 772 60 764 q 67 790 60 776 q 121 1007 121 896 z "},"":{"ha":303,"x_min":60,"x_max":243,"o":"m 121 68 q 88 164 121 131 q 72 189 72 179 q 88 200 72 200 q 203 174 114 200 q 243 133 243 161 q 190 -24 243 74 q 90 -164 143 -111 q 68 -175 79 -175 q 60 -167 60 -175 q 67 -149 60 -162 q 121 68 121 -43 z "},"":{"ha":500,"x_min":56,"x_max":444,"o":"m 383 901 q 417 807 383 839 q 432 782 432 793 q 417 772 432 772 q 304 797 388 772 q 264 836 264 810 q 315 990 264 894 q 414 1128 363 1076 q 435 1139 424 1139 q 444 1132 444 1139 q 436 1114 444 1131 q 383 901 383 1008 m 175 901 q 208 807 175 839 q 224 782 224 793 q 208 772 224 772 q 96 797 179 772 q 56 836 56 810 q 107 990 56 894 q 206 1128 154 1076 q 226 1139 215 1139 q 235 1132 235 1139 q 228 1114 235 1128 q 175 901 175 1008 z "},"":{"ha":500,"x_min":56,"x_max":444,"o":"m 236 1075 q 185 921 236 1017 q 86 782 138 835 q 64 772 75 772 q 56 779 56 772 q 64 797 56 783 q 117 1010 117 885 q 83 1104 117 1072 q 68 1129 68 1118 q 83 1139 68 1139 q 196 1114 113 1139 q 236 1075 236 1101 m 325 1010 q 292 1104 325 1072 q 276 1129 276 1118 q 292 1139 276 1139 q 404 1114 321 1139 q 444 1075 444 1101 q 393 921 444 1017 q 296 782 347 833 q 274 772 285 772 q 265 779 265 772 q 272 797 265 786 q 325 1010 325 885 z "},"":{"ha":500,"x_min":56,"x_max":444,"o":"m 117 68 q 83 164 117 131 q 68 189 68 179 q 83 200 68 200 q 199 174 110 200 q 239 133 239 161 q 186 -24 239 74 q 86 -164 139 -111 q 64 -175 75 -175 q 56 -167 56 -175 q 63 -149 56 -162 q 117 68 117 -43 m 322 68 q 289 164 322 131 q 274 189 274 179 q 289 200 274 200 q 404 174 315 200 q 444 133 444 161 q 392 -24 444 74 q 292 -164 344 -111 q 269 -175 281 -175 q 261 -167 261 -175 q 268 -149 261 -162 q 322 68 322 -43 z "},"":{"ha":594,"x_min":154,"x_max":431,"o":"m 232 539 q 176 647 232 624 q 154 664 154 660 q 182 678 154 678 q 374 647 235 678 q 424 631 417 638 q 431 613 431 625 q 419 581 431 597 q 244 396 378 518 q 214 375 217 375 q 206 383 206 375 q 214 414 206 389 q 232 539 232 469 z "},"":{"ha":1389,"x_min":150,"x_max":1239,"o":"m 231 0 q 171 25 192 0 q 150 82 150 50 q 172 137 150 111 q 232 163 193 163 q 290 141 267 163 q 314 85 314 119 q 291 24 314 49 q 231 0 268 0 m 693 0 q 633 25 654 0 q 613 82 613 50 q 634 137 613 111 q 694 163 656 163 q 753 141 729 163 q 776 85 776 119 q 753 24 776 49 q 693 0 731 0 m 1156 0 q 1096 25 1117 0 q 1075 82 1075 50 q 1097 137 1075 111 q 1157 163 1118 163 q 1215 141 1192 163 q 1239 85 1239 119 q 1216 24 1239 49 q 1156 0 1193 0 z "},"":{"ha":531,"x_min":51,"x_max":389,"o":"m 383 343 l 383 343 l 331 283 q 317 274 322 274 q 272 319 313 274 q 76 532 163 446 q 51 565 51 557 q 78 596 51 574 q 346 838 204 710 q 372 853 365 853 q 389 842 389 853 q 381 824 389 833 q 175 572 233 660 q 369 374 217 515 l 379 365 q 389 353 389 356 q 383 343 389 349 z "},"":{"ha":531,"x_min":142,"x_max":479,"o":"m 147 783 l 147 783 l 200 843 q 214 853 208 853 q 258 807 218 853 q 454 594 368 681 q 479 561 479 569 q 453 531 479 553 q 185 289 326 417 q 158 274 165 274 q 142 285 142 274 q 150 303 142 293 q 356 554 297 467 q 161 753 314 611 l 151 761 q 142 774 142 771 q 147 783 142 778 z "},"":{"ha":1014,"x_min":-15,"x_max":1026,"o":"m 85 1042 l 328 1042 q 372 1044 353 1042 q 389 1047 390 1047 q 394 1026 394 1047 q 394 989 394 1021 q 393 954 393 958 q 379 928 389 928 q 367 960 369 928 q 306 993 365 993 l 240 993 l 240 747 q 243 625 240 651 q 272 588 247 590 l 289 586 q 307 578 307 585 q 288 567 307 567 q 240 568 276 567 q 194 569 204 569 q 147 568 183 569 q 96 567 110 567 q 78 576 78 567 q 96 586 78 585 l 114 588 q 146 625 140 589 q 147 747 147 647 l 147 993 l 71 993 q 8 956 15 993 q -7 935 3 935 q -14 956 -15 935 q 0 1040 -8 993 q 6 1053 1 1051 q 15 1050 7 1053 q 33 1046 24 1047 q 85 1042 69 1042 m 424 632 l 483 1029 q 500 1056 488 1056 q 522 1036 513 1056 l 699 700 l 869 1040 q 889 1056 878 1056 q 903 1031 899 1056 l 963 649 q 1001 586 972 586 l 1014 586 q 1026 576 1026 586 q 1011 567 1026 567 q 890 572 922 567 q 875 588 876 575 l 838 858 l 832 858 l 701 603 q 675 568 683 568 q 647 603 665 568 l 515 864 l 510 864 l 485 632 q 483 607 483 619 q 501 588 483 588 l 514 586 q 531 576 531 585 q 518 567 531 567 q 479 568 506 567 q 446 569 453 569 q 419 568 439 569 q 386 567 399 567 q 371 576 371 567 q 388 586 371 586 l 400 588 q 424 632 417 589 z "},"":{"ha":347,"x_min":89,"x_max":258,"o":"m 172 454 q 108 482 132 454 q 89 539 89 506 q 108 594 89 569 q 174 624 133 624 q 234 601 210 624 q 258 543 258 579 q 235 480 258 506 q 172 454 211 454 z "},"":{"ha":1492,"x_min":88,"x_max":1418,"o":"m 403 511 l 403 399 q 410 103 403 164 q 464 26 418 33 q 533 21 504 21 q 557 10 557 21 q 526 -4 557 -4 q 401 -2 476 -4 q 315 0 326 0 q 234 -2 300 0 q 139 -4 168 -4 q 110 10 110 -4 q 140 22 110 19 q 181 26 160 25 q 221 103 213 33 q 228 399 228 157 l 228 643 q 225 938 228 892 q 165 1017 221 1004 q 111 1021 146 1021 q 88 1032 88 1021 q 119 1046 88 1046 q 231 1044 160 1046 q 319 1042 303 1042 q 686 1043 657 1042 q 743 1049 708 1043 q 765 1057 769 1057 q 775 1044 775 1057 q 771 1024 775 1040 q 764 982 767 1003 q 757 869 761 935 q 743 850 754 850 q 729 872 731 850 q 721 925 729 907 q 629 967 703 965 l 415 971 q 403 951 403 971 l 403 604 q 413 592 403 592 l 590 593 q 656 594 649 593 q 713 619 696 599 q 731 633 724 633 q 739 621 739 633 q 735 590 739 618 q 728 535 731 558 q 722 433 722 478 q 708 407 722 407 q 696 433 700 407 q 689 469 692 451 q 618 519 674 513 q 413 524 585 524 q 403 511 403 524 m 1092 399 l 1092 643 q 1089 938 1092 892 q 1042 1015 1085 1004 q 994 1021 1018 1021 q 969 1035 969 1021 q 1003 1046 969 1046 q 1098 1044 1031 1046 q 1183 1042 1165 1042 q 1261 1044 1199 1042 q 1353 1046 1324 1046 q 1382 1035 1382 1046 q 1362 1021 1382 1021 q 1318 1017 1342 1021 q 1267 938 1271 1008 q 1264 643 1264 892 l 1264 399 q 1269 94 1264 150 q 1325 26 1275 33 q 1396 21 1365 21 q 1418 10 1418 21 q 1392 -4 1418 -4 q 1263 -2 1339 -4 q 1175 0 1188 0 q 1097 -2 1163 0 q 1000 -4 1031 -4 q 972 10 972 -4 q 1003 22 972 19 q 1044 26 1024 25 q 1085 95 1078 33 q 1092 399 1092 157 z "},"":{"ha":1704,"x_min":88,"x_max":1688,"o":"m 403 511 l 403 399 q 410 103 403 164 q 464 26 418 33 q 533 21 504 21 q 557 10 557 21 q 526 -4 557 -4 q 401 -2 476 -4 q 315 0 326 0 q 234 -2 300 0 q 139 -4 168 -4 q 110 10 110 -4 q 140 22 110 19 q 181 26 160 25 q 221 103 213 33 q 228 399 228 157 l 228 643 q 225 938 228 892 q 165 1017 221 1004 q 111 1021 146 1021 q 88 1032 88 1021 q 119 1046 88 1046 q 231 1044 160 1046 q 319 1042 303 1042 q 686 1043 657 1042 q 743 1049 708 1043 q 765 1057 769 1057 q 775 1044 775 1057 q 771 1024 775 1040 q 764 982 767 1003 q 757 869 761 935 q 743 850 754 850 q 729 872 731 850 q 721 925 729 907 q 629 967 703 965 l 415 971 q 403 951 403 971 l 403 604 q 413 592 403 592 l 590 593 q 656 594 649 593 q 713 619 696 599 q 731 633 724 633 q 739 621 739 633 q 735 590 739 618 q 728 535 731 558 q 722 433 722 478 q 708 407 722 407 q 696 433 700 407 q 689 469 692 451 q 618 519 674 513 q 413 524 585 524 q 403 511 403 524 m 1265 643 l 1265 399 q 1269 192 1265 242 q 1294 100 1275 117 q 1463 69 1329 69 q 1625 108 1589 69 q 1661 192 1656 142 q 1676 213 1664 213 q 1688 189 1688 213 q 1667 29 1688 106 q 1633 -6 1658 0 q 1579 -8 1624 -8 q 1344 -4 1468 -8 q 1175 0 1221 0 q 1097 -2 1163 0 q 1000 -4 1031 -4 q 972 10 972 -4 q 1003 22 972 19 q 1044 26 1024 25 q 1085 103 1076 33 q 1092 399 1092 157 l 1092 643 q 1089 938 1092 892 q 1058 1007 1086 989 q 983 1021 1036 1021 q 960 1033 960 1021 q 990 1046 960 1046 q 1096 1044 1026 1046 q 1181 1042 1165 1042 q 1267 1044 1194 1042 q 1369 1046 1340 1046 q 1399 1033 1399 1046 q 1374 1021 1399 1021 q 1319 1017 1343 1021 q 1268 938 1272 1008 q 1265 643 1265 892 z "}}}
